<svg width="48" height="48" viewBox="0 0 48 48" fill="none" xmlns="http://www.w3.org/2000/svg">
<path fill-rule="evenodd" clip-rule="evenodd" d="M15.1921 37.6741L13.7351 40.1969C13.366 40.8372 12.544 41.0572 11.9051 40.6881C11.2677 40.3206 11.0463 39.4944 11.4144 38.8572L12.871 36.334C13.2406 35.6937 14.0621 35.4737 14.7024 35.8432C15.3413 36.2133 15.5623 37.0339 15.1921 37.6742V37.6741ZM18.2132 37.8705C18.0103 37.7532 17.78 37.6915 17.5455 37.6916C17.0822 37.6916 16.6308 37.932 16.3833 38.3613L14.021 42.4523C13.6514 43.0917 13.873 43.9138 14.5117 44.2833C15.1511 44.6528 15.9725 44.4328 16.3417 43.7926L18.704 39.7015C19.0731 39.0612 18.8531 38.2407 18.2133 37.8706L18.2132 37.8705ZM8.85566 21.1798C8.90975 21.1341 8.90234 21.0558 8.84009 21.0217L6.33575 19.6285C6.15453 19.5287 5.9586 19.5443 5.79575 19.6716C2.09225 22.5928 0.0257203 27.7538 0.881752 31.9423C0.915783 32.1119 1.00972 32.2266 1.169 32.2939L3.13391 33.1282C3.19972 33.1557 3.26731 33.1126 3.26731 33.0406C3.3156 28.3182 5.24778 24.2173 8.85566 21.1796V21.1798ZM22.3473 40.7127C22.2541 40.3649 22.0331 40.0762 21.725 39.8974C21.5219 39.7805 21.2916 39.719 21.0573 39.719C20.594 39.719 20.1426 39.9593 19.8941 40.3885L17.925 43.7998C17.5841 44.4346 17.8076 45.2327 18.4361 45.595C18.7441 45.773 19.1048 45.8198 19.4521 45.7266C19.7995 45.6333 20.0881 45.4123 20.267 45.1042L22.2158 41.7288C22.3937 41.4202 22.4406 41.0601 22.3473 40.7127ZM36.6411 35.2261L30.3576 31.5974C29.1306 30.8878 27.9858 30.2212 26.5202 30.2212C25.2103 30.2288 24.0253 30.808 22.8788 31.3688C21.0701 32.2523 19.0201 33.2537 16.8073 31.4218C16.1788 30.9003 15.8197 30.1209 15.8684 29.3846C15.9138 28.7093 16.2877 28.1192 16.9223 27.7236L22.0864 24.5048C20.5791 23.7553 19.1915 23.8752 17.625 24.0116C15.5565 24.19 13.2117 24.3945 10.1831 22.6909L9.59235 22.3581C6.42603 25.0873 4.7631 28.5845 4.64788 32.7591L9.644 35.3355C9.7147 35.3715 9.77846 35.4197 9.83235 35.4779L11.0325 36.7689L11.6812 35.6464C12.4294 34.3506 14.0923 33.9049 15.3894 34.6531C16.0869 35.0557 16.5377 35.7234 16.6891 36.4564C17.3994 36.2211 18.2028 36.2779 18.9002 36.6804C19.5981 37.083 20.0494 37.7508 20.2009 38.4836C20.9113 38.2485 21.715 38.3052 22.4121 38.7078C23.0386 39.0694 23.4863 39.6551 23.6746 40.3565C23.6885 40.408 23.7007 40.4596 23.7115 40.5113C24.4219 40.2759 25.226 40.3326 25.9239 40.735C26.4351 41.0292 26.8356 41.483 27.0639 42.0269L30.0926 43.7746C30.6808 44.1156 31.4448 43.9113 31.7844 43.3221C32.117 42.7444 31.9278 41.9948 31.3588 41.6468L27.6507 39.5052C27.4929 39.4141 27.3777 39.2641 27.3304 39.0882C27.2831 38.9122 27.3076 38.7247 27.3984 38.5668C27.4897 38.4089 27.64 38.2937 27.8162 38.2465C27.9924 38.1992 28.1802 38.2239 28.3382 38.315L32.6384 40.7979C33.2892 41.1741 34.1248 40.9503 34.5006 40.2992C34.8713 39.6577 34.6528 38.8237 34.0164 38.4454L30.3764 36.3444C30.0485 36.1542 29.9353 35.7339 30.1251 35.4051C30.3153 35.0761 30.7356 34.964 31.0635 35.1538L35.3098 37.6051C35.9578 37.9791 36.7975 37.7545 37.1715 37.1063C37.5868 36.388 37.2633 35.6804 36.6411 35.2262V35.2261ZM42.2043 19.6716C42.1115 19.6001 42.0098 19.5628 41.9048 19.5628C41.8239 19.5628 41.7425 19.5855 41.6639 19.6285L39.1587 21.0217C39.1242 21.0411 39.1133 21.0573 39.1094 21.0975C39.1057 21.1368 39.1132 21.1542 39.144 21.1798C42.7519 24.2174 44.6841 28.3184 44.7324 33.0408C44.7324 33.1128 44.8 33.1559 44.8658 33.1283L46.8301 32.2941C46.9891 32.2268 47.0828 32.1114 47.1178 31.9425C47.974 27.754 45.9073 22.5929 42.2043 19.6716ZM38.392 22.3455L37.1625 23.0297C35.1343 24.1579 32.8732 24.3618 30.624 23.6207C28.6327 22.9648 26.5448 23.3448 24.2373 24.7829L17.6495 28.8901C17.3893 29.0529 17.2558 29.2441 17.2402 29.4769C17.2194 29.7755 17.3944 30.1228 17.6835 30.3627C19.143 31.5713 20.3199 31.0891 22.2748 30.1337C23.5 29.5346 24.8894 28.8564 26.5111 28.8465C28.2824 28.8465 29.5631 29.5502 31.046 30.4077L37.3598 34.0539C37.6792 34.2331 38.1003 34.6715 38.2975 34.9854L43.3485 32.6488C43.2072 28.5164 41.5404 25.0525 38.392 22.3455ZM28.2819 44.317L27.2115 43.699C27.1509 43.9603 27.0519 44.2111 26.9176 44.4432L26.1903 45.7032L26.7643 46.0261C27.7699 46.6062 28.4259 46.2911 28.7065 45.8051C28.9617 45.3627 28.9341 44.7137 28.282 44.317H28.2819ZM25.2367 41.9252C24.5983 41.5601 23.7782 41.7719 23.4058 42.416L21.9487 44.9402C21.5799 45.5789 21.8009 46.4017 22.4394 46.7706C23.0797 47.1397 23.9002 46.9197 24.2698 46.2803L25.7264 43.7561C26.0964 43.1188 25.8726 42.2945 25.2367 41.9252ZM14.1659 10.8837C14.1659 5.45268 18.5688 1.0498 23.9998 1.0498C29.4309 1.0498 33.8338 5.45268 33.8338 10.8837C33.8338 16.3147 29.431 20.7176 23.9998 20.7176C18.5687 20.7176 14.1659 16.3148 14.1659 10.8837ZM18.2362 10.9296L20.5342 14.9099C20.7642 15.3082 21.1311 15.5534 21.5872 15.6135C22.0432 15.6735 22.4612 15.5316 22.7863 15.2064L29.5496 8.44321C30.0746 7.91831 30.0746 7.05918 29.5496 6.53427C29.0247 6.00937 28.1656 6.00937 27.6406 6.53427L22.0459 12.129L20.5742 9.57993C20.2035 8.93784 19.3723 8.71518 18.7303 9.08587C18.0874 9.45702 17.865 10.2868 18.2363 10.9297L18.2362 10.9296ZM38.1877 8.28046C38.3773 6.37105 39.8877 4.86065 41.7971 4.67109C39.8877 4.48152 38.3773 2.97112 38.1877 1.06171C37.9981 2.97112 36.4877 4.48152 34.5783 4.67109C36.4877 4.86065 37.9981 6.37105 38.1877 8.28046ZM9.26235 16.5944C9.41741 15.0321 10.6532 13.7963 12.2155 13.6413C10.6532 13.4862 9.41741 12.2504 9.26235 10.6881C9.10728 12.2504 7.87147 13.4862 6.30922 13.6413C7.87147 13.7963 9.10728 15.0321 9.26235 16.5944Z" fill="white"/>
</svg>
