<svg width="50" height="50" viewBox="0 0 50 50" fill="none" xmlns="http://www.w3.org/2000/svg">
<g clip-path="url(#clip0_279_3357)">
<path d="M16.7396 44.3787H19.7262V44.6307C19.7262 47.5914 22.1349 50.0001 25.0956 50.0001C28.0563 50.0001 30.465 47.5914 30.465 44.6307V44.3787H33.4516V37.8494H16.7396V44.3787ZM23.6305 29.8236L19.6484 27.2624V22.8523H22.5785V25.6631L25.0956 27.282L27.6127 25.6631V22.8523H30.5428V27.2624L26.5606 29.8236V34.9192H33.6633C33.9238 34.0383 34.4173 33.2318 35.1038 32.5989C38.1295 29.8096 39.865 25.8508 39.865 21.7375C39.865 13.5936 33.2394 6.96818 25.0956 6.96818L24.9894 6.96857C21.1044 6.99592 17.4406 8.53227 14.6729 11.2945C11.9051 14.0568 10.3617 17.7176 10.3269 21.6025C10.2898 25.7499 12.0125 29.7464 15.0532 32.5672C15.743 33.2068 16.2497 34.0187 16.5212 34.9193H23.6306L23.6305 29.8236ZM23.5346 0H26.4647V3.95896H23.5346V0ZM12.8567 3.63587L15.3942 2.17082L17.3788 5.60812L14.8413 7.07318L12.8567 3.63587ZM5.43293 12.1326L6.89798 9.59512L10.3353 11.5797L8.87023 14.1171L5.43293 12.1326ZM3.25195 20.2725H7.22107V23.2026H3.25195V20.2725ZM42.7784 20.2725H46.7475V23.2026H42.7784V20.2725ZM39.6628 11.5791L43.1002 9.59443L44.5653 12.1319L41.1279 14.1166L39.6628 11.5791ZM32.6201 5.609L34.6047 2.1717L37.1421 3.63675L35.1575 7.07406L32.6201 5.609Z" fill="url(#paint0_linear_279_3357)"/>
</g>
<defs>
<linearGradient id="paint0_linear_279_3357" x1="14.0331" y1="50.0001" x2="49.7598" y2="36.4982" gradientUnits="userSpaceOnUse">
<stop stop-color="#1C2A44"/>
<stop offset="0.5" stop-color="#377899"/>
<stop offset="1" stop-color="#4669AA"/>
</linearGradient>
<clipPath id="clip0_279_3357">
<rect width="50" height="50" fill="white"/>
</clipPath>
</defs>
</svg>
