<svg width="48" height="48" viewBox="0 0 48 48" fill="none" xmlns="http://www.w3.org/2000/svg">
<path d="M14.1562 35.3613V38.7351L9.47878 41.3337C8.83472 40.8128 8.01591 40.5 7.125 40.5C5.05725 40.5 3.375 42.1823 3.375 44.25C3.375 46.3177 5.05725 48 7.125 48C9.19275 48 10.875 46.3177 10.875 44.25C10.875 44.0947 10.8644 43.9418 10.8459 43.7915L16.2454 40.7917C16.4646 40.67 16.6473 40.4918 16.7745 40.2757C16.9017 40.0595 16.9688 39.8133 16.9688 39.5625V34.3594L16.2996 34.7609C15.6518 35.1493 14.9116 35.3567 14.1562 35.3613ZM25.4062 40.7746V38.4375H22.5938V40.7746C21.221 41.3321 20.25 42.6794 20.25 44.25C20.25 46.3177 21.9323 48 24 48C26.0677 48 27.75 46.3177 27.75 44.25C27.75 42.6794 26.7791 41.3321 25.4062 40.7746ZM40.875 40.5C39.9841 40.5 39.1653 40.8128 38.5212 41.3336L33.8438 38.7351V35.3613C33.0885 35.3567 32.3483 35.1493 31.7005 34.7609L31.0312 34.3594V39.5625C31.0312 39.8133 31.0983 40.0595 31.2255 40.2757C31.3527 40.4918 31.5354 40.67 31.7546 40.7917L37.1541 43.7915C37.135 43.9436 37.1253 44.0967 37.125 44.25C37.125 46.3177 38.8073 48 40.875 48C42.9427 48 44.625 46.3177 44.625 44.25C44.625 42.1823 42.9427 40.5 40.875 40.5ZM34.8654 32.1378L38.3253 28.6778C38.547 28.4561 38.6883 28.1666 38.7266 27.8553C38.765 27.544 38.6981 27.2289 38.5368 26.96L37.2517 24.8181C37.6887 23.9907 38.0468 23.1241 38.3214 22.2297L40.7473 21.6232C41.0516 21.5472 41.3217 21.3716 41.5147 21.1244C41.7077 20.8772 41.8125 20.5726 41.8125 20.259V15.366C41.8125 15.0524 41.7077 14.7478 41.5147 14.5006C41.3217 14.2534 41.0516 14.0778 40.7473 14.0018L38.3214 13.3953C38.0468 12.5008 37.6886 11.6342 37.2517 10.8068L38.5368 8.66494C38.6981 8.39601 38.765 8.08087 38.7266 7.76961C38.6883 7.45834 38.547 7.16882 38.3253 6.94706L34.8655 3.48722C34.6438 3.26546 34.3543 3.12419 34.043 3.08587C33.7317 3.04754 33.4166 3.11437 33.1477 3.27572L31.0057 4.56084C30.1783 4.12385 29.3117 3.76568 28.4173 3.49106L27.8108 1.06519C27.7348 0.76093 27.5592 0.490834 27.312 0.297832C27.0648 0.10483 26.7601 -1.52801e-06 26.4465 1.2599e-09L21.5535 1.2599e-09C21.2399 -1.32698e-05 20.9353 0.104816 20.6881 0.297821C20.4409 0.490827 20.2653 0.76093 20.1893 1.06519L19.5828 3.49106C18.6884 3.7657 17.8218 4.12387 16.9945 4.56084L14.8524 3.27572C14.5835 3.11438 14.2684 3.04755 13.9572 3.08588C13.6459 3.1242 13.3564 3.26546 13.1347 3.48722L9.67481 6.94706C9.45305 7.16882 9.31178 7.45834 9.27346 7.76961C9.23514 8.08087 9.30196 8.39601 9.46331 8.66494L10.7484 10.8068C10.3114 11.6342 9.95327 12.5008 9.67866 13.3953L7.25278 14.0018C6.94851 14.0778 6.67838 14.2533 6.48536 14.5005C6.29233 14.7477 6.18749 15.0524 6.1875 15.366V20.259C6.18749 20.5726 6.29232 20.8772 6.48532 21.1244C6.67833 21.3716 6.94843 21.5472 7.25269 21.6232L9.67856 22.2297C9.95321 23.1241 10.3113 23.9907 10.7483 24.8181L9.46322 26.96C9.30187 27.2289 9.23504 27.544 9.27337 27.8553C9.31169 28.1666 9.45296 28.4561 9.67472 28.6778L13.1346 32.1378C13.3563 32.3595 13.6458 32.5008 13.9571 32.5391C14.2684 32.5775 14.5835 32.5106 14.8524 32.3493L16.9943 31.0642C17.8217 31.5011 18.6883 31.8593 19.5827 32.134L20.1892 34.5599C20.2652 34.8642 20.4408 35.1343 20.688 35.3273C20.9352 35.5203 21.2398 35.6251 21.5534 35.6251H26.4464C26.76 35.6251 27.0646 35.5203 27.3118 35.3273C27.559 35.1343 27.7346 34.8642 27.8107 34.5599L28.4171 32.134C29.3116 31.8594 30.1782 31.5012 31.0055 31.0642L33.1474 32.3493C33.4163 32.5106 33.7315 32.5775 34.0428 32.5391C34.3541 32.5008 34.6436 32.3595 34.8654 32.1378ZM24 24.375C20.3756 24.375 17.4375 21.4369 17.4375 17.8125C17.4375 14.1881 20.3756 11.25 24 11.25C27.6244 11.25 30.5625 14.1881 30.5625 17.8125C30.5625 21.4369 27.6244 24.375 24 24.375Z" fill="white"/>
</svg>
