<svg width="16" height="16" viewBox="0 0 16 16" fill="none" xmlns="http://www.w3.org/2000/svg">
<path d="M8.00002 0.150391C4.34682 0.150391 1.08762 2.77619 0.323419 6.35179C-0.0583813 8.13839 0.198819 10.0382 1.05062 11.6548C1.87042 13.2106 3.21442 14.468 4.82242 15.1806C6.49502 15.922 8.41522 16.0512 10.1732 15.5456C11.8692 15.058 13.373 13.9878 14.3968 12.5512C16.5374 9.54779 16.2512 5.32899 13.7328 2.63779C12.2568 1.06059 10.1604 0.150391 8.00002 0.150391ZM11.7658 8.41979L9.62582 10.6114C9.08402 11.1664 8.22762 10.3256 8.76722 9.77319L9.84702 8.66739H4.72982C4.36642 8.66739 4.06322 8.36399 4.06322 8.00079C4.06322 7.63759 4.36662 7.33419 4.72982 7.33419H9.82142L8.72022 6.23319C8.17302 5.68599 9.02142 4.83739 9.56862 5.38459L11.7608 7.57659C11.8725 7.68818 11.9356 7.8393 11.9366 7.99716C11.9375 8.15502 11.8762 8.30689 11.7658 8.41979Z" fill="#0F1842"/>
</svg>
