<svg width="16" height="16" viewBox="0 0 16 16" fill="none" xmlns="http://www.w3.org/2000/svg">
<path d="M14.1733 1.33334C14.0472 1.29514 13.9127 1.29514 13.7866 1.33334L1.78661 5.33334C1.66623 5.37332 1.55975 5.44682 1.47968 5.5452C1.39961 5.64359 1.34927 5.76277 1.33457 5.88877C1.31987 6.01476 1.34142 6.14233 1.39669 6.25651C1.45197 6.37068 1.53866 6.46672 1.64661 6.53334L6.15328 9.34L14.1733 1.33334ZM6.62661 9.84667L9.43328 14.3533C9.49332 14.4494 9.57686 14.5286 9.67601 14.5834C9.77516 14.6382 9.88665 14.6669 9.99994 14.6667H10.0799C10.2049 14.652 10.3232 14.6023 10.4211 14.5233C10.5191 14.4442 10.5926 14.3391 10.6333 14.22L14.6333 2.22C14.6715 2.09394 14.6715 1.9594 14.6333 1.83334L6.62661 9.84667Z" fill="url(#paint0_linear_279_3582)"/>
<defs>
<linearGradient id="paint0_linear_279_3582" x1="4.63461" y1="14.6667" x2="15.1698" y2="10.1001" gradientUnits="userSpaceOnUse">
<stop stop-color="#1C2A44"/>
<stop offset="0.5" stop-color="#377899"/>
<stop offset="1" stop-color="#4669AA"/>
</linearGradient>
</defs>
</svg>
