<svg width="18" height="18" viewBox="0 0 18 18" fill="none" xmlns="http://www.w3.org/2000/svg">
<path d="M15.6724 1.0625H14.0842V2.65074C14.0842 2.96838 13.8195 3.18015 13.5548 3.18015C13.2901 3.18015 13.0254 2.96838 13.0254 2.65074V1.0625H4.55478V2.65074C4.55478 2.96838 4.29007 3.18015 4.02537 3.18015C3.76066 3.18015 3.49596 2.96838 3.49596 2.65074V1.0625H1.90772C1.1136 1.0625 0.53125 1.75074 0.53125 2.65074V4.55662H17.4724V2.65074C17.4724 1.75074 16.5195 1.0625 15.6724 1.0625ZM0.53125 5.66838V15.3566C0.53125 16.3096 1.1136 16.9449 1.96066 16.9449H15.7254C16.5724 16.9449 17.5254 16.2566 17.5254 15.3566V5.66838H0.53125ZM5.24301 14.5625H3.97243C3.76066 14.5625 3.5489 14.4037 3.5489 14.139V12.8154C3.5489 12.6037 3.70772 12.3919 3.97243 12.3919H5.29596C5.50772 12.3919 5.71949 12.5507 5.71949 12.8154V14.139C5.66654 14.4037 5.50772 14.5625 5.24301 14.5625ZM5.24301 9.79779H3.97243C3.76066 9.79779 3.5489 9.63897 3.5489 9.37427V8.05074C3.5489 7.83897 3.70772 7.62721 3.97243 7.62721H5.29596C5.50772 7.62721 5.71949 7.78603 5.71949 8.05074V9.37427C5.66654 9.63897 5.50772 9.79779 5.24301 9.79779ZM9.47831 14.5625H8.15478C7.94302 14.5625 7.73125 14.4037 7.73125 14.139V12.8154C7.73125 12.6037 7.89007 12.3919 8.15478 12.3919H9.47831C9.69007 12.3919 9.90184 12.5507 9.90184 12.8154V14.139C9.90184 14.4037 9.74302 14.5625 9.47831 14.5625ZM9.47831 9.79779H8.15478C7.94302 9.79779 7.73125 9.63897 7.73125 9.37427V8.05074C7.73125 7.83897 7.89007 7.62721 8.15478 7.62721H9.47831C9.69007 7.62721 9.90184 7.78603 9.90184 8.05074V9.37427C9.90184 9.63897 9.74302 9.79779 9.47831 9.79779ZM13.7136 14.5625H12.3901C12.1783 14.5625 11.9665 14.4037 11.9665 14.139V12.8154C11.9665 12.6037 12.1254 12.3919 12.3901 12.3919H13.7136C13.9254 12.3919 14.1371 12.5507 14.1371 12.8154V14.139C14.1371 14.4037 13.9783 14.5625 13.7136 14.5625ZM13.7136 9.79779H12.3901C12.1783 9.79779 11.9665 9.63897 11.9665 9.37427V8.05074C11.9665 7.83897 12.1254 7.62721 12.3901 7.62721H13.7136C13.9254 7.62721 14.1371 7.78603 14.1371 8.05074V9.37427C14.1371 9.63897 13.9783 9.79779 13.7136 9.79779Z" fill="url(#paint0_linear_1894_12143)"/>
<defs>
<linearGradient id="paint0_linear_1894_12143" x1="4.74354" y1="16.9449" x2="17.8614" y2="10.847" gradientUnits="userSpaceOnUse">
<stop stop-color="#1C2A44"/>
<stop offset="0.5" stop-color="#377899"/>
<stop offset="1" stop-color="#4669AA"/>
</linearGradient>
</defs>
</svg>
