<svg width="50" height="50" viewBox="0 0 50 50" fill="none" xmlns="http://www.w3.org/2000/svg">
<path d="M45.2708 27.3339C43.4401 26.8641 41.6659 26.197 39.9792 25.3443C39.4583 25.0839 38.9792 24.8339 38.5417 24.5943C37.6771 24.1151 36.9896 23.6881 36.5417 23.3964C36.5161 23.3784 36.488 23.3644 36.4583 23.3547C36.1281 23.1622 35.7513 23.0643 35.3692 23.0717C34.987 23.079 34.6142 23.1914 34.2917 23.3964C31.6039 25.154 28.6589 26.4824 25.5625 27.3339C25.1067 27.4447 24.701 27.7049 24.4103 28.073C24.1195 28.4411 23.9604 28.896 23.9583 29.3651V31.1464C23.9572 33.7189 24.5919 36.2517 25.8059 38.5197C27.0198 40.7878 28.7755 42.7206 30.9167 44.1464L31.8854 44.7922L34.2604 46.3756C34.4487 46.4996 34.6564 46.5911 34.875 46.6464H34.8854C35.0562 46.7052 35.2361 46.7335 35.4167 46.7297C35.8283 46.7262 36.23 46.6032 36.5729 46.3756L39.9167 44.1464C42.0579 42.7206 43.8135 40.7878 45.0275 38.5197C46.2414 36.2517 46.8761 33.7189 46.875 31.1464V29.3651C46.8729 28.896 46.7138 28.4411 46.4231 28.073C46.1323 27.7049 45.7267 27.4447 45.2708 27.3339ZM39.2812 33.0318L35.1146 37.1985C34.9171 37.3921 34.6516 37.5006 34.375 37.5006C34.0984 37.5006 33.8329 37.3921 33.6354 37.1985L31.5521 35.1151C31.3559 34.919 31.2457 34.653 31.2457 34.3756C31.2457 34.0982 31.3559 33.8321 31.5521 33.636C31.7482 33.4398 32.0143 33.3296 32.2917 33.3296C32.5691 33.3296 32.8351 33.4398 33.0312 33.636L34.375 34.9901L37.8021 31.5526C37.8992 31.4555 38.0145 31.3785 38.1414 31.3259C38.2683 31.2734 38.4043 31.2463 38.5417 31.2463C38.679 31.2463 38.815 31.2734 38.9419 31.3259C39.0688 31.3785 39.1841 31.4555 39.2812 31.5526C39.3784 31.6498 39.4554 31.7651 39.508 31.892C39.5605 32.0189 39.5876 32.1549 39.5876 32.2922C39.5876 32.4296 39.5605 32.5656 39.508 32.6925C39.4554 32.8194 39.3784 32.9347 39.2812 33.0318Z" fill="white"/>
<path d="M37.0625 13.7918L28.1563 4.68764C27.8366 4.36415 27.4759 4.08399 27.0833 3.8543V11.4585C27.0858 12.2865 27.4158 13.0799 28.0014 13.6654C28.5869 14.251 29.3803 14.581 30.2083 14.5835H37.6979C37.51 14.3013 37.2974 14.0363 37.0625 13.7918ZM38.4792 16.6668H30.2083C28.827 16.6668 27.5022 16.1181 26.5255 15.1413C25.5487 14.1646 25 12.8398 25 11.4585V3.1668C24.814 3.1374 24.6258 3.12346 24.4375 3.12513H8.33333C6.952 3.12513 5.62724 3.67387 4.65049 4.65062C3.67373 5.62737 3.125 6.95213 3.125 8.33347V41.6668C3.125 43.0481 3.67373 44.3729 4.65049 45.3497C5.62724 46.3264 6.952 46.8751 8.33333 46.8751H31.2604L29.7604 45.8751C27.3333 44.2607 25.3432 42.071 23.9674 39.5011C22.5916 36.9312 21.8728 34.061 21.875 31.146V29.3647C21.8754 28.7205 22.0252 28.0852 22.3126 27.5086C22.5999 26.932 23.0171 26.4299 23.5313 26.0418H10.4167C10.1404 26.0418 9.87545 25.9321 9.6801 25.7367C9.48475 25.5414 9.375 25.2764 9.375 25.0001C9.375 24.7239 9.48475 24.4589 9.6801 24.2636C9.87545 24.0682 10.1404 23.9585 10.4167 23.9585H28.8958C30.3708 23.2933 31.7948 22.5204 33.1563 21.646C33.767 21.258 34.4675 21.034 35.1901 20.9957C35.9126 20.9573 36.6329 21.106 37.2813 21.4272L37.3542 21.4585L37.6667 21.646C37.8854 21.7918 38.1771 21.9689 38.5417 22.1876V17.4376C38.542 17.1794 38.5211 16.9216 38.4792 16.6668ZM21.875 37.5001C21.875 37.7764 21.7653 38.0414 21.5699 38.2367C21.3746 38.4321 21.1096 38.5418 20.8333 38.5418H10.4167C10.1404 38.5418 9.87545 38.4321 9.6801 38.2367C9.48475 38.0414 9.375 37.7764 9.375 37.5001C9.375 37.2239 9.48475 36.9589 9.6801 36.7636C9.87545 36.5682 10.1404 36.4585 10.4167 36.4585H20.8333C21.1096 36.4585 21.3746 36.5682 21.5699 36.7636C21.7653 36.9589 21.875 37.2239 21.875 37.5001ZM10.4167 30.2085H18.75C19.0263 30.2085 19.2912 30.3182 19.4866 30.5136C19.6819 30.7089 19.7917 30.9739 19.7917 31.2501C19.7917 31.5264 19.6819 31.7914 19.4866 31.9867C19.2912 32.1821 19.0263 32.2918 18.75 32.2918H10.4167C10.1404 32.2918 9.87545 32.1821 9.6801 31.9867C9.48475 31.7914 9.375 31.5264 9.375 31.2501C9.375 30.9739 9.48475 30.7089 9.6801 30.5136C9.87545 30.3182 10.1404 30.2085 10.4167 30.2085ZM10.4167 11.4585H18.75C19.0263 11.4585 19.2912 11.5682 19.4866 11.7636C19.6819 11.9589 19.7917 12.2239 19.7917 12.5001C19.7917 12.7764 19.6819 13.0414 19.4866 13.2367C19.2912 13.4321 19.0263 13.5418 18.75 13.5418H10.4167C10.1404 13.5418 9.87545 13.4321 9.6801 13.2367C9.48475 13.0414 9.375 12.7764 9.375 12.5001C9.375 12.2239 9.48475 11.9589 9.6801 11.7636C9.87545 11.5682 10.1404 11.4585 10.4167 11.4585ZM25 19.7918H10.4167C10.1404 19.7918 9.87545 19.6821 9.6801 19.4867C9.48475 19.2914 9.375 19.0264 9.375 18.7501C9.375 18.4739 9.48475 18.2089 9.6801 18.0136C9.87545 17.8182 10.1404 17.7085 10.4167 17.7085H25C25.2763 17.7085 25.5412 17.8182 25.7366 18.0136C25.9319 18.2089 26.0417 18.4739 26.0417 18.7501C26.0417 19.0264 25.9319 19.2914 25.7366 19.4867C25.5412 19.6821 25.2763 19.7918 25 19.7918Z" fill="white"/>
</svg>
