<svg width="50" height="50" viewBox="0 0 50 50" fill="none" xmlns="http://www.w3.org/2000/svg">
<g clip-path="url(#clip0_503_486)">
<path d="M42.6777 7.32236C37.9559 2.60049 31.6777 0 25 0C18.3223 0 12.0441 2.60049 7.32227 7.32236C2.60039 12.0442 0 18.3223 0 25C0 31.6777 2.60039 37.9559 7.32227 42.6776C12.0441 47.3994 18.3223 50 25 50C31.6777 50 37.9559 47.3995 42.6777 42.6776C47.3996 37.9558 50 31.6777 50 25C50 18.3223 47.3996 12.0441 42.6777 7.32236ZM25 45.093C13.9206 45.093 4.90703 36.0793 4.90703 25C4.90703 24.9818 4.90762 24.9639 4.90771 24.9459C4.90771 24.9413 4.90703 24.9369 4.90703 24.9323C4.90703 24.9246 4.90801 24.9172 4.9082 24.9096C4.95693 13.963 13.8033 5.05703 24.727 4.91055C24.7498 4.90947 24.7725 4.90713 24.7956 4.90713C24.8095 4.90713 24.823 4.90879 24.8367 4.90918C24.8912 4.90879 24.9455 4.90713 25.0001 4.90713C36.0795 4.90713 45.0931 13.9208 45.0931 25.0001C45.0931 36.0794 36.0794 45.093 25 45.093Z" fill="url(#paint0_linear_503_486)"/>
<path d="M40.2624 26.2071C39.4454 26.2071 38.7831 25.5448 38.7831 24.7278C38.7831 23.9108 39.4454 23.2485 40.2624 23.2485H42.0455C41.208 15.038 34.5492 8.52461 26.2748 7.91309V9.46533C26.2748 10.2823 25.6125 10.9446 24.7955 10.9446C23.9785 10.9446 23.3162 10.2823 23.3162 9.46533V7.94844C15.1643 8.74727 8.6708 15.2826 7.93614 23.4529H9.53301C10.35 23.4529 11.0123 24.1152 11.0123 24.9322C11.0123 25.7492 10.35 26.4115 9.53301 26.4115H7.92403C8.6042 34.7134 15.2278 41.3573 23.5207 42.0699V40.1946C23.5207 39.3776 24.183 38.7153 25 38.7153C25.817 38.7153 26.4793 39.3776 26.4793 40.1946V42.0699C34.84 41.3515 41.504 34.604 42.0913 26.2071H40.2624ZM30.9883 21.1038L26.0461 26.0461C25.9087 26.1835 25.7457 26.2925 25.5662 26.3668C25.3867 26.4412 25.1944 26.4794 25.0001 26.4794C24.8058 26.4794 24.6135 26.4412 24.434 26.3668C24.2545 26.2925 24.0915 26.1835 23.9541 26.0461L15.3513 17.4433C14.7735 16.8656 14.7735 15.929 15.3513 15.3513C15.9289 14.7735 16.8655 14.7735 17.4433 15.3513L25.0002 22.9081L28.8965 19.0118C29.4741 18.4341 30.4107 18.4341 30.9885 19.0118C31.566 19.5895 31.566 20.5262 30.9883 21.1038Z" fill="url(#paint1_linear_503_486)"/>
</g>
<defs>
<linearGradient id="paint0_linear_503_486" x1="12.3934" y1="50" x2="51.8766" y2="32.847" gradientUnits="userSpaceOnUse">
<stop stop-color="#1C2A44"/>
<stop offset="0.5" stop-color="#377899"/>
<stop offset="1" stop-color="#4669AA"/>
</linearGradient>
<linearGradient id="paint1_linear_503_486" x1="16.393" y1="42.0699" x2="43.3711" y2="30.346" gradientUnits="userSpaceOnUse">
<stop stop-color="#1C2A44"/>
<stop offset="0.5" stop-color="#377899"/>
<stop offset="1" stop-color="#4669AA"/>
</linearGradient>
<clipPath id="clip0_503_486">
<rect width="50" height="50" fill="white"/>
</clipPath>
</defs>
</svg>
