<svg width="5" height="10" viewBox="0 0 5 10" fill="none" xmlns="http://www.w3.org/2000/svg">
<path d="M2.93886 4.71135V1.99912C3.47201 2.18988 3.85598 2.69368 3.85598 3.29042H4.7731C4.7731 2.18254 3.98315 1.25808 2.93886 1.04287V0.539062H2.02174V1.04287C0.977446 1.25564 0.1875 2.18254 0.1875 3.29042C0.1875 4.3983 0.977446 5.32276 2.02174 5.53798V8.2502C1.48859 8.05944 1.10462 7.55564 1.10462 6.9589H0.1875C0.1875 8.06678 0.977446 8.99124 2.02174 9.20645V9.71026H2.93886V9.20645C3.98315 8.99368 4.7731 8.06678 4.7731 6.9589C4.7731 5.85102 3.98315 4.92656 2.93886 4.71135ZM1.10462 3.29042C1.10462 2.69368 1.48859 2.18988 2.02174 1.99912V4.58173C1.48859 4.39097 1.10462 3.88716 1.10462 3.29042ZM2.93886 8.2502V5.6676C3.47201 5.85836 3.85598 6.36216 3.85598 6.9589C3.85598 7.55564 3.46956 8.05944 2.93886 8.2502Z" fill="#28A745"/>
</svg>
