<svg width="48" height="48" viewBox="0 0 48 48" fill="none" xmlns="http://www.w3.org/2000/svg">
<path fill-rule="evenodd" clip-rule="evenodd" d="M7.413 27.5176C7.41324 27.3079 7.37681 27.0998 7.30537 26.9026L9.19687 25.0501H13.7961V26.5604C13.7961 26.5792 13.7961 26.5972 13.7968 26.6154L10.2048 27.773C10.0248 27.8306 9.87332 27.9544 9.78112 28.1194L7.30359 32.5286C7.2537 32.5245 7.20366 32.5224 7.15359 32.5223C6.74818 32.5223 6.35459 32.6589 6.0363 32.91C5.71801 33.1611 5.49359 33.5121 5.39922 33.9064C5.30485 34.3007 5.34604 34.7152 5.51615 35.0832C5.68626 35.4512 5.97537 35.7512 6.33685 35.9347C6.69833 36.1183 7.1111 36.1747 7.50858 36.0949C7.90607 36.0152 8.26509 35.8038 8.52775 35.495C8.7904 35.1862 8.94138 34.7979 8.95632 34.3928C8.97125 33.9876 8.84929 33.5893 8.61009 33.2619L10.9435 29.1057L14.3581 28.0054C14.559 28.2269 14.804 28.404 15.0774 28.5253C15.3508 28.6466 15.6466 28.7093 15.9457 28.7095H20.7389V22.3674C20.7389 21.9304 20.8289 21.4981 21.0032 21.0973C21.1775 20.6965 21.4324 20.3359 21.7521 20.0379C21.494 19.6441 21.3473 19.1879 21.3274 18.7174C21.3076 18.247 21.4154 17.78 21.6394 17.3659C21.8634 16.9518 22.1953 16.606 22.5999 16.3651C23.0044 16.1243 23.4666 15.9974 23.9374 15.9978C24.4083 15.9983 24.8702 16.1261 25.2743 16.3678C25.6784 16.6094 26.0095 16.9559 26.2327 17.3704C26.4559 17.785 26.5628 18.2522 26.542 18.7226C26.5213 19.193 26.3737 19.649 26.1148 20.0423C26.4332 20.3401 26.687 20.7001 26.8605 21.1001C27.034 21.5 27.1235 21.9313 27.1235 22.3673V28.1599C27.187 28.1561 27.2511 28.1542 27.3158 28.1542C27.9567 28.1536 28.5828 28.3471 29.1116 28.7093H31.9241C32.2306 28.7091 32.5334 28.6431 32.8123 28.516C33.0911 28.3889 33.3395 28.2035 33.5408 27.9724L37.0571 29.1055L39.3907 33.2617C39.1515 33.5891 39.0296 33.9875 39.0446 34.3926C39.0596 34.7977 39.2107 35.1859 39.4734 35.4947C39.7361 35.8035 40.0951 36.0147 40.4926 36.0944C40.8901 36.1742 41.3028 36.1176 41.6642 35.934C42.0257 35.7504 42.3147 35.4504 42.4847 35.0824C42.6548 34.7144 42.6959 34.2998 42.6015 33.9056C42.507 33.5114 42.2825 33.1604 41.9642 32.9094C41.6459 32.6584 41.2523 32.5219 40.8469 32.522C40.7963 32.522 40.7461 32.5242 40.6969 32.5283L38.2196 28.1187C38.1274 27.9537 37.976 27.8299 37.796 27.7723L34.0734 26.5723V25.0501H38.8031L40.6943 26.9029C40.5541 27.29 40.5506 27.7134 40.6844 28.1028C40.8182 28.4922 41.0812 28.824 41.4297 29.0432C41.7783 29.2624 42.1913 29.3557 42.6002 29.3076C43.0091 29.2595 43.3893 29.0729 43.6774 28.7788C43.9656 28.4847 44.1444 28.1009 44.1841 27.6911C44.2239 27.2813 44.1222 26.8702 43.896 26.5262C43.6697 26.1822 43.3326 25.926 42.9405 25.8002C42.5485 25.6744 42.1252 25.6865 41.7411 25.8346L39.6692 23.8051C39.5989 23.7249 39.5123 23.6606 39.4151 23.6167C39.3179 23.5727 39.2125 23.55 39.1058 23.5501H34.0732V20.8091H40.7499C40.9211 21.1836 41.2153 21.4883 41.5836 21.6725C41.9518 21.8567 42.372 21.9094 42.7744 21.8218C43.1767 21.7342 43.537 21.5116 43.7953 21.1909C44.0536 20.8703 44.1945 20.4709 44.1945 20.0591C44.1945 19.6474 44.0536 19.248 43.7953 18.9273C43.537 18.6067 43.1767 18.3841 42.7744 18.2965C42.372 18.2089 41.9518 18.2616 41.5836 18.4458C41.2153 18.63 40.9211 18.9346 40.7499 19.3091H34.0732V16.5683H39.1065C39.2131 16.5685 39.3186 16.5458 39.4157 16.5018C39.5129 16.4579 39.5995 16.3936 39.6698 16.3134L41.7417 14.2839C42.1257 14.432 42.5488 14.4441 42.9407 14.3183C43.3326 14.1926 43.6696 13.9365 43.8958 13.5927C44.122 13.2488 44.2237 12.838 44.184 12.4283C44.1443 12.0187 43.9657 11.635 43.6777 11.3409C43.3897 11.0469 43.0098 10.8603 42.6011 10.8121C42.1924 10.7639 41.7794 10.857 41.431 11.076C41.0825 11.2949 40.8195 11.6266 40.6856 12.0157C40.5517 12.4049 40.555 12.8282 40.695 13.2152L38.8031 15.0683H34.0732V13.7251L37.8248 12.3371C37.9927 12.2758 38.1331 12.1562 38.2203 12.0001L40.6969 7.58953C40.7464 7.59366 40.7964 7.59575 40.8469 7.59581C41.2523 7.59581 41.6459 7.45925 41.9642 7.20815C42.2825 6.95705 42.5069 6.60606 42.6013 6.21178C42.6956 5.81751 42.6544 5.40294 42.4843 5.03494C42.3142 4.66695 42.0251 4.36698 41.6636 4.18343C41.3021 3.99987 40.8894 3.94343 40.4919 4.02321C40.0944 4.10299 39.7354 4.31433 39.4727 4.62315C39.2101 4.93197 39.0591 5.32026 39.0442 5.7254C39.0292 6.13053 39.1512 6.52889 39.3904 6.85622L37.0488 11.0268L33.6516 12.2836C33.4521 12.0128 33.1918 11.7925 32.8917 11.6406C32.5917 11.4886 32.2601 11.4092 31.9238 11.4087H30.8567V7.76597C30.8567 5.93008 30.1274 4.16939 28.8292 2.87122C27.5311 1.57305 25.7704 0.84375 23.9345 0.84375C22.0986 0.84375 20.3379 1.57305 19.0397 2.87122C17.7416 4.16939 17.0122 5.93008 17.0122 7.76597V11.4087H15.9453C15.6169 11.4091 15.2931 11.4848 14.9985 11.6299C14.704 11.775 14.4466 11.9857 14.2462 12.2457L10.9513 11.027L8.60972 6.85622C8.84891 6.5289 8.97088 6.13054 8.95594 5.72541C8.941 5.32028 8.79004 4.93199 8.52739 4.62317C8.26474 4.31435 7.90572 4.103 7.50824 4.02322C7.11076 3.94343 6.698 3.99986 6.33652 4.1834C5.97504 4.36695 5.68592 4.6669 5.5158 5.03489C5.34568 5.40287 5.30447 5.81744 5.39883 6.21171C5.49318 6.60599 5.71759 6.95699 6.03586 7.2081C6.35414 7.45921 6.74772 7.59579 7.15312 7.59581C7.20375 7.59581 7.25375 7.59372 7.30312 7.58953L9.77981 12.0001C9.86693 12.1562 10.0073 12.2759 10.1752 12.3371L13.7958 13.6766V15.0688H9.19687L7.30537 13.2156C7.44538 12.8285 7.44871 12.4052 7.31482 12.016C7.18093 11.6268 6.91788 11.2952 6.5694 11.0762C6.22091 10.8572 5.80797 10.7641 5.39922 10.8123C4.99048 10.8605 4.61053 11.0471 4.32255 11.3412C4.03456 11.6352 3.85588 12.019 3.8162 12.4286C3.77652 12.8383 3.87823 13.2492 4.10443 13.5931C4.33063 13.9369 4.66769 14.193 5.05959 14.3187C5.45148 14.4445 5.87462 14.4323 6.25866 14.2843L8.33053 16.3138C8.40083 16.394 8.48747 16.4582 8.58463 16.5022C8.68179 16.5462 8.78723 16.5688 8.89387 16.5687H13.7962V19.3095H7.25006C7.07887 18.935 6.78472 18.6304 6.41648 18.4462C6.04823 18.262 5.62805 18.2094 5.22574 18.297C4.82343 18.3846 4.46319 18.6072 4.20487 18.9278C3.94654 19.2484 3.80568 19.6478 3.80568 20.0595C3.80568 20.4712 3.94654 20.8706 4.20487 21.1912C4.46319 21.5118 4.82343 21.7344 5.22574 21.822C5.62805 21.9096 6.04823 21.857 6.41648 21.6728C6.78472 21.4886 7.07887 21.184 7.25006 20.8095H13.7958V23.5501H8.8935C8.78685 23.55 8.68141 23.5727 8.58425 23.6167C8.48709 23.6606 8.40045 23.7249 8.33016 23.8051L6.25828 25.8346C5.89893 25.6959 5.50464 25.676 5.1331 25.7775C4.76157 25.8791 4.43229 26.0969 4.19346 26.3991C3.95463 26.7013 3.81877 27.072 3.80578 27.4569C3.79278 27.8419 3.90332 28.2209 4.12123 28.5385C4.33914 28.8561 4.65298 29.0956 5.01681 29.222C5.38065 29.3484 5.77539 29.355 6.14328 29.2409C6.51116 29.1269 6.83287 28.898 7.06134 28.5879C7.28981 28.2778 7.41304 27.9028 7.413 27.5176ZM34.2921 44.2933H21.8531C21.217 41.1215 18.9417 39.1949 16.2787 33.2407C15.2347 30.9064 17.6381 29.5431 19.2099 31.5484L22.2381 35.4129V22.3674C22.2347 22.1431 22.276 21.9203 22.3596 21.7121C22.4431 21.5039 22.5672 21.3143 22.7247 21.1545C22.8822 20.9947 23.0698 20.8678 23.2768 20.7811C23.4838 20.6945 23.7059 20.6499 23.9303 20.6499C24.1546 20.6499 24.3767 20.6945 24.5837 20.7811C24.7907 20.8678 24.9783 20.9947 25.1358 21.1545C25.2933 21.3143 25.4174 21.5039 25.5009 21.7121C25.5845 21.9203 25.6258 22.1431 25.6224 22.3674V31.3467C25.6291 30.9023 25.8102 30.4783 26.1269 30.1663C26.4435 29.8544 26.8701 29.6795 27.3146 29.6795C27.7591 29.6795 28.1857 29.8544 28.5024 30.1663C28.819 30.4783 29.0002 30.9023 29.0068 31.3467V32.8992C29.0035 32.6749 29.0448 32.4521 29.1283 32.2439C29.2119 32.0356 29.336 31.8461 29.4934 31.6863C29.6509 31.5265 29.8386 31.3995 30.0455 31.3129C30.2525 31.2263 30.4746 31.1817 30.699 31.1817C30.9234 31.1817 31.1455 31.2263 31.3525 31.3129C31.5594 31.3995 31.7471 31.5265 31.9046 31.6863C32.062 31.8461 32.1861 32.0356 32.2697 32.2439C32.3532 32.4521 32.3945 32.6749 32.3912 32.8992V34.4041C32.3879 34.1798 32.4292 33.957 32.5127 33.7488C32.5962 33.5405 32.7203 33.351 32.8778 33.1912C33.0353 33.0313 33.223 32.9044 33.4299 32.8178C33.6369 32.7311 33.859 32.6865 34.0834 32.6865C34.3077 32.6865 34.5299 32.7311 34.7368 32.8178C34.9438 32.9044 35.1315 33.0313 35.2889 33.1912C35.4464 33.351 35.5705 33.5405 35.6541 33.7488C35.7376 33.957 35.7789 34.1798 35.7756 34.4041V36.7017C35.7756 38.5006 35.5681 41.8829 34.2907 44.2933H34.2921ZM21.9699 45.7933V47.1563H33.8356V45.7933H21.9699ZM20.3024 11.4087V7.76597C20.3073 6.80587 20.6921 5.88676 21.3727 5.20958C22.0533 4.53241 22.9744 4.15227 23.9345 4.15227C24.8946 4.15227 25.8157 4.53241 26.4963 5.20958C27.1769 5.88676 27.5617 6.80587 27.5666 7.76597V11.4087H20.3024Z" fill="white"/>
</svg>
