<svg width="44" height="44" viewBox="0 0 44 44" fill="none" xmlns="http://www.w3.org/2000/svg">
<g clip-path="url(#clip0_279_1999)">
<path d="M25.4375 13.75H26.082V15.0391C26.082 15.751 26.6592 16.3281 27.3711 16.3281C28.083 16.3281 28.6602 15.751 28.6602 15.0391V13.75H29.3047C30.0166 13.75 30.5938 13.1728 30.5938 12.4609V5.58594C30.5938 4.87403 30.0166 4.29688 29.3047 4.29688H28.6602V3.00781C28.6602 2.29591 28.083 1.71875 27.3711 1.71875C26.6592 1.71875 26.082 2.29591 26.082 3.00781V4.29688H25.4375C24.7256 4.29688 24.1484 4.87403 24.1484 5.58594V12.4609C24.1484 13.1728 24.7256 13.75 25.4375 13.75ZM14.6953 17.1875H18.5625C19.2744 17.1875 19.8516 16.6103 19.8516 15.8984V9.02344C19.8516 8.31153 19.2744 7.73438 18.5625 7.73438H14.6953C13.9834 7.73438 13.4062 8.31153 13.4062 9.02344V15.8984C13.4062 16.6103 13.9834 17.1875 14.6953 17.1875ZM36.1797 9.45312H40.0469C40.7588 9.45312 41.3359 8.87597 41.3359 8.16406V1.28906C41.3359 0.577156 40.7588 0 40.0469 0H36.1797C35.4678 0 34.8906 0.577156 34.8906 1.28906V8.16406C34.8906 8.87597 35.4678 9.45312 36.1797 9.45312ZM3.95312 23.2031H4.59766V24.4922C4.59766 25.2041 5.17481 25.7812 5.88672 25.7812C6.59863 25.7812 7.17578 25.2041 7.17578 24.4922V23.2031H7.82031C8.53222 23.2031 9.10938 22.626 9.10938 21.9141V15.0391C9.10938 14.3272 8.53222 13.75 7.82031 13.75H7.17578V12.4609C7.17578 11.749 6.59863 11.1719 5.88672 11.1719C5.17481 11.1719 4.59766 11.749 4.59766 12.4609V13.75H3.95312C3.24122 13.75 2.66406 14.3272 2.66406 15.0391V21.9141C2.66406 22.626 3.24122 23.2031 3.95312 23.2031ZM42.7109 41.4219H41.3359V30.6797C41.3359 29.9678 40.7588 29.3906 40.0469 29.3906H36.1797C35.4678 29.3906 34.8906 29.9678 34.8906 30.6797V41.4219H30.5938V28.1016C30.5938 27.3897 30.0166 26.8125 29.3047 26.8125H25.4375C24.7256 26.8125 24.1484 27.3897 24.1484 28.1016V41.4219H19.8516V34.9766C19.8516 34.2647 19.2744 33.6875 18.5625 33.6875H14.6953C13.9834 33.6875 13.4062 34.2647 13.4062 34.9766V41.4219H9.10938V36.6953C9.10938 35.9834 8.53222 35.4062 7.82031 35.4062H3.95312C3.24122 35.4062 2.66406 35.9834 2.66406 36.6953V41.4219H1.28906C0.577156 41.4219 0 41.999 0 42.7109C0 43.4228 0.577156 44 1.28906 44H42.7109C43.4228 44 44 43.4228 44 42.7109C44 41.999 43.4228 41.4219 42.7109 41.4219Z" fill="white"/>
<path d="M1.28906 32.2266H10.3125C10.6544 32.2266 10.9822 32.0908 11.224 31.849L19.4402 23.6328H34.0312C34.3731 23.6328 34.701 23.497 34.9427 23.2552L41.3359 16.8621V18.9062C41.3359 19.6182 41.9131 20.1953 42.625 20.1953C43.3369 20.1953 43.9141 19.6182 43.9141 18.9062V13.75C43.9141 13.0381 43.3369 12.4609 42.625 12.4609H37.4688C36.7568 12.4609 36.1797 13.0381 36.1797 13.75C36.1797 14.4619 36.7568 15.0391 37.4688 15.0391H39.5129L33.4973 21.0547H18.9062C18.5644 21.0547 18.2365 21.1905 17.9948 21.4322L9.77857 29.6484H1.28906C0.577156 29.6484 0 30.2256 0 30.9375C0 31.6494 0.577156 32.2266 1.28906 32.2266Z" fill="white"/>
</g>
<defs>
<clipPath id="clip0_279_1999">
<rect width="44" height="44" fill="white"/>
</clipPath>
</defs>
</svg>
