<svg width="42" height="40" viewBox="0 0 42 40" fill="none" xmlns="http://www.w3.org/2000/svg">
<path d="M30.293 37.5441H27.876V33.8381H13.374V37.5441H10.957C10.2896 37.5441 9.74853 38.0849 9.74853 38.7526C9.74853 39.42 10.2896 39.9611 10.957 39.9611H30.293C30.9604 39.9611 31.5014 39.42 31.5014 38.7526C31.5014 38.0849 30.9604 37.5441 30.293 37.5441ZM0 30.2126C0 30.88 0.541084 31.4211 1.2085 31.4211H40.0415C40.7089 31.4211 41.25 30.88 41.25 30.2126V26.6677H0V30.2126ZM7.25097 12.0474V16.9594H9.66796V15.3481C9.66796 14.6809 10.209 14.1396 10.8765 14.1396C11.5439 14.1396 12.085 14.6809 12.085 15.3481V16.9594H14.5019V12.033L10.8785 9.90283L7.25097 12.0474Z" fill="white"/>
<path d="M40.0415 0H1.2085C0.541084 0 0 0.540761 0 1.2085V24.2505H41.25V1.2085C41.25 0.540761 40.7089 0 40.0415 0ZM16.9189 18.1677C16.9189 18.8351 16.3779 19.3762 15.7104 19.3762H6.04248C5.37507 19.3762 4.83398 18.8351 4.83398 18.1677V11.3579C4.83398 10.9305 5.05957 10.5348 5.42759 10.3176L10.2616 7.45941C10.4474 7.34959 10.6592 7.29152 10.875 7.29126C11.0908 7.291 11.3027 7.34855 11.4888 7.45793L16.3227 10.2999C16.5043 10.4065 16.6548 10.5587 16.7594 10.7414C16.8639 10.9241 16.9189 11.131 16.9189 11.3415V18.1677ZM26.0229 19.3359H20.5444C19.877 19.3359 19.3359 18.7948 19.3359 18.1274C19.3359 17.4597 19.877 16.9189 20.5444 16.9189H26.0229C26.6903 16.9189 27.2314 17.4597 27.2314 18.1274C27.2314 18.7948 26.6903 19.3359 26.0229 19.3359ZM35.2075 14.5019H20.5444C19.877 14.5019 19.3359 13.9607 19.3359 13.2935C19.3359 12.6257 19.877 12.085 20.5444 12.085H35.2075C35.8749 12.085 36.416 12.6257 36.416 13.2935C36.416 13.9607 35.8749 14.5019 35.2075 14.5019ZM35.2075 9.66796H20.5444C19.877 9.66796 19.3359 9.12669 19.3359 8.45947C19.3359 7.79173 19.877 7.25097 20.5444 7.25097H35.2075C35.8749 7.25097 36.416 7.79173 36.416 8.45947C36.416 9.12669 35.8749 9.66796 35.2075 9.66796Z" fill="white"/>
</svg>
