<svg width="54" height="54" viewBox="0 0 54 54" fill="none" xmlns="http://www.w3.org/2000/svg">
<path fill-rule="evenodd" clip-rule="evenodd" d="M32.8787 5.03371C34.6613 5.45835 36.3647 6.16458 37.9249 7.12579L41.2039 5.66947L45.0687 9.53416L43.6127 12.8122C44.5742 14.3727 45.2805 16.0767 45.7051 17.8598L49.0505 19.1474V24.6129L45.7043 25.9009C45.2797 27.6835 44.5735 29.3869 43.6124 30.9471L45.0687 34.2261L43.6139 35.6808C42.7926 35.3264 41.6721 35.2864 40.2321 35.8098C40.9154 33.3325 40.5712 30.6866 39.2984 28.2797C40.4422 26.4175 41.1022 24.2262 41.1022 21.8803C41.1022 15.1174 35.6209 9.63605 28.858 9.63605C22.0953 9.63605 16.6139 15.1174 16.6139 21.8803C16.6139 24.2262 17.2739 26.4175 18.4177 28.2797C17.2705 30.449 16.8775 32.8124 17.3114 35.0715L17.334 35.0631C16.4334 35.3983 15.6233 35.8957 14.7959 36.3747L12.6474 34.2262L14.1034 30.9481C13.1419 29.3876 12.4356 27.6837 12.011 25.9006L8.66551 24.6129V19.1474L12.0114 17.8596C12.436 16.0768 13.1423 14.3732 14.1036 12.813L12.6474 9.53427L16.5121 5.66947L19.7911 7.12579C21.3512 6.16464 23.0547 5.45841 24.8372 5.03371L26.1253 1.6875H31.5907L32.8787 5.03371ZM9.08211 38.662L15.2152 49.4988C15.5118 50.0228 15.3256 50.6941 14.8017 50.9907L12.7155 52.1713C12.1915 52.4679 11.5202 52.2818 11.2236 51.7577L5.09064 40.921C4.79406 40.3971 4.98022 39.7258 5.50419 39.4292L7.59036 38.2486C8.11422 37.952 8.78563 38.138 9.08211 38.662ZM7.67579 40.2864C7.57839 40.2999 7.48463 40.3325 7.39989 40.3823C7.31515 40.4322 7.24113 40.4983 7.18208 40.5769C7.12303 40.6555 7.08013 40.745 7.05585 40.8403C7.03157 40.9356 7.02639 41.0347 7.04061 41.132C7.05483 41.2293 7.08817 41.3228 7.13871 41.4071C7.18924 41.4914 7.25598 41.5649 7.33506 41.6234C7.41414 41.6818 7.504 41.7239 7.59946 41.7475C7.69492 41.771 7.7941 41.7754 7.89126 41.7604C8.08546 41.7304 8.25994 41.6249 8.37669 41.4668C8.49344 41.3087 8.54301 41.111 8.51458 40.9165C8.48616 40.7221 8.38205 40.5468 8.22494 40.4287C8.06783 40.3107 7.87044 40.2596 7.67579 40.2864ZM22.5306 40.0144C24.1303 40.4429 25.7166 40.9587 27.3387 41.2952C28.0737 41.3848 28.6735 41.179 28.8787 40.4126C29.0608 39.7326 28.6265 39.0973 27.9911 38.8716C25.7473 38.4591 23.5786 37.6751 21.8725 37.0583C21.2805 36.8444 20.7455 36.6508 20.3051 36.5081C19.6902 36.3086 19.0752 36.3175 18.4515 36.4752C17.5767 36.6964 16.8009 37.1589 16.0276 37.6066L11.8068 40.0504L15.3082 46.2373L15.906 45.8921C16.0985 45.7812 16.327 45.7513 16.5415 45.8089L26.329 48.4288C27.5092 48.7451 28.6322 48.6056 29.6765 47.9628L43.1694 39.6544C43.5532 39.4181 43.7409 38.8605 43.6841 38.3123C43.6606 38.0858 43.5933 37.8676 43.4785 37.6818L43.477 37.6827C43.3662 37.502 43.2073 37.3556 43.0182 37.2598C42.8019 37.1503 42.533 37.0875 42.206 37.0885C41.688 37.0902 41.0246 37.2521 40.195 37.6427C39.9234 37.7707 39.634 37.9231 39.326 38.1024L31.8909 42.4329C31.2825 42.7872 30.6563 43.0124 30.0056 43.1216C29.3652 43.2292 28.7065 43.2218 28.0226 43.1125C27.7139 43.0625 27.4052 43.0126 27.0965 42.9624C27.075 42.9588 27.0536 42.9545 27.0324 42.9494C25.3598 42.6054 23.7416 42.0837 22.0953 41.6425C21.8794 41.5848 21.6952 41.4437 21.5834 41.2503C21.4715 41.0568 21.4411 40.8269 21.4987 40.611C21.6149 40.1777 22.0943 39.8928 22.5306 40.0144ZM25.5575 21.5885H32.1585C32.9723 21.5885 33.6381 20.9227 33.6381 20.109C33.6381 19.2952 32.9724 18.6294 32.1585 18.6294H25.5575C24.7437 18.6294 24.0779 19.2951 24.0779 20.1089C24.0779 20.9227 24.7437 21.5885 25.5575 21.5885ZM29.2267 37.6202C30.4715 38.4325 30.9388 39.9359 30.3504 41.3002C30.5924 41.2144 30.8258 41.106 31.0473 40.9762L32.2917 40.2515L37.9829 36.9367C39.2049 34.5834 39.2966 31.6744 37.651 28.7847C36.6826 27.0846 35.2429 25.2004 33.3322 23.05C32.959 23.1996 32.5606 23.2763 32.1585 23.2759H25.5575C25.1431 23.2759 24.747 23.1956 24.3837 23.05C22.4729 25.2004 21.0332 27.0846 20.0649 28.7847C18.9123 30.8085 18.6127 32.8417 18.9562 34.6869C19.5609 34.6386 20.1803 34.699 20.8194 34.9064C21.304 35.0635 21.8463 35.2596 22.4461 35.4764C24.0311 36.0495 26.0284 36.7713 28.038 37.1694C28.0034 37.0758 27.9858 36.9767 27.9859 36.8769V36.4955C26.7562 36.2332 25.7563 35.4179 25.4439 34.1653C25.4175 34.058 25.4125 33.9465 25.4292 33.8372C25.4458 33.728 25.4839 33.623 25.5411 33.5285C25.5984 33.4339 25.6737 33.3515 25.7627 33.2861C25.8518 33.2206 25.9529 33.1733 26.0603 33.1469C26.1676 33.1205 26.2791 33.1155 26.3884 33.1322C26.4976 33.1489 26.6026 33.1869 26.6971 33.2442C26.7917 33.3014 26.8741 33.3767 26.9395 33.4658C27.005 33.5548 27.0523 33.6559 27.0787 33.7633C27.2703 34.5318 28.0373 34.8803 28.7722 34.9035C28.9172 34.8939 29.0407 34.8998 29.194 34.8813C29.7285 34.8164 30.5727 34.5583 30.5568 33.8886C30.5357 32.9758 29.4227 32.7297 28.7097 32.6125C27.2282 32.3693 25.7701 31.6637 25.6877 29.9673C25.6176 28.5219 26.6443 27.4641 27.9857 27.1391V26.7448C27.9857 26.521 28.0746 26.3064 28.2328 26.1481C28.3911 25.9899 28.6057 25.901 28.8294 25.901C29.0532 25.901 29.2678 25.9899 29.4261 26.1481C29.5843 26.3064 29.6732 26.521 29.6732 26.7448V27.1272L29.7391 27.1432C30.6711 27.3795 31.519 27.9923 31.9643 29.0526C32.0462 29.258 32.0441 29.4874 31.9586 29.6913C31.8731 29.8952 31.7109 30.0574 31.507 30.143C31.3031 30.2285 31.0737 30.2306 30.8683 30.1487C30.6629 30.0669 30.4978 29.9076 30.4086 29.7053C30.1922 29.1898 29.7814 28.8923 29.3304 28.778C28.5467 28.5794 27.3212 28.9118 27.3686 29.8884C27.4049 30.6361 28.378 30.8541 28.9718 30.9516C30.6065 31.22 32.1926 31.9666 32.2377 33.8493C32.2738 35.3691 31.0394 36.2575 29.6732 36.5124V36.8772C29.6734 37.0299 29.632 37.1798 29.5533 37.3108C29.4746 37.4417 29.3617 37.5487 29.2267 37.6202ZM25.0623 16.9808C25.2261 16.9549 25.3917 16.9419 25.5575 16.9419H32.1585C32.3269 16.9419 32.4923 16.9553 32.6536 16.9808L33.4276 16.207C34.0189 15.6156 34.0189 14.648 33.4276 14.0567V14.0566C32.9145 13.5436 32.1179 13.4755 31.53 13.8529C31.0692 14.1486 30.4606 13.8965 30.3439 13.3616C30.192 12.6661 29.5706 12.1638 28.858 12.1638C28.1324 12.1639 27.5213 12.679 27.3723 13.3616C27.2555 13.8966 26.6469 14.1485 26.1861 13.8529C25.5875 13.4688 24.7915 13.5537 24.2885 14.0567C23.6971 14.6479 23.6971 15.6156 24.2885 16.207L25.0623 16.9808Z" fill="url(#paint0_linear_279_2006)"/>
<defs>
<linearGradient id="paint0_linear_279_2006" x1="15.8807" y1="52.3125" x2="52.0921" y2="38.6082" gradientUnits="userSpaceOnUse">
<stop stop-color="#1C2A44"/>
<stop offset="0.5" stop-color="#377899"/>
<stop offset="1" stop-color="#4669AA"/>
</linearGradient>
</defs>
</svg>
