<svg width="537" height="428" viewBox="0 0 537 428" fill="none" xmlns="http://www.w3.org/2000/svg">
<path d="M204.349 378.214H32.0152V405.065H204.349V378.214Z" fill="#FFCC00"/>
<path opacity="0.5" d="M91.0726 378.214H32.0152V405.065H91.0726V378.214Z" fill="#FFCC00"/>
<path opacity="0.5" d="M204.349 378.214H147.769V405.065H204.349V378.214Z" fill="#FFCC00"/>
<path d="M198.07 351.443H25.7361V378.294H198.07V351.443Z" fill="#FFCC00"/>
<path opacity="0.5" d="M71.4693 351.443H25.7361V378.294H71.4693V351.443Z" fill="#FFCC00"/>
<path opacity="0.5" d="M198.07 351.443H125.47V378.294H198.07V351.443Z" fill="#FFCC00"/>
<path d="M216.857 324.486H44.5232V351.337H216.857V324.486Z" fill="#FFCC00"/>
<path opacity="0.5" d="M111.902 324.486H44.5232V351.337H111.902V324.486Z" fill="#FFCC00"/>
<path opacity="0.5" d="M216.857 324.486H167.854V351.337H216.857V324.486Z" fill="#FFCC00"/>
<path d="M206.156 297.842H33.8224V324.692H206.156V297.842Z" fill="#FFCC00"/>
<path opacity="0.5" d="M85.1779 297.842H33.8224V324.692H85.1779V297.842Z" fill="#FFCC00"/>
<path opacity="0.5" d="M206.156 297.842H136.248V324.692H206.156V297.842Z" fill="#FFCC00"/>
<path opacity="0.5" d="M197.424 378.214H32.0152V382.22H197.424V378.214Z" fill="#FFCC00"/>
<path opacity="0.5" d="M206.155 324.692H44.5232V328.849H206.155V324.692Z" fill="#FFCC00"/>
<path d="M453.553 382.222H238.807C226.323 382.222 216.203 372.102 216.203 359.618V23.0579C216.203 10.5738 226.323 0.453125 238.807 0.453125H453.553C466.037 0.453125 476.157 10.5738 476.157 23.0579V359.618C476.157 372.102 466.037 382.222 453.553 382.222Z" fill="#F0F1F3"/>
<path d="M451.04 330.734L451.04 25.5693L241.318 25.5693L241.318 330.734L451.04 330.734Z" fill="white"/>
<path opacity="0.5" d="M264.552 100.29H253.249V168.104H264.552V100.29Z" fill="#F3A100"/>
<path opacity="0.5" d="M282.133 87.7324H270.831V168.105H282.133V87.7324Z" fill="#1E2346"/>
<path opacity="0.5" d="M299.715 63.8721H288.412V168.105H299.715V63.8721Z" fill="#F3A100"/>
<path opacity="0.5" d="M317.296 91.5H305.994V168.105H317.296V91.5Z" fill="#1E2346"/>
<path opacity="0.5" d="M334.878 120.384H323.575V168.105H334.878V120.384Z" fill="#F3A100"/>
<path opacity="0.5" d="M352.459 85.8486H341.157V168.105H352.459V85.8486Z" fill="#F3A100"/>
<path opacity="0.5" d="M370.041 136.709H358.738V168.104H370.041V136.709Z" fill="#1E2346"/>
<path opacity="0.5" d="M387.622 146.128H376.32V168.105H387.622V146.128Z" fill="#F3A100"/>
<path opacity="0.5" d="M405.203 122.896H393.901V168.105H405.203V122.896Z" fill="#F3A100"/>
<path opacity="0.5" d="M422.785 110.337H411.483V168.105H422.785V110.337Z" fill="#1E2346"/>
<path opacity="0.5" d="M440.366 100.29H429.064V168.104H440.366V100.29Z" fill="#F3A100"/>
<path opacity="0.5" d="M429.063 302.477H440.365V234.662H429.063V302.477Z" fill="#F3A100"/>
<path opacity="0.5" d="M411.482 302.477H422.784V222.104H411.482V302.477Z" fill="#1E2346"/>
<path opacity="0.5" d="M393.9 302.477H405.202V198.244H393.9V302.477Z" fill="#F3A100"/>
<path opacity="0.5" d="M376.319 302.477H387.621V225.872H376.319V302.477Z" fill="#1E2346"/>
<path opacity="0.5" d="M358.737 302.477H370.039V254.755H358.737V302.477Z" fill="#F3A100"/>
<path opacity="0.5" d="M341.156 302.477H352.458V220.22H341.156V302.477Z" fill="#F3A100"/>
<path opacity="0.5" d="M323.574 302.477H334.877V271.081H323.574V302.477Z" fill="#1E2346"/>
<path opacity="0.5" d="M305.993 302.477H317.295V280.5H305.993V302.477Z" fill="#F3A100"/>
<path opacity="0.5" d="M288.411 302.477H299.714V257.267H288.411V302.477Z" fill="#F3A100"/>
<path opacity="0.5" d="M270.83 302.477H282.132V244.709H270.83V302.477Z" fill="#1E2346"/>
<path opacity="0.5" d="M253.248 302.477H264.551V234.662H253.248V302.477Z" fill="#F3A100"/>
<path d="M346.18 366.525C353.462 366.525 359.366 360.621 359.366 353.338C359.366 346.056 353.462 340.152 346.18 340.152C338.897 340.152 332.994 346.056 332.994 353.338C332.994 360.621 338.897 366.525 346.18 366.525Z" fill="white"/>
<path d="M516.7 154.114H263.842V284.622H516.7V154.114Z" fill="#6CACAC"/>
<path d="M481.886 270.347H298.656V268.307C298.656 255.939 289.614 245.876 278.5 245.876H276.668V192.858H278.5C289.614 192.858 298.656 182.795 298.656 170.426V168.387H481.886V170.426C481.886 182.795 490.928 192.858 502.042 192.858H503.875V245.876H502.042C490.93 245.876 481.886 255.939 481.886 268.307V270.347ZM302.251 266.269H478.292C479.186 253.274 488.535 242.869 500.211 241.876V196.859C488.535 195.865 479.186 185.461 478.292 172.466H302.251C301.358 185.461 292.01 195.865 280.334 196.859V241.876C292.01 242.869 301.358 253.274 302.251 266.269Z" fill="#5A9997"/>
<path d="M414.818 196.881H408.353C407.625 195.048 406.651 193.34 405.463 191.8H412.126L417.757 183.542L414.818 181.303H369.425L363.794 189.561L366.733 191.8H388.726V191.801C390.984 191.801 393.104 192.385 394.946 193.408C395.941 194.419 396.774 195.589 397.396 196.882H368.418L362.787 205.141L365.726 207.38H397.687C395.752 212.049 391.156 215.338 385.786 215.338H364.311L364.296 224.794L381.584 255.194L384.523 257.433H396.383L378.816 225.833H388.473C388.556 225.837 388.642 225.837 388.725 225.837C388.789 225.837 388.853 225.837 388.913 225.833C399.594 225.742 408.364 217.724 409.682 207.381H412.126L417.757 199.123L414.818 196.881Z" fill="#5A9997"/>
<path d="M402.525 189.561H409.187L414.818 181.303H369.425L363.794 189.561H385.787C390.907 189.561 395.316 192.556 397.396 196.881H368.418L362.787 205.139H398.388C397.15 210.965 391.981 215.337 385.786 215.337H364.311L364.296 224.793L381.584 255.193H393.444L375.878 223.592H385.535C385.618 223.596 385.704 223.596 385.786 223.596C385.85 223.596 385.914 223.596 385.973 223.592C396.654 223.502 405.425 215.484 406.742 205.141H409.186L414.817 196.882H406.167C405.433 194.187 404.184 191.712 402.525 189.561Z" fill="#A2C2C0"/>
<path d="M511.357 147.395H258.499V277.902H511.357V147.395Z" fill="#7BC3C3"/>
<path d="M476.544 263.629H293.312V261.59C293.312 249.221 284.27 239.158 273.158 239.158H271.326V186.14H273.158C284.272 186.14 293.312 176.077 293.312 163.708V161.669H476.543V163.708C476.543 176.077 485.585 186.14 496.697 186.14H498.53V239.158H496.697C485.585 239.158 476.543 249.221 476.543 261.59V263.629H476.544ZM296.908 259.55H472.949C473.842 246.555 483.191 236.15 494.866 235.157V190.14C483.19 189.146 473.842 178.742 472.949 165.748H296.908C296.015 178.743 286.667 189.148 274.99 190.14V235.157C286.667 236.152 296.015 246.556 296.908 259.55Z" fill="#68B0AE"/>
<path d="M409.475 190.163H403.01C402.28 188.33 401.308 186.622 400.12 185.082H406.782L412.413 176.824L409.475 174.585H364.082L358.451 182.843L361.389 185.082H383.382C385.64 185.082 387.76 185.668 389.602 186.69C390.597 187.701 391.431 188.871 392.053 190.163H363.074L357.443 198.422L360.382 200.661H392.344C390.409 205.331 385.812 208.619 380.442 208.619H358.968L358.953 218.075L376.24 248.475L379.179 250.714H391.039L373.473 219.114H383.13C383.213 219.118 383.299 219.118 383.381 219.118C383.445 219.118 383.509 219.118 383.568 219.114C394.249 219.023 403.02 211.005 404.337 200.662H406.781L412.412 192.404L409.475 190.163Z" fill="#68B0AE"/>
<path d="M397.181 182.843H403.843L409.475 174.585H364.082L358.451 182.843H380.444V182.845C385.564 182.845 389.973 185.838 392.053 190.163H363.074L357.443 198.422H393.045C391.806 204.247 386.637 208.619 380.442 208.619H358.968L358.953 218.075L376.24 248.475H388.1L370.534 216.875H380.191C380.274 216.878 380.36 216.878 380.442 216.878C380.507 216.878 380.571 216.878 380.63 216.875C391.31 216.784 400.081 208.767 401.398 198.423H403.842L409.473 190.165H400.823C400.09 187.47 398.84 184.994 397.181 182.843Z" fill="#B5D9D7"/>
<path d="M502.521 140.145H249.663V270.652H502.521V140.145Z" fill="#86D4D4"/>
<path d="M467.707 256.377H284.476V254.338C284.476 241.969 275.435 231.906 264.322 231.906H262.49V178.888H264.322C275.436 178.888 284.476 168.825 284.476 156.456V154.417H467.707V156.456C467.707 168.825 476.749 178.888 487.862 178.888H489.694V231.906H487.862C476.749 231.906 467.707 241.969 467.707 254.338V256.377ZM288.072 252.299H464.113C465.006 239.304 474.355 228.9 486.031 227.908V182.89C474.354 181.897 465.006 171.492 464.113 158.497H288.072C287.179 171.492 277.831 181.897 266.154 182.89V227.908C277.831 228.9 287.179 239.304 288.072 252.299Z" fill="#72C1BF"/>
<path d="M400.637 182.913H394.172C393.443 181.08 392.471 179.372 391.283 177.832H397.945L403.576 169.574L400.637 167.335H355.244L349.613 175.593L352.552 177.832H374.545V177.834C376.803 177.834 378.923 178.418 380.765 179.44C381.76 180.451 382.594 181.621 383.215 182.913H354.237L348.606 191.172L351.545 193.411H383.507C381.571 198.081 376.975 201.369 371.605 201.369H350.131L350.116 210.825L367.403 241.225L370.342 243.464H382.202L364.635 211.864H374.293C374.376 211.868 374.461 211.868 374.544 211.868C374.608 211.868 374.672 211.868 374.732 211.864C385.413 211.773 394.184 203.756 395.501 193.412H397.945L403.576 185.154L400.637 182.913Z" fill="#72C1BF"/>
<path d="M388.345 175.593H395.007L400.639 167.335H355.246L349.615 175.593H371.608C376.728 175.593 381.137 178.588 383.217 182.913H354.239L348.607 191.172H384.209C382.97 196.997 377.801 201.369 371.607 201.369H350.132L350.117 210.825L367.405 241.225H379.265L361.698 209.625H371.355C371.438 209.628 371.524 209.628 371.607 209.628C371.671 209.628 371.735 209.628 371.794 209.625C382.474 209.534 391.245 201.517 392.562 191.173H395.006L400.637 182.915H391.987C391.253 180.22 390.004 177.744 388.345 175.593Z" fill="#C3EAE8"/>
<g opacity="0.5">
<path d="M84.4005 161.386L77.8527 155.52L173.161 49.1444L233.314 109.855L347.986 6.54199L391.978 69.3996L430.199 35.9407L435.989 42.5551L390.395 82.4689L346.485 19.7268L232.97 121.997L173.482 61.9588L84.4005 161.386Z" fill="#1E2346"/>
<path d="M441.744 57.8916L454.454 20.5498L415.759 28.209L441.744 57.8916Z" fill="#1E2346"/>
</g>
<path d="M434.715 414.841C477.202 414.841 511.644 380.399 511.644 337.912C511.644 295.426 477.202 260.983 434.715 260.983C392.229 260.983 357.786 295.426 357.786 337.912C357.786 380.399 392.229 414.841 434.715 414.841Z" fill="#FFCC00"/>
<path d="M434.715 396.951C467.321 396.951 493.754 370.519 493.754 337.913C493.754 305.307 467.321 278.874 434.715 278.874C402.109 278.874 375.677 305.307 375.677 337.913C375.677 370.519 402.109 396.951 434.715 396.951Z" fill="#D68900"/>
<path d="M434.715 394.715C466.086 394.715 491.517 369.284 491.517 337.913C491.517 306.542 466.086 281.111 434.715 281.111C403.344 281.111 377.913 306.542 377.913 337.913C377.913 369.284 403.344 394.715 434.715 394.715Z" fill="#F3A100"/>
<path d="M462.43 315.15H455.543C454.766 313.197 453.73 311.377 452.465 309.737H459.563L465.562 300.939L462.431 298.553H414.072L408.073 307.351L411.204 309.737H434.634V309.738C437.04 309.738 439.296 310.36 441.261 311.449C442.32 312.525 443.208 313.772 443.87 315.15H412.998L406.999 323.948L410.13 326.333H444.18C442.118 331.307 437.223 334.811 431.502 334.811H408.623L408.608 344.885L427.025 377.27L430.155 379.655H442.79L424.076 345.989H434.364C434.452 345.993 434.543 345.993 434.631 345.993C434.699 345.993 434.767 345.993 434.831 345.989C446.21 345.893 455.553 337.351 456.956 326.331H459.559L465.558 317.533L462.43 315.15Z" fill="#D68900"/>
<path d="M449.334 307.351H456.432L462.431 298.553H414.072L408.073 307.351H431.503C436.957 307.351 441.655 310.541 443.87 315.15H412.998L406.999 323.948H444.928C443.609 330.154 438.101 334.811 431.503 334.811H408.624L408.609 344.885L427.027 377.27H439.662L420.948 343.604H431.235C431.323 343.608 431.415 343.608 431.503 343.608C431.571 343.608 431.639 343.608 431.703 343.604C443.08 343.509 452.425 334.966 453.828 323.947H456.431L462.43 315.148H453.215C452.432 312.28 451.101 309.643 449.334 307.351Z" fill="#FFCC00"/>
<path d="M336.343 338.896H221.226V407.129H336.343V338.896Z" fill="#F9A91C"/>
<path d="M306.935 225.088C306.935 225.088 301.912 222.89 295.633 223.989L302.54 206.407L310.546 210.489L306.935 225.088Z" fill="#141930"/>
<path d="M302.461 215.669C305.973 215.669 308.819 212.822 308.819 209.31C308.819 205.799 305.973 202.952 302.461 202.952C298.95 202.952 296.103 205.799 296.103 209.31C296.103 212.822 298.95 215.669 302.461 215.669Z" fill="#E6976D"/>
<path d="M280.092 202.797C280.092 202.797 278.052 213.314 276.011 215.669C273.97 218.024 271.145 220.222 272.714 222.733C274.284 225.245 277.895 225.849 280.877 225.402C284.017 224.931 287.313 224.146 289.354 225.088C291.395 226.03 289.982 212.844 289.982 212.844L285.901 199.187C285.901 199.187 279.464 202.64 280.092 202.797Z" fill="#141930"/>
<path d="M227.295 286.779C227.295 286.779 221.016 289.709 212.644 292.012C212.644 292.012 221.434 298.501 230.853 291.175L227.295 286.779Z" fill="#E6976D"/>
<path d="M274.388 234.244C274.388 234.244 263.924 269.407 227.295 286.779L230.435 293.268C230.435 293.268 255.551 289.5 282.133 255.383L274.388 234.244Z" fill="#E59303"/>
<path d="M216.046 384.576C216.046 384.576 208.982 395.094 201.761 397.919C201.761 397.919 209.609 398.547 214.005 394.466C218.4 390.384 216.046 384.576 216.046 384.576Z" fill="#E6976D"/>
<path d="M237.089 336.626C237.089 336.626 259.595 386.375 260.779 395.852C261.963 405.328 253.277 419.147 253.277 419.147H257.225L270.254 402.958L255.645 341.759L268.674 340.179L261.962 323.2L237.482 322.806L237.089 336.626Z" fill="#E37463"/>
<path d="M238.493 303.46C238.493 303.46 227.833 301.092 225.464 310.567C223.094 320.043 211.821 394.667 211.821 394.667L222.087 391.903L239.46 325.965L268.284 327.149C268.281 327.15 253.891 308.593 238.493 303.46Z" fill="#E6976D"/>
<path d="M222.086 391.904C222.086 391.904 223.666 396.643 220.902 400.196C218.138 403.75 213.587 409.222 213.587 409.222L212.402 407.248L214.981 399.802L198.912 401.776L189.832 396.644C189.832 396.644 200.924 398.129 211.822 394.67L222.086 391.904Z" fill="#42528E"/>
<path d="M257.226 419.148L270.256 402.959C273.414 406.775 272.624 410.198 272.624 410.198L272.098 423.622H269.729L268.676 412.04L258.411 422.306H247.618L253.277 419.148H257.226Z" fill="#42528E"/>
<path d="M301.626 230.298L313.009 235.267C315.808 236.489 317.286 239.576 316.484 242.524C314.266 250.675 311.316 271.983 314.302 292.493H277.662C277.662 292.493 272.395 260.074 272.892 236.871C272.954 233.948 275.078 231.477 277.956 230.961L288.092 229.142L301.626 230.298Z" fill="#F9A91C"/>
<path d="M307.136 237.804C306.811 242.193 300.499 245.302 293.04 244.75C285.58 244.196 279.797 240.19 280.123 235.801C280.448 231.411 286.76 228.302 294.219 228.855C301.679 229.407 307.462 233.415 307.136 237.804Z" fill="#E37463"/>
<path d="M300.228 215.464C300.228 215.464 300.42 225.097 301.962 230.877C301.962 230.877 295.027 232.611 286.742 230.877C286.742 230.877 290.017 227.601 290.595 217.39L300.228 215.464Z" fill="#E37463"/>
<path d="M276.031 242.098L268.132 257.318C268.132 257.318 270.636 265.603 281.426 264.64L292.6 257.318L276.031 242.098Z" fill="#F9A91C"/>
<path d="M314.302 292.494C314.302 292.494 319.864 307.501 320.177 317.186C320.476 326.445 317.787 338.096 296.778 339.688C277.021 341.186 273.879 341.68 258.745 341.68C258.745 341.68 254.563 311.412 244.209 303.048C244.209 303.048 259.84 298.07 277.662 292.494H314.302Z" fill="#42528E"/>
<path d="M316.293 238.773C315.701 238.352 315.162 238.056 314.788 237.871C309.668 235.337 304.313 243.493 304.313 243.493C304.313 243.493 296.141 260.315 275.311 275.292C275.981 280.958 276.643 285.7 277.092 288.764C287.357 284.398 299.036 277.662 308.547 267.423C310.501 265.32 312.147 263.363 313.544 261.533C314.213 253.228 315.43 246.393 316.482 242.524C316.831 241.242 316.727 239.942 316.293 238.773Z" fill="#D68505"/>
<path d="M305.156 241.57C305.156 241.57 289.249 271.5 248.12 285.419L251.05 292.326C251.05 292.326 285.376 288.769 308.504 265.64C329.225 244.919 318.464 237.765 315.829 236.338C310.807 233.616 305.156 241.57 305.156 241.57Z" fill="#F3A100"/>
<path d="M248.12 285.418L232.737 291.173L235.666 298.29C235.666 298.29 243.411 299.546 251.05 292.325L248.12 285.418Z" fill="#E6976D"/>
<path opacity="0.4" d="M300.818 224.209C300.7 223.145 300.604 222.099 300.527 221.12L290.688 217.371L290.595 217.39C290.199 224.37 288.545 228.105 287.537 229.772C294.446 229.298 298.647 226.351 300.818 224.209Z" fill="#E37463"/>
<path d="M292.437 226.061H291.45C286.083 226.061 281.732 221.711 281.732 216.344V198.703H302.155V216.344C302.155 221.711 297.804 226.061 292.437 226.061Z" fill="#E6976D"/>
<path d="M297.046 199.186C297.046 199.186 297.203 205.623 301.441 209.547C301.441 209.547 303.168 204.995 305.366 207.977C307.563 210.96 305.523 214.099 301.912 214.57C301.912 214.57 300.813 222.89 304.267 226.501C307.72 230.111 307.72 223.518 312.273 224.146C316.825 224.774 319.808 223.518 317.296 219.437C314.784 215.355 310.546 204.995 310.075 199.971C309.604 194.948 308.034 186.942 302.383 188.826C302.383 188.826 301.598 183.646 295.947 183.332C290.296 183.018 286.371 188.355 281.976 187.57C277.581 186.785 273.185 188.512 272.557 193.849C271.785 200.413 274.127 205.152 282.29 204.053C282.29 204.053 294.377 202.169 297.046 199.186Z" fill="#1E2346"/>
<path d="M345.764 299.862H167.74V306.632H345.764V299.862Z" fill="#1A427D"/>
<path d="M347.806 302.55H165.7V303.944H347.806V302.55Z" fill="#A9BFF8"/>
<path d="M149.665 296.655C201.163 296.655 242.91 254.908 242.91 203.411C242.91 151.913 201.163 110.166 149.665 110.166C98.1679 110.166 56.4208 151.913 56.4208 203.411C56.4208 254.908 98.1679 296.655 149.665 296.655Z" fill="#FFCC00"/>
<path d="M219.526 218.958C228.122 180.381 203.817 142.14 165.24 133.544C126.663 124.948 88.4216 149.252 79.8256 187.83C71.2296 226.407 95.5342 264.648 134.111 273.244C172.688 281.84 210.93 257.536 219.526 218.958Z" fill="#D68900"/>
<path d="M216.771 218.871C225.307 181.816 202.189 144.857 165.134 136.321C128.079 127.784 91.1206 150.903 82.5841 187.957C74.0477 225.012 97.1662 261.971 134.221 270.507C171.276 279.044 208.234 255.925 216.771 218.871Z" fill="#F3A100"/>
<path d="M183.259 175.82H174.911C173.969 173.453 172.713 171.248 171.18 169.258H179.783L187.054 158.594L183.259 155.703H124.643L117.372 166.368L121.167 169.258H149.566C152.482 169.258 155.219 170.013 157.598 171.333C158.883 172.638 159.959 174.15 160.762 175.819H123.343L116.072 186.483L119.867 189.374H161.14C158.641 195.405 152.707 199.651 145.772 199.651H118.043L118.024 211.862L140.347 251.117L144.142 254.007H159.457L136.774 213.202H149.245C149.351 213.207 149.463 213.207 149.57 213.207C149.653 213.207 149.735 213.207 149.812 213.202C163.604 213.087 174.93 202.732 176.63 189.375H179.786L187.057 178.711L183.259 175.82Z" fill="#D68900"/>
<path d="M167.385 166.368H175.987L183.259 155.703H124.643L117.372 166.368H145.771C152.383 166.368 158.077 170.234 160.761 175.82H123.342L116.071 186.485H162.043C160.444 194.007 153.77 199.652 145.77 199.652H118.04L118.021 211.862L140.345 251.117H155.66L132.977 210.311H145.447C145.554 210.316 145.666 210.316 145.771 210.316C145.854 210.316 145.936 210.316 146.014 210.311C159.805 210.196 171.131 199.841 172.832 186.485H175.987L183.259 175.82H172.089C171.141 172.341 169.529 169.145 167.385 166.368Z" fill="#FFCC00"/>
<path d="M342.976 306.633H171.723V309.819H342.976V306.633Z" fill="#102F54"/>
<path d="M160.97 428H155.295L176.203 309.818H184.866L160.97 428Z" fill="#E6976D"/>
<path d="M350.158 428H355.833L334.924 309.818H326.263L350.158 428Z" fill="#E6976D"/>
<path d="M239.981 296.741H181.9L171.723 258.926H229.804L239.981 296.741Z" fill="#F0F1F5"/>
<path d="M240.113 296.741H238.387L228.208 258.926L229.935 260.723L240.113 296.741Z" fill="#CBCED8"/>
<path d="M264.47 296.741H181.9V299.863H264.47V296.741Z" fill="#CBCED8"/>
<path d="M206.904 278.291C207.516 281.588 205.708 284.686 202.866 285.213C200.024 285.739 197.226 283.495 196.614 280.199C196.003 276.902 197.811 273.804 200.653 273.277C203.495 272.751 206.294 274.995 206.904 278.291Z" fill="#CBCED8"/>
<path d="M50.9417 416.385H17.5909L13.4254 374.873H55.106L50.9417 416.385Z" fill="#F0F1F3"/>
<path d="M55.106 374.873C55.106 372.572 45.7753 370.707 34.2657 370.707C22.7561 370.707 13.4254 372.572 13.4254 374.873C13.4254 377.173 22.7561 379.038 34.2657 379.038C45.7753 379.038 55.106 377.173 55.106 374.873Z" fill="#F0F1F3"/>
<path d="M52.578 374.873C52.578 372.853 44.3801 371.214 34.2657 371.214C24.1526 371.214 15.9533 372.853 15.9533 374.873C15.9533 376.894 24.1513 378.533 34.2657 378.533C44.3788 378.533 52.578 376.895 52.578 374.873Z" fill="#1E2346"/>
<path d="M50.9417 416.247C50.9417 413.946 43.4759 412.081 34.2669 412.081C25.058 412.081 17.5922 413.946 17.5922 416.247C17.5922 418.547 25.058 420.412 34.2669 420.412C43.4759 420.412 50.9417 418.547 50.9417 416.247Z" fill="#F0F1F3"/>
<path d="M54.252 360.512C54.3738 358.563 53.5324 357.135 52.8041 355.864C52.0795 354.596 51.5081 353.501 52.3432 352.29C52.7764 351.697 53.6003 351.12 54.6137 350.512C55.6246 349.902 56.839 349.274 58.1815 348.654C60.8011 347.355 63.7272 345.993 65.9035 344.051C67.0187 343.099 67.7659 342.119 68.3549 341.213C68.9476 340.308 69.3093 339.404 69.5379 338.505C69.9724 336.685 69.9837 335.021 70.1143 333.431C70.1934 332.655 70.7083 331.884 71.5585 331.22C72.4074 330.554 73.5339 329.926 74.7395 329.307C75.9626 328.712 77.3076 328.188 78.527 327.596C79.7401 326.988 80.9432 326.487 81.8311 325.797C82.3271 325.428 82.7277 324.974 83.0543 324.466C83.3946 323.983 83.6608 323.441 83.8693 322.87C84.2862 321.728 84.4784 320.469 84.5638 319.342C84.7245 317.205 83.7475 315.203 81.8386 314.21C80.8352 313.686 79.6146 313.208 78.3073 313.019C77.6542 312.925 76.9798 312.903 76.3055 312.982C75.6449 313.085 74.9881 313.293 74.3527 313.628C73.2124 314.258 71.9704 315.109 70.8376 316.202C69.6948 317.28 68.5395 318.427 67.4745 319.533C66.4259 320.664 65.42 321.692 64.4593 322.432C63.4986 323.17 62.6422 323.691 61.7882 323.684C60.1129 323.705 58.1903 323.509 56.1646 324.122C55.1411 324.416 54.0624 324.881 52.9334 325.615C51.8069 326.352 50.7031 327.434 49.5377 328.844C47.2483 331.713 45.9385 335.384 45.1147 338.632C44.6638 340.232 44.3712 341.766 44.0623 343.056C43.7534 344.345 43.4118 345.379 42.9823 346.08C42.1572 347.502 40.8939 347.503 39.363 347.514C37.8372 347.528 36.0087 347.523 34.2217 349.063C33.5147 349.66 33.153 350.625 33.0136 351.878C32.8868 353.139 33.0462 354.724 33.2761 356.505C33.4858 358.275 33.909 360.314 34.3046 362.491C34.6575 364.652 35.156 367.026 35.4612 369.481C35.681 371.203 37.5358 371.813 38.8004 370.679C40.6314 369.044 42.4348 367.737 44.2683 366.724C46.0565 365.693 47.7092 364.894 49.2099 364.243C50.6905 363.584 51.881 363.01 52.7676 362.437C53.6668 361.873 54.1955 361.273 54.252 360.512Z" fill="#26377C"/>
<path d="M35.3193 375.733C35.0732 375.662 34.9451 375.382 35.0317 375.107C35.0317 375.107 35.372 374.036 35.966 372.161C36.2411 371.217 36.658 370.098 37.1478 368.818C37.63 367.536 38.1512 366.08 38.8557 364.548C41.508 358.363 45.7677 350.366 51.3335 343.292C54.0197 339.686 57.094 336.394 60.0213 333.368C63.044 330.434 65.9726 327.803 68.6437 325.746C71.2671 323.626 73.6268 322.094 75.228 320.954C76.897 319.913 77.8502 319.319 77.8502 319.319C78.095 319.167 78.4002 319.221 78.5333 319.439C78.6664 319.658 78.5773 319.958 78.3362 320.109C78.3362 320.109 77.3918 320.698 75.7391 321.727C74.1543 322.858 71.8172 324.373 69.2189 326.474C66.5729 328.511 63.6719 331.118 60.6768 334.024C57.7784 337.023 54.7305 340.283 52.0694 343.857C46.5551 350.866 42.3356 358.788 39.7096 364.914C39.0114 366.431 38.4965 367.872 38.0181 369.142C37.5333 370.409 37.1201 371.517 36.8476 372.452C36.2587 374.309 35.9221 375.368 35.9221 375.368C35.8354 375.64 35.5654 375.803 35.3193 375.733Z" fill="white"/>
<path d="M40.2057 352.9C38.8921 351.177 37.1402 350.843 35.686 350.553C34.2255 350.264 33.0211 350.039 32.603 348.631C32.3744 347.933 32.3179 346.952 32.3543 345.747C32.3932 344.54 32.5063 343.112 32.4824 341.592C32.5226 338.527 32.1885 334.965 30.7192 331.978C29.9595 330.505 29.1758 329.343 28.2905 328.498C27.4013 327.654 26.4959 327.07 25.6043 326.654C23.8461 325.804 22.0013 325.726 20.4441 325.49C19.6454 325.386 18.971 324.793 18.2489 323.986C17.5281 323.177 16.8286 322.092 16.1115 320.906C15.3731 319.741 14.5568 318.524 13.7343 317.371C13.3299 316.789 12.8853 316.26 12.4244 315.789C11.9686 315.313 11.5052 314.885 11.038 314.529C10.5231 314.139 9.96052 313.868 9.3753 313.697C8.77125 313.549 8.14711 313.496 7.53051 313.517C6.29478 313.557 5.08542 313.889 4.06821 314.29C2.13425 315.048 0.860843 316.875 0.559446 318.922C0.402469 320.001 0.308284 321.212 0.433866 322.327C0.496657 322.884 0.615958 323.418 0.813121 323.902C0.992704 324.408 1.24889 324.87 1.60931 325.26C1.93708 325.615 2.3289 325.949 2.76718 326.27C3.21425 326.58 3.68393 326.906 4.16491 327.24C5.12561 327.906 6.21943 328.521 7.18892 329.194C8.13581 329.887 9.01112 330.583 9.62647 331.283C10.2418 331.983 10.5244 332.745 10.4051 333.461C10.1313 334.924 9.72316 336.432 9.65535 338.115C9.63526 338.946 9.73195 339.797 10.0409 340.667C10.3473 341.541 10.7781 342.493 11.5579 343.465C13.0561 345.435 15.4196 346.997 17.5344 348.503C18.6307 349.233 19.6065 349.959 20.3989 350.643C21.1926 351.325 21.8192 351.957 22.0704 352.541C22.5376 353.724 21.7012 354.58 20.6714 355.551C19.6366 356.524 18.4499 357.607 18.0304 359.268C17.876 359.917 18.2062 360.513 18.8969 361.152C19.5726 361.793 20.537 362.493 21.7615 363.327C23.0085 364.157 24.356 365.149 25.7889 366.372C27.2682 367.589 28.6446 369.058 29.9795 370.819C30.9038 372.045 32.8579 371.976 33.5159 370.542C34.4553 368.483 35.5654 366.527 36.4847 364.715C37.4529 362.896 38.4086 361.196 39.093 359.68C39.8001 358.16 40.3865 356.789 40.6076 355.646C40.816 354.502 40.7294 353.572 40.2057 352.9Z" fill="#86D4D4"/>
<path d="M32.0253 375.888C31.7691 375.89 31.5544 375.688 31.5456 375.438C31.5456 375.438 31.5104 374.461 31.4489 372.751C31.4413 371.895 31.3446 370.86 31.2216 369.675C31.106 368.488 31.0018 367.147 30.7406 365.703C29.8728 359.913 27.9464 352.244 24.5569 345.172C22.9708 341.591 20.9414 338.231 18.9874 335.131C16.9203 332.102 14.8645 329.357 12.9092 327.168C11.0129 324.925 9.2196 323.257 8.02657 322.03C6.7494 320.891 6.01977 320.241 6.01977 320.241C5.83265 320.074 5.81758 319.782 5.9846 319.589C6.15163 319.395 6.44173 319.375 6.63135 319.545C6.63135 319.545 7.36978 320.204 8.66327 321.358C9.87137 322.6 11.6873 324.291 13.6074 326.56C15.5866 328.776 17.6675 331.554 19.7597 334.621C21.7389 337.758 23.7921 341.159 25.3971 344.783C28.8267 351.939 30.7783 359.702 31.6573 365.564C31.9223 367.027 32.0278 368.386 32.1446 369.588C32.2702 370.789 32.3669 371.837 32.3744 372.705C32.4372 374.438 32.4724 375.428 32.4724 375.428C32.4812 375.68 32.2815 375.887 32.0253 375.888Z" fill="white"/>
<path d="M43.9393 349.845C43.1644 347.734 41.7742 346.715 40.5523 345.802C39.3354 344.89 38.332 344.08 38.5342 342.376C38.6573 341.527 39.1395 340.478 39.7787 339.288C40.4142 338.096 41.2254 336.767 42.1648 335.368C43.9506 332.546 46.0051 329.452 47.1428 326.196C47.7469 324.573 47.9981 323.14 48.1437 321.878C48.2932 320.619 48.2304 319.497 48.047 318.466C47.6464 316.394 46.9344 314.748 46.3529 313.11C46.0854 312.301 46.2173 311.238 46.7134 310.08C47.2082 308.921 47.978 307.632 48.8244 306.301C49.701 304.982 50.7295 303.659 51.6098 302.34C52.0519 301.681 52.4839 301.037 52.8958 300.42C53.2964 299.797 53.6467 299.186 53.923 298.588C54.2269 297.93 54.4015 297.25 54.4844 296.567C54.5924 295.899 54.6012 295.223 54.5434 294.557C54.4266 293.224 54.0411 291.924 53.6116 290.821C52.7953 288.725 50.9555 287.47 48.7101 287.7C47.5284 287.819 46.1671 288.108 44.8598 288.712C44.2067 289.013 43.5663 289.394 42.9723 289.867C42.4046 290.356 41.8872 290.941 41.4502 291.631C41.0534 292.257 40.6791 292.962 40.3225 293.715C39.9596 294.466 39.628 295.272 39.3517 296.124C38.7829 297.817 38.2278 299.579 37.7418 301.256C37.2834 302.948 36.8175 304.522 36.2649 305.79C35.7111 307.058 35.1623 308.059 34.3762 308.546C32.8529 309.537 31.0043 310.452 29.437 312.198C28.6371 313.066 27.8648 314.126 27.1665 315.476C26.4733 316.826 25.9609 318.496 25.5365 320.522C24.7516 324.598 25.2162 328.926 25.9333 332.602C26.2422 334.436 26.6705 336.126 26.9744 337.582C27.2758 339.039 27.434 340.262 27.3637 341.199C27.267 343.074 26.1393 343.756 24.7767 344.583C23.4204 345.411 21.7828 346.376 20.8912 348.853C20.532 349.823 20.6476 350.977 21.0921 352.309C21.553 353.643 22.4183 355.156 23.4355 356.842C24.4276 358.527 25.7399 360.382 27.0912 362.407C28.3935 364.438 29.9369 366.627 31.3459 369.015C32.338 370.687 34.2719 370.409 34.8685 368.593C35.7362 365.973 36.7283 363.687 37.8925 361.68C39.0064 359.676 40.104 357.968 41.1451 356.487C42.1623 355.008 42.9572 353.761 43.4884 352.678C44.0322 351.596 44.2331 350.674 43.9393 349.845Z" fill="#F3CE87"/>
<path d="M34.1326 375.578C33.8802 375.623 33.6353 375.395 33.585 375.066C33.585 375.066 33.3866 373.785 33.04 371.544C32.9597 370.983 32.8416 370.366 32.7688 369.687C32.6972 369.007 32.6193 368.273 32.5364 367.487C32.3707 365.916 32.1572 364.146 32.0818 362.203C31.5921 354.456 31.7503 344.019 33.6102 333.809C34.4126 328.686 35.7451 323.666 37.0662 318.994C38.5254 314.36 40.0425 310.082 41.5972 306.519C43.074 302.921 44.5885 300.053 45.5668 298.007C46.6594 296.02 47.2835 294.885 47.2835 294.885C47.443 294.594 47.7545 294.461 47.9767 294.586C48.199 294.712 48.2518 295.048 48.0923 295.336C48.0923 295.336 47.4732 296.463 46.3881 298.434C45.4186 300.465 43.9154 303.309 42.4499 306.881C40.9065 310.417 39.4008 314.663 37.9528 319.262C36.643 323.9 35.3193 328.882 34.5231 333.966C32.6758 344.101 32.5201 354.459 33.0061 362.146C33.0802 364.075 33.2937 365.83 33.4582 367.389C33.5411 368.167 33.6177 368.897 33.688 369.571C33.7609 370.246 33.8789 370.857 33.958 371.415C34.3021 373.638 34.4993 374.909 34.4993 374.909C34.5483 375.231 34.3838 375.533 34.1326 375.578Z" fill="white"/>
<path d="M503.036 416.385H469.686L465.521 374.873H507.201L503.036 416.385Z" fill="#F0F1F3"/>
<path d="M507.201 374.873C507.201 372.572 497.87 370.707 486.361 370.707C474.851 370.707 465.521 372.572 465.521 374.873C465.521 377.173 474.851 379.038 486.361 379.038C497.87 379.038 507.201 377.173 507.201 374.873Z" fill="#F0F1F3"/>
<path d="M504.673 374.873C504.673 372.853 496.475 371.214 486.361 371.214C476.248 371.214 468.05 372.853 468.05 374.873C468.05 376.894 476.248 378.533 486.361 378.533C496.474 378.533 504.673 376.895 504.673 374.873Z" fill="#1E2346"/>
<path d="M503.036 416.247C503.036 413.946 495.57 412.081 486.361 412.081C477.152 412.081 469.686 413.946 469.686 416.247C469.686 418.547 477.152 420.412 486.361 420.412C495.571 420.412 503.036 418.547 503.036 416.247Z" fill="#F0F1F3"/>
<path d="M506.347 360.512C506.469 358.563 505.628 357.135 504.899 355.864C504.175 354.596 503.603 353.501 504.438 352.29C504.872 351.697 505.695 351.12 506.709 350.512C507.72 349.902 508.934 349.274 510.277 348.654C512.896 347.355 515.822 345.993 518 344.051C519.115 343.099 519.862 342.119 520.451 341.213C521.044 340.308 521.406 339.404 521.634 338.505C522.069 336.685 522.08 335.021 522.211 333.431C522.29 332.655 522.805 331.884 523.655 331.22C524.504 330.554 525.63 329.926 526.836 329.307C528.059 328.712 529.404 328.188 530.623 327.596C531.837 326.988 533.04 326.487 533.928 325.797C534.424 325.428 534.824 324.974 535.151 324.466C535.491 323.983 535.757 323.441 535.966 322.87C536.383 321.728 536.575 320.469 536.66 319.342C536.821 317.205 535.844 315.203 533.935 314.21C532.932 313.686 531.711 313.208 530.404 313.019C529.751 312.925 529.076 312.903 528.402 312.982C527.741 313.085 527.085 313.293 526.449 313.628C525.309 314.258 524.067 315.109 522.934 316.202C521.791 317.28 520.636 318.427 519.571 319.533C518.522 320.664 517.515 321.692 516.556 322.432C515.595 323.17 514.739 323.691 513.885 323.684C512.209 323.705 510.287 323.509 508.261 324.122C507.238 324.416 506.159 324.881 505.03 325.615C503.903 326.352 502.8 327.434 501.634 328.844C499.345 331.713 498.035 335.384 497.211 338.632C496.76 340.232 496.468 341.766 496.16 343.056C495.851 344.345 495.51 345.379 495.08 346.08C494.255 347.502 492.992 347.503 491.461 347.514C489.935 347.528 488.106 347.523 486.319 349.063C485.612 349.66 485.251 350.625 485.111 351.878C484.986 353.139 485.144 354.724 485.375 356.505C485.585 358.275 486.008 360.314 486.404 362.491C486.756 364.652 487.255 367.026 487.56 369.481C487.78 371.203 489.635 371.813 490.899 370.679C492.73 369.044 494.534 367.737 496.367 366.724C498.156 365.693 499.808 364.894 501.309 364.243C502.789 363.584 503.98 363.01 504.867 362.437C505.761 361.873 506.291 361.273 506.347 360.512Z" fill="#26377C"/>
<path d="M487.414 375.733C487.168 375.662 487.04 375.382 487.127 375.107C487.127 375.107 487.467 374.036 488.061 372.161C488.336 371.217 488.753 370.098 489.243 368.818C489.725 367.536 490.245 366.08 490.951 364.548C493.603 358.363 497.863 350.366 503.429 343.292C506.115 339.686 509.189 336.394 512.116 333.368C515.139 330.434 518.068 327.803 520.739 325.746C523.362 323.626 525.722 322.094 527.323 320.954C528.992 319.913 529.945 319.319 529.945 319.319C530.19 319.167 530.495 319.221 530.628 319.439C530.762 319.658 530.672 319.958 530.431 320.109C530.431 320.109 529.487 320.698 527.834 321.727C526.249 322.858 523.912 324.373 521.314 326.474C518.668 328.511 515.767 331.118 512.772 334.024C509.874 337.023 506.826 340.283 504.165 343.857C498.65 350.866 494.431 358.788 491.805 364.914C491.107 366.431 490.592 367.872 490.113 369.142C489.628 370.409 489.215 371.517 488.943 372.452C488.354 374.309 488.017 375.368 488.017 375.368C487.931 375.64 487.661 375.803 487.414 375.733Z" fill="white"/>
<path d="M492.301 352.9C490.987 351.177 489.235 350.843 487.781 350.553C486.321 350.264 485.116 350.039 484.698 348.631C484.47 347.933 484.413 346.952 484.449 345.747C484.488 344.54 484.601 343.112 484.578 341.592C484.618 338.527 484.284 334.965 482.814 331.978C482.055 330.505 481.271 329.343 480.386 328.498C479.497 327.654 478.591 327.07 477.699 326.654C475.941 325.804 474.097 325.726 472.539 325.49C471.741 325.386 471.066 324.793 470.344 323.986C469.623 323.177 468.924 322.092 468.207 320.906C467.468 319.741 466.652 318.524 465.829 317.371C465.425 316.789 464.981 316.26 464.52 315.789C464.064 315.313 463.6 314.885 463.133 314.529C462.618 314.139 462.056 313.868 461.471 313.697C460.866 313.549 460.242 313.496 459.626 313.517C458.39 313.557 457.181 313.889 456.163 314.29C454.229 315.048 452.956 316.875 452.656 318.922C452.499 320.001 452.405 321.212 452.53 322.327C452.593 322.884 452.712 323.418 452.91 323.902C453.089 324.408 453.345 324.87 453.706 325.26C454.034 325.615 454.425 325.949 454.864 326.27C455.311 326.58 455.78 326.906 456.261 327.24C457.222 327.906 458.316 328.521 459.285 329.194C460.232 329.887 461.108 330.583 461.723 331.283C462.338 331.983 462.621 332.745 462.502 333.461C462.228 334.924 461.82 336.432 461.752 338.115C461.732 338.946 461.828 339.797 462.137 340.667C462.444 341.541 462.875 342.493 463.654 343.465C465.154 345.435 467.516 346.997 469.631 348.503C470.727 349.233 471.703 349.959 472.495 350.643C473.289 351.325 473.916 351.957 474.167 352.541C474.634 353.724 473.798 354.58 472.768 355.551C471.733 356.524 470.546 357.607 470.126 359.268C469.971 359.917 470.301 360.513 470.992 361.152C471.668 361.793 472.633 362.493 473.857 363.327C475.102 364.157 476.451 365.149 477.884 366.372C479.363 367.589 480.74 369.058 482.075 370.819C482.999 372.045 484.953 371.976 485.611 370.542C486.551 368.483 487.661 366.527 488.58 364.715C489.548 362.896 490.504 361.196 491.188 359.68C491.895 358.16 492.482 356.789 492.703 355.646C492.911 354.502 492.825 353.572 492.301 352.9Z" fill="#86D4D4"/>
<path d="M484.12 375.888C483.864 375.89 483.65 375.688 483.641 375.438C483.641 375.438 483.606 374.461 483.544 372.751C483.537 371.895 483.44 370.86 483.317 369.675C483.201 368.488 483.097 367.147 482.836 365.703C481.968 359.913 480.042 352.244 476.652 345.172C475.066 341.591 473.037 338.231 471.083 335.131C469.015 332.102 466.96 329.357 465.004 327.168C463.108 324.925 461.315 323.257 460.122 322.03C458.845 320.891 458.115 320.241 458.115 320.241C457.928 320.074 457.913 319.782 458.08 319.589C458.247 319.395 458.537 319.375 458.727 319.545C458.727 319.545 459.465 320.204 460.758 321.358C461.967 322.6 463.782 324.291 465.703 326.56C467.682 328.776 469.763 331.554 471.855 334.621C473.834 337.758 475.887 341.159 477.492 344.783C480.922 351.939 482.873 359.702 483.751 365.564C484.016 367.027 484.122 368.386 484.239 369.588C484.363 370.789 484.461 371.837 484.468 372.705C484.531 374.438 484.566 375.428 484.566 375.428C484.576 375.68 484.375 375.887 484.12 375.888Z" fill="white"/>
<path d="M496.034 349.845C495.26 347.734 493.869 346.715 492.647 345.802C491.431 344.89 490.427 344.08 490.629 342.376C490.752 341.527 491.235 340.478 491.874 339.288C492.509 338.096 493.321 336.767 494.26 335.368C496.046 332.546 498.102 329.452 499.238 326.196C499.842 324.573 500.093 323.14 500.239 321.878C500.388 320.619 500.326 319.497 500.142 318.466C499.742 316.394 499.03 314.748 498.448 313.11C498.181 312.301 498.313 311.238 498.809 310.08C499.303 308.921 500.073 307.632 500.92 306.301C501.796 304.982 502.825 303.659 503.705 302.34C504.147 301.681 504.579 301.037 504.991 300.42C505.392 299.797 505.742 299.186 506.018 298.588C506.322 297.93 506.497 297.25 506.58 296.567C506.688 295.899 506.698 295.223 506.639 294.557C506.522 293.224 506.136 291.924 505.707 290.821C504.89 288.725 503.051 287.47 500.805 287.7C499.624 287.819 498.262 288.108 496.955 288.712C496.302 289.013 495.661 289.394 495.067 289.867C494.5 290.356 493.984 290.941 493.545 291.631C493.149 292.257 492.774 292.962 492.418 293.715C492.055 294.466 491.723 295.272 491.447 296.124C490.878 297.817 490.323 299.579 489.837 301.256C489.379 302.948 488.913 304.522 488.36 305.79C487.806 307.058 487.258 308.059 486.471 308.546C484.948 309.537 483.099 310.452 481.532 312.198C480.732 313.066 479.96 314.126 479.262 315.476C478.569 316.826 478.056 318.496 477.632 320.522C476.847 324.598 477.311 328.926 478.029 332.602C478.337 334.436 478.766 336.126 479.07 337.582C479.371 339.039 479.529 340.262 479.459 341.199C479.362 343.074 478.234 343.756 476.872 344.583C475.516 345.411 473.878 346.376 472.986 348.853C472.627 349.823 472.743 350.977 473.187 352.309C473.648 353.643 474.515 355.156 475.531 356.842C476.523 358.527 477.835 360.382 479.186 362.407C480.489 364.438 482.032 366.627 483.44 369.015C484.432 370.687 486.366 370.409 486.962 368.593C487.83 365.973 488.822 363.687 489.986 361.68C491.1 359.676 492.198 357.968 493.239 356.487C494.256 355.008 495.051 353.761 495.582 352.678C496.126 351.596 496.328 350.674 496.034 349.845Z" fill="#F3CE87"/>
<path d="M486.228 375.578C485.975 375.623 485.73 375.395 485.68 375.066C485.68 375.066 485.482 373.785 485.135 371.544C485.055 370.983 484.937 370.366 484.864 369.687C484.792 369.007 484.714 368.273 484.632 367.487C484.466 365.916 484.252 364.146 484.177 362.203C483.687 354.456 483.845 344.019 485.705 333.809C486.508 328.686 487.84 323.666 489.161 318.994C490.619 314.36 492.138 310.082 493.692 306.519C495.169 302.921 496.684 300.053 497.662 298.007C498.755 296.02 499.379 294.885 499.379 294.885C499.538 294.594 499.85 294.461 500.072 294.586C500.294 294.712 500.347 295.048 500.187 295.336C500.187 295.336 499.568 296.463 498.483 298.434C497.514 300.465 496.011 303.309 494.545 306.881C493.002 310.417 491.496 314.663 490.048 319.262C488.738 323.9 487.414 328.882 486.618 333.966C484.771 344.101 484.615 354.459 485.101 362.146C485.175 364.075 485.389 365.83 485.552 367.389C485.634 368.167 485.712 368.897 485.782 369.571C485.855 370.246 485.973 370.857 486.052 371.415C486.396 373.638 486.593 374.909 486.593 374.909C486.642 375.231 486.479 375.533 486.228 375.578Z" fill="white"/>
</svg>
