<svg width="13" height="12" viewBox="0 0 13 12" fill="none" xmlns="http://www.w3.org/2000/svg">
<g clip-path="url(#clip0_1894_10682)">
<path d="M10.3067 0.953125H8.56757C8.4989 0.953468 8.43187 0.974129 8.37493 1.01251C8.31798 1.05088 8.27367 1.10526 8.24757 1.16878C8.22094 1.23212 8.21366 1.30193 8.22666 1.36941C8.23966 1.43688 8.27235 1.49899 8.32062 1.54791L8.9467 2.17052L7.17627 3.94095L6.03192 2.79313C5.99959 2.76052 5.96112 2.73465 5.91873 2.71699C5.87635 2.69933 5.83088 2.69024 5.78497 2.69024C5.73905 2.69024 5.69359 2.69933 5.6512 2.71699C5.60881 2.73465 5.57034 2.76052 5.53801 2.79313L2.40757 5.92356C2.37497 5.9559 2.3491 5.99436 2.33144 6.03675C2.31378 6.07914 2.30469 6.1246 2.30469 6.17052C2.30469 6.21643 2.31378 6.2619 2.33144 6.30428C2.3491 6.34667 2.37497 6.38514 2.40757 6.41747C2.43991 6.45007 2.47838 6.47595 2.52076 6.49361C2.56315 6.51127 2.60861 6.52036 2.65453 6.52036C2.70045 6.52036 2.74591 6.51127 2.7883 6.49361C2.83068 6.47595 2.86915 6.45007 2.90149 6.41747L5.78497 3.53052L6.92931 4.67834C6.96165 4.71094 7.00012 4.73682 7.0425 4.75448C7.08489 4.77214 7.13035 4.78123 7.17627 4.78123C7.22219 4.78123 7.26765 4.77214 7.31004 4.75448C7.35242 4.73682 7.39089 4.71094 7.42323 4.67834L9.43714 2.66095L10.0597 3.28704C10.0922 3.31928 10.1308 3.34478 10.1732 3.36209C10.2155 3.3794 10.2609 3.38817 10.3067 3.38791C10.3523 3.38908 10.3976 3.37955 10.4389 3.36008C10.5024 3.33399 10.5568 3.28968 10.5951 3.23273C10.6335 3.17578 10.6542 3.10875 10.6545 3.04008V1.30095C10.6545 1.2087 10.6179 1.12023 10.5527 1.055C10.4874 0.989771 10.399 0.953125 10.3067 0.953125Z" fill="#28A745"/>
<path d="M4.04382 7.5625H2.65251C2.46041 7.5625 2.30469 7.71823 2.30469 7.91033V10.3451C2.30469 10.5372 2.46041 10.6929 2.65251 10.6929H4.04382C4.23592 10.6929 4.39164 10.5372 4.39164 10.3451V7.91033C4.39164 7.71823 4.23592 7.5625 4.04382 7.5625Z" fill="#28A745"/>
<path d="M7.17663 6.17188H5.78533C5.59323 6.17188 5.4375 6.3276 5.4375 6.5197V10.3458C5.4375 10.5379 5.59323 10.6936 5.78533 10.6936H7.17663C7.36873 10.6936 7.52446 10.5379 7.52446 10.3458V6.5197C7.52446 6.3276 7.36873 6.17188 7.17663 6.17188Z" fill="#28A745"/>
<path d="M10.3016 4.78125H8.91033C8.71823 4.78125 8.5625 4.93698 8.5625 5.12908V10.3465C8.5625 10.5386 8.71823 10.6943 8.91033 10.6943H10.3016C10.4937 10.6943 10.6495 10.5386 10.6495 10.3465V5.12908C10.6495 4.93698 10.4937 4.78125 10.3016 4.78125Z" fill="#28A745"/>
</g>
<defs>
<clipPath id="clip0_1894_10682">
<rect width="11.1304" height="11.1304" fill="white" transform="translate(0.914062 0.257812)"/>
</clipPath>
</defs>
</svg>
