<svg width="14" height="14" viewBox="0 0 14 14" fill="none" xmlns="http://www.w3.org/2000/svg">
<g clip-path="url(#clip0_1894_12114)">
<path d="M3.5612 3.78074L2.3483 3.87444C2.0108 3.90053 1.71021 4.07741 1.52356 4.35974L0.124748 6.47536C-0.0168094 6.68946 -0.0393132 6.9574 0.0645102 7.19212C0.168361 7.42684 0.381777 7.5904 0.635389 7.6297L1.74595 7.80169C2.00574 6.42303 2.62764 5.04776 3.5612 3.78074ZM6.19829 12.254L6.37031 13.3646C6.40961 13.6182 6.57317 13.8316 6.80786 13.9354C6.90353 13.9779 7.00703 13.9999 7.1117 14C7.25862 13.9999 7.40225 13.9565 7.52465 13.8752L9.64033 12.4764C9.92265 12.2897 10.0995 11.9891 10.1256 11.6517L10.2193 10.4388C8.95223 11.3724 7.57698 11.9943 6.19829 12.254ZM5.78062 11.4843C5.81918 11.4843 5.85795 11.4811 5.89664 11.4747C6.47425 11.3781 7.03096 11.2154 7.56203 11.0024L2.99757 6.43798C2.78462 6.96902 2.62192 7.52574 2.52535 8.10337C2.48728 8.33106 2.56365 8.56301 2.72687 8.72625L5.27375 11.2731C5.40927 11.4086 5.59217 11.4843 5.78062 11.4843ZM12.8837 6.20707C14.0006 4.04764 14.042 1.76566 13.9836 0.69543C13.9636 0.328725 13.6713 0.0363684 13.3046 0.0163802C13.1002 0.00535864 12.8956 -0.000102972 12.691 1.46981e-06C11.4943 1.46981e-06 9.60071 0.181262 7.79291 1.11633C6.35623 1.85944 4.47234 3.49571 3.36088 5.64606C3.37401 5.65631 3.38683 5.6672 3.39892 5.67928L8.32075 10.6011C8.33284 10.6132 8.3437 10.626 8.35395 10.6391C10.5043 9.52764 12.1406 7.64375 12.8837 6.20707ZM8.14012 2.95967C8.93967 2.16011 10.2407 2.16003 11.0403 2.95967C11.4277 3.34699 11.641 3.862 11.641 4.40978C11.641 4.95755 11.4277 5.47256 11.0403 5.85989C10.6406 6.25962 10.1153 6.45953 9.59023 6.45958C9.06499 6.45961 8.53997 6.25973 8.14012 5.85989C7.75277 5.47256 7.53944 4.95755 7.53944 4.40978C7.53944 3.862 7.75277 3.34699 8.14012 2.95967Z" fill="url(#paint0_linear_1894_12114)"/>
<path d="M8.72006 5.27962C9.1998 5.75936 9.98046 5.75939 10.4602 5.27962C10.6926 5.0472 10.8206 4.73821 10.8206 4.40955C10.8206 4.08088 10.6926 3.77189 10.4602 3.5395C10.2203 3.29962 9.90524 3.17969 9.59013 3.17969C9.27505 3.17969 8.95994 3.29962 8.72009 3.5395C8.48769 3.77189 8.35967 4.08088 8.35967 4.40955C8.35967 4.73821 8.48767 5.04722 8.72006 5.27962ZM0.418397 11.5371C0.523369 11.5371 0.628341 11.497 0.708403 11.4169L2.0475 10.0778C2.20768 9.91765 2.20768 9.65797 2.0475 9.49779C1.88735 9.33762 1.62764 9.33762 1.46746 9.49779L0.128364 10.8369C-0.0318142 10.9971 -0.0318142 11.2568 0.128364 11.4169C0.166409 11.4551 0.211617 11.4853 0.261391 11.5059C0.311164 11.5266 0.364522 11.5371 0.418397 11.5371ZM3.2747 10.725C3.11455 10.5648 2.85484 10.5648 2.69466 10.725L0.120134 13.2995C-0.0400446 13.4597 -0.0400446 13.7194 0.120134 13.8796C0.200223 13.9597 0.305195 13.9997 0.410167 13.9997C0.515139 13.9997 0.62011 13.9597 0.700172 13.8795L3.27468 11.305C3.43488 11.1449 3.43488 10.8852 3.2747 10.725ZM3.92184 11.9522L2.58277 13.2913C2.4226 13.4515 2.4226 13.7112 2.58277 13.8713C2.66286 13.9514 2.76784 13.9915 2.87278 13.9915C2.97773 13.9915 3.08272 13.9515 3.16279 13.8713L4.50188 12.5322C4.66206 12.3721 4.66206 12.1124 4.50188 11.9522C4.34173 11.792 4.08202 11.792 3.92184 11.9522Z" fill="url(#paint1_linear_1894_12114)"/>
</g>
<defs>
<linearGradient id="paint0_linear_1894_12114" x1="3.47015" y1="14" x2="14.5254" y2="9.19712" gradientUnits="userSpaceOnUse">
<stop stop-color="#1C2A44"/>
<stop offset="0.5" stop-color="#377899"/>
<stop offset="1" stop-color="#4669AA"/>
</linearGradient>
<linearGradient id="paint1_linear_1894_12114" x1="2.68207" y1="13.9997" x2="11.2266" y2="10.2874" gradientUnits="userSpaceOnUse">
<stop stop-color="#1C2A44"/>
<stop offset="0.5" stop-color="#377899"/>
<stop offset="1" stop-color="#4669AA"/>
</linearGradient>
<clipPath id="clip0_1894_12114">
<rect width="14" height="14" fill="white"/>
</clipPath>
</defs>
</svg>
