<svg width="28" height="26" viewBox="0 0 28 26" fill="none" xmlns="http://www.w3.org/2000/svg">
<path fill-rule="evenodd" clip-rule="evenodd" d="M20.0731 25.7688L14.2272 22.7172C13.8868 22.5385 13.4803 22.5385 13.1399 22.7172L11.807 23.4188C11.2381 23.7009 10.548 23.4773 10.2526 22.9151C9.95725 22.3529 10.1646 21.6578 10.7197 21.3493L12.0525 20.6478C13.0737 20.1114 14.2934 20.1114 15.3145 20.6478L20.0614 23.1498L19.1494 17.8652C18.9556 16.73 19.3314 15.5719 20.1549 14.7669L24.0015 11.0255L18.6934 10.2539C17.5508 10.0886 16.5626 9.3715 16.0511 8.33642L13.7128 3.53112L11.3744 8.33642C10.8629 9.3715 9.87477 10.0886 8.73209 10.2539L3.42405 11.0255L7.27063 14.7669C8.09784 15.5745 8.47396 16.7378 8.27612 17.8769L7.1654 24.3307C7.09439 24.7484 6.80593 25.0965 6.40868 25.2439C6.01144 25.3912 5.56575 25.3154 5.23951 25.0451C4.91327 24.7748 4.75605 24.3509 4.82706 23.9332L5.93777 17.4794C6.00409 17.0977 5.87711 16.7081 5.59871 16.4388L0.922018 11.8673C0.443016 11.4017 0.270141 10.7044 0.476168 10.0689C0.682196 9.43346 1.23134 8.97023 1.89243 8.87424L8.36965 7.92721C8.7499 7.87009 9.07776 7.62966 9.24653 7.28416L12.1461 1.4383C12.4416 0.839811 13.0512 0.460938 13.7186 0.460938C14.3861 0.460938 14.9957 0.839811 15.2912 1.4383L18.1907 7.28416C18.3595 7.62966 18.6873 7.87009 19.0676 7.92721L25.5448 8.87424C26.2059 8.97023 26.755 9.43346 26.9611 10.0689C27.1671 10.7044 26.9942 11.4017 26.5152 11.8673L21.8385 16.4388C21.5639 16.7055 21.4372 17.0899 21.4995 17.4677L22.6102 23.9215C22.7001 24.4325 22.5592 24.9571 22.2252 25.3542C21.8913 25.7513 21.3987 25.9802 20.8798 25.9792L20.8915 25.9675C20.6066 25.9688 20.3257 25.9005 20.0731 25.7688Z" fill="#1C2A44"/>
</svg>
