<svg width="13" height="12" viewBox="0 0 13 12" fill="none" xmlns="http://www.w3.org/2000/svg">
<g clip-path="url(#clip0_1894_10690)">
<path d="M11.9465 2.67246L9.50152 0.227549C9.38009 0.101223 9.16178 0.101245 9.04037 0.227549L6.59546 2.67246C6.54987 2.71807 6.51883 2.77617 6.50626 2.83942C6.49369 2.90267 6.50015 2.96823 6.52482 3.0278C6.5495 3.08738 6.59128 3.1383 6.64489 3.17414C6.6985 3.20998 6.76154 3.22911 6.82602 3.22914H7.89704V10.9364C7.89704 11.1165 8.04304 11.2625 8.22313 11.2625H10.3188C10.4989 11.2625 10.6449 11.1165 10.6449 10.9364V3.22914H11.7159C11.7804 3.22914 11.8434 3.21001 11.8971 3.17418C11.9507 3.13834 11.9925 3.08742 12.0172 3.02783C12.0418 2.96824 12.0483 2.90268 12.0357 2.83942C12.0231 2.77617 11.9921 2.71806 11.9465 2.67246Z" fill="#28A745"/>
<path d="M6.82856 4.67188H4.73291C4.55282 4.67188 4.40682 4.81787 4.40682 4.99796V10.9356C4.40682 11.1157 4.55282 11.2617 4.73291 11.2617H6.82856C7.00865 11.2617 7.15465 11.1157 7.15465 10.9356V4.99796C7.15465 4.81787 7.00865 4.67188 6.82856 4.67188ZM3.3358 7.46607H1.24015C1.06006 7.46607 0.914062 7.61207 0.914062 7.79216V10.9356C0.914062 11.1157 1.06006 11.2617 1.24015 11.2617H3.3358C3.51589 11.2617 3.66189 11.1157 3.66189 10.9356V7.79216C3.66189 7.61207 3.51589 7.46607 3.3358 7.46607Z" fill="#28A745"/>
</g>
<defs>
<clipPath id="clip0_1894_10690">
<rect width="11.1304" height="11.1304" fill="white" transform="translate(0.914062 0.132812)"/>
</clipPath>
</defs>
</svg>
