<svg width="38" height="38" viewBox="0 0 38 38" fill="none" xmlns="http://www.w3.org/2000/svg">
<path fill-rule="evenodd" clip-rule="evenodd" d="M17.4681 19.6664V4.25781C17.4681 3.92086 17.1942 3.64551 16.8558 3.64551C12.3618 3.64551 8.29316 5.46758 5.34742 8.41258C3.91871 9.84129 2.75348 11.5364 1.93262 13.4157C2.95312 12.7826 4.15621 12.4167 5.44613 12.4167C7.28898 12.4167 8.95742 13.1633 10.165 14.3709C11.3725 15.5784 12.1191 17.2468 12.1191 19.0897C12.1191 20.9325 11.3725 22.601 10.165 23.8085C9.89777 24.0735 9.6098 24.3177 9.30031 24.5366H9.76715C10.4151 24.5366 11.0021 24.8016 11.4289 25.2268C11.8542 25.6521 12.1191 26.2407 12.1191 26.8886C12.1191 27.5343 11.8542 28.1236 11.4289 28.5489C11.4014 28.5763 11.374 28.6016 11.3465 28.6268C11.374 28.652 11.4014 28.6773 11.4289 28.7047C11.8542 29.13 12.1191 29.7186 12.1191 30.365C12.1191 31.0129 11.8542 31.6022 11.4289 32.0268C11.4014 32.0542 11.374 32.0795 11.3465 32.1047C11.374 32.1299 11.4014 32.1552 11.4289 32.1826C11.8542 32.6079 12.1191 33.1942 12.1191 33.8429C12.1191 34.4047 11.9195 34.9198 11.5914 35.3243C13.2428 35.8884 15.0122 36.1956 16.855 36.1956C19.0556 36.1956 21.1575 35.7562 23.0761 34.9606C25.0725 34.1361 26.8649 32.9263 28.3627 31.4286C28.6002 31.1888 28.6002 30.8014 28.3627 30.5617L17.4681 19.6664Z" fill="white"/>
<path fill-rule="evenodd" clip-rule="evenodd" d="M37.3877 20.247H21.7268C21.5687 20.247 21.4136 20.3079 21.2934 20.4259C21.0536 20.6656 21.0536 21.0553 21.2934 21.2928L32.3675 32.367C32.605 32.6067 32.9947 32.6067 33.2322 32.367C34.7299 30.8692 35.9397 29.0768 36.7665 27.0818C37.5621 25.1611 37.9993 23.0592 37.9993 20.8586C38 20.5202 37.7261 20.247 37.3877 20.247ZM19.6353 18.6944H35.2962C35.6346 18.6944 35.9085 18.4205 35.9085 18.0821C35.9085 13.5881 34.0864 9.51945 31.1437 6.57371C28.1979 3.62797 24.1293 1.80664 19.6353 1.80664C19.2969 1.80664 19.0208 2.08199 19.0208 2.42117V18.0821C19.0208 18.4205 19.2969 18.6944 19.6353 18.6944ZM10.5636 33.0468C10.3572 32.8427 10.0774 32.7165 9.76867 32.7165H1.1259C0.816406 32.7165 0.534375 32.8427 0.330273 33.0468C0.126172 33.2524 0 33.5322 0 33.8417C0 34.1512 0.126172 34.4332 0.330273 34.6366C0.534375 34.8407 0.816406 34.9668 1.1259 34.9668H9.76867C9.96609 34.9668 10.1516 34.9164 10.3134 34.8236C10.4062 34.7731 10.4901 34.71 10.5636 34.6366C10.7677 34.4325 10.8938 34.1504 10.8938 33.8417C10.8938 33.8083 10.8916 33.7719 10.8894 33.7385C10.8641 33.4713 10.7446 33.2294 10.5636 33.0468ZM9.76867 29.2386H1.1259C0.816406 29.2386 0.534375 29.367 0.330273 29.5711C0.126172 29.7752 0 30.0565 0 30.3638C0 30.6733 0.126172 30.9553 0.330273 31.1587C0.534375 31.3628 0.816406 31.4889 1.1259 31.4889H9.76867C10.0782 31.4889 10.358 31.3628 10.5636 31.1587C10.7677 30.9546 10.8938 30.6725 10.8938 30.3638C10.8938 30.0565 10.7677 29.7745 10.5636 29.5704C10.3572 29.367 10.0774 29.2386 9.76867 29.2386ZM9.76867 25.763H1.1259C0.816406 25.763 0.534375 25.8891 0.330273 26.0932C0.225647 26.1975 0.142618 26.3214 0.0859442 26.4578C0.0292703 26.5942 6.44886e-05 26.7404 0 26.8881C0 27.1954 0.126172 27.4774 0.330273 27.6815C0.534375 27.8856 0.816406 28.014 1.1259 28.014H9.76867C10.0782 28.014 10.358 27.8856 10.5636 27.6815C10.7677 27.4774 10.8938 27.1954 10.8938 26.8881C10.8938 26.5786 10.7677 26.2966 10.5636 26.0932C10.4593 25.9886 10.3354 25.9056 10.199 25.8489C10.0626 25.7922 9.91638 25.763 9.76867 25.763ZM5.44691 24.5361C8.45574 24.5361 10.8938 22.098 10.8938 19.0892C10.8938 16.0804 8.45574 13.6423 5.44691 13.6423C3.73617 13.6423 2.14195 14.4372 1.11105 15.7924C0.412656 16.7083 0 17.8505 0 19.0892C0 22.0936 2.43438 24.5361 5.44691 24.5361ZM3.60629 19.7757C3.91801 19.6451 4.27723 19.795 4.40562 20.106C4.44793 20.207 4.4984 20.302 4.55258 20.3858C4.74406 20.6782 5.00309 20.8489 5.26805 20.9202C5.53746 20.9914 5.81281 20.9707 6.0377 20.8757C6.08816 20.8549 6.13641 20.8296 6.18316 20.7977C6.22324 20.7725 6.25664 20.745 6.28633 20.7154C6.36871 20.6293 6.42289 20.5239 6.43773 20.417C6.45035 20.3205 6.42957 20.2173 6.36797 20.1223C6.34496 20.0867 6.31973 20.0548 6.28781 20.0259C6.17203 19.9123 5.86254 19.8388 5.53672 19.7609C4.97711 19.6303 4.38188 19.4893 3.91281 19.0076C3.74102 18.8293 3.61097 18.6151 3.53207 18.3804C3.42891 18.0776 3.41035 17.7451 3.47938 17.4275C3.54914 17.1076 3.71094 16.7981 3.96773 16.548C4.15105 16.3691 4.38188 16.2221 4.66168 16.1271C4.7166 16.1086 4.77301 16.0915 4.83387 16.0767V15.5252C4.83387 15.1883 5.10773 14.9129 5.44617 14.9129C5.78461 14.9129 6.05848 15.1883 6.05848 15.5252V16.0514C6.16387 16.0745 6.2648 16.1041 6.36352 16.142C6.88527 16.3335 7.32465 16.7098 7.52504 17.2991C7.54211 17.3473 7.55695 17.4 7.57105 17.4571C7.65121 17.7852 7.45082 18.1177 7.12277 18.1979C6.79473 18.278 6.46445 18.0776 6.38207 17.7496C6.37762 17.7325 6.37391 17.7139 6.365 17.6924C6.29746 17.495 6.13789 17.3621 5.94195 17.2909C5.69777 17.2004 5.41203 17.1944 5.15523 17.2575C5.12332 17.2657 5.08992 17.2746 5.0543 17.2872C4.95559 17.3206 4.87543 17.3696 4.81902 17.426C4.74332 17.4972 4.6973 17.59 4.67578 17.6872C4.65277 17.7904 4.65871 17.8958 4.69063 17.99C4.71141 18.0531 4.74555 18.1103 4.78711 18.1563C5.00605 18.3789 5.42242 18.4784 5.81355 18.5704C6.31008 18.6862 6.77691 18.7975 7.14133 19.1493C7.24004 19.248 7.32465 19.349 7.39145 19.4521C7.62301 19.8054 7.69871 20.201 7.64824 20.5795C7.59777 20.9477 7.42559 21.2972 7.15988 21.5681C7.06488 21.6646 6.96246 21.7514 6.85262 21.8227C6.745 21.8925 6.62996 21.9533 6.50527 22.006C6.36426 22.0646 6.21285 22.1114 6.05699 22.1404V22.6517C6.05699 22.9902 5.78312 23.2663 5.44469 23.2663C5.10625 23.2663 4.83238 22.9909 4.83238 22.6517V22.0669C4.33809 21.9073 3.87125 21.5807 3.52613 21.0553C3.42774 20.9034 3.34328 20.7429 3.27379 20.5758C3.14762 20.2634 3.29457 19.9056 3.60629 19.7757Z" fill="white"/>
</svg>
