<svg width="38" height="38" viewBox="0 0 38 38" fill="none" xmlns="http://www.w3.org/2000/svg">
<path d="M26.6238 3.95459L23.1562 6.03271L19.7006 3.95459L16.2331 6.03271L12.7775 3.95459L9.31 6.03271L5.8425 3.95459L2.375 6.03271V31.2077C2.375 31.9604 2.67402 32.6823 3.20627 33.2146C3.46981 33.4781 3.78268 33.6872 4.12702 33.8298C4.47136 33.9724 4.84042 34.0458 5.21312 34.0458H22.0305C20.7493 33.147 19.7032 31.9529 18.9806 30.5646C18.2581 29.1763 17.8802 27.6345 17.879 26.0694C17.879 20.6853 22.2585 16.3058 27.6426 16.3058C28.4858 16.3058 29.2992 16.4245 30.0794 16.6264V6.03271L26.6238 3.95459ZM15.4221 26.9458H8.14506C7.86161 26.9458 7.58977 26.8332 7.38934 26.6327C7.18891 26.4323 7.07631 26.1605 7.07631 25.877C7.07631 25.5936 7.18891 25.3217 7.38934 25.1213C7.58977 24.9209 7.86161 24.8083 8.14506 24.8083H15.4221C15.7055 24.8083 15.9774 24.9209 16.1778 25.1213C16.3782 25.3217 16.4908 25.5936 16.4908 25.877C16.4908 26.1605 16.3782 26.4323 16.1778 26.6327C15.9774 26.8332 15.7055 26.9458 15.4221 26.9458ZM17.1119 21.1199H8.14625C7.8628 21.1199 7.59096 21.0073 7.39053 20.8069C7.1901 20.6064 7.0775 20.3346 7.0775 20.0512C7.0775 19.7677 7.1901 19.4959 7.39053 19.2954C7.59096 19.095 7.8628 18.9824 8.14625 18.9824H17.1119C17.3953 18.9824 17.6672 19.095 17.8676 19.2954C18.068 19.4959 18.1806 19.7677 18.1806 20.0512C18.1806 20.3346 18.068 20.6064 17.8676 20.8069C17.6672 21.0073 17.3953 21.1199 17.1119 21.1199ZM24.3141 15.2845H8.14506C7.86161 15.2845 7.58977 15.1719 7.38934 14.9715C7.18891 14.7711 7.07631 14.4992 7.07631 14.2158C7.07631 13.9323 7.18891 13.6605 7.38934 13.4601C7.58977 13.2596 7.86161 13.147 8.14506 13.147H24.3141C24.5975 13.147 24.8694 13.2596 25.0698 13.4601C25.2702 13.6605 25.3828 13.9323 25.3828 14.2158C25.3828 14.4992 25.2702 14.7711 25.0698 14.9715C24.8694 15.1719 24.5975 15.2845 24.3141 15.2845Z" fill="white"/>
<path d="M27.6425 18.0869C26.5943 18.0869 25.5563 18.2934 24.5878 18.6945C23.6193 19.0957 22.7394 19.6837 21.9981 20.4249C21.2569 21.1661 20.6689 22.0461 20.2678 23.0146C19.8666 23.983 19.6602 25.021 19.6602 26.0693C19.6602 27.1175 19.8666 28.1555 20.2678 29.124C20.6689 30.0925 21.2569 30.9724 21.9981 31.7137C22.7394 32.4549 23.6193 33.0429 24.5878 33.444C25.5563 33.8452 26.5943 34.0517 27.6425 34.0517C29.7596 34.0517 31.7899 33.2107 33.2869 31.7137C34.7839 30.2167 35.6249 28.1863 35.6249 26.0693C35.6249 23.9522 34.7839 21.9219 33.2869 20.4249C31.7899 18.9279 29.7596 18.0869 27.6425 18.0869ZM28.7077 29.9085V30.1353C28.7129 30.4176 28.6057 30.6905 28.4098 30.8938C28.2138 31.0971 27.9451 31.2143 27.6627 31.2195C27.3804 31.2247 27.1075 31.1175 26.9042 30.9215C26.7009 30.7255 26.5837 30.4568 26.5785 30.1745C26.1229 30.1131 25.7052 29.8883 25.403 29.5418C25.1009 29.1953 24.935 28.7508 24.9362 28.2911C24.9359 28.028 25.0326 27.774 25.2078 27.5777C25.3831 27.3815 25.6246 27.2568 25.8861 27.2275C26.1476 27.1983 26.4107 27.2665 26.625 27.4191C26.8393 27.5718 26.9898 27.7981 27.0476 28.0548C27.8765 27.9978 28.507 27.7793 28.5189 27.5311C28.5225 27.5442 28.3182 27.3221 27.4003 27.1119C25.4753 26.6749 24.5443 25.7879 24.6346 24.4733C24.6809 23.7869 25.0312 22.7407 26.5714 22.2325V22.0033C26.5714 21.7198 26.684 21.448 26.8844 21.2476C27.0849 21.0471 27.3567 20.9345 27.6402 20.9345C28.2173 20.9345 28.6792 21.3929 28.7006 21.9653C29.0925 22.0223 29.4618 22.1897 29.7539 22.4724C30.1256 22.831 30.3382 23.3333 30.3382 23.8499C30.3388 24.1131 30.2423 24.3673 30.0671 24.5637C29.892 24.7602 29.6504 24.8851 29.3889 24.9146C29.1273 24.944 28.8641 24.8758 28.6496 24.7232C28.4352 24.5706 28.2846 24.3441 28.2268 24.0874C27.3623 24.1444 26.7852 24.351 26.7673 24.6194C26.765 24.6075 26.9217 24.8117 27.8741 25.0279C30.2158 25.561 30.679 26.7105 30.6564 27.5822C30.6398 28.164 30.3857 29.3551 28.7077 29.9085Z" fill="white"/>
</svg>
