<svg width="38" height="38" viewBox="0 0 38 38" fill="none" xmlns="http://www.w3.org/2000/svg">
<path d="M30.9293 27.0962C30.9293 27.0709 30.8958 27.0691 30.8885 27.0935C30.3837 28.8189 25.2564 30.1851 19.0045 30.1851C12.7987 30.1851 7.70854 28.8442 7.12226 27.1415C7.11321 27.1125 7.06616 27.1225 7.06616 27.1532V30.4393H7.07973C7.27878 32.2461 12.5373 33.7019 19.0045 33.7019C25.5912 33.7019 30.9293 32.1855 30.9293 30.3308V27.0962Z" fill="white"/>
<path d="M19.0046 29.1143C25.5948 29.1143 30.9384 27.5988 30.9384 25.7431C30.9384 24.4701 28.4367 23.3582 24.7516 22.7755V19.5202C24.7514 19.361 24.688 19.2084 24.5753 19.096C24.4627 18.9835 24.31 18.9203 24.1508 18.9203H22.1604C22.0809 18.9194 22.0019 18.9342 21.9282 18.9639C21.8544 18.9935 21.7872 19.0375 21.7306 19.0933C21.6739 19.149 21.6288 19.2155 21.5979 19.2887C21.567 19.362 21.5509 19.4407 21.5506 19.5202V22.4435C21.2999 22.4236 21.049 22.4085 20.7978 22.3982V13.2448C20.7979 13.1682 20.7829 13.0924 20.7537 13.0216C20.7244 12.9509 20.6815 12.8866 20.6274 12.8325C20.5733 12.7784 20.509 12.7354 20.4382 12.7062C20.3675 12.677 20.2917 12.662 20.2151 12.6621H18.1885C18.1119 12.662 18.0361 12.677 17.9653 12.7062C17.8946 12.7354 17.8303 12.7784 17.7762 12.8325C17.7221 12.8866 17.6791 12.9509 17.6499 13.0216C17.6207 13.0924 17.6057 13.1682 17.6058 13.2448V22.391C17.2113 22.4 16.8259 22.4181 16.4495 22.4453V16.2576C16.4493 16.178 16.4333 16.0993 16.4024 16.0259C16.3716 15.9525 16.3265 15.886 16.2698 15.8301C16.2131 15.7743 16.1459 15.7302 16.0721 15.7005C15.9983 15.6707 15.9193 15.6559 15.8397 15.6569H13.8492C13.7703 15.6569 13.6922 15.6724 13.6193 15.7026C13.5464 15.7328 13.4802 15.777 13.4244 15.8328C13.3686 15.8886 13.3244 15.9548 13.2942 16.0277C13.264 16.1006 13.2485 16.1787 13.2485 16.2576V22.7855C9.7606 23.332 7.34851 24.3543 7.09698 25.5378C7.07889 25.6101 7.06079 25.6726 7.06079 25.744C7.06079 27.5997 12.4052 29.1152 19.0036 29.1152L19.0046 29.1143ZM22.7077 21.6274C22.7071 21.5684 22.7183 21.5099 22.7406 21.4553C22.7629 21.4007 22.7959 21.3511 22.8376 21.3093C22.8793 21.2676 22.9289 21.2347 22.9835 21.2124C23.0381 21.1901 23.0966 21.1789 23.1556 21.1795C23.3981 21.1795 23.6044 21.3768 23.6044 21.6274V23.636C23.6044 24.2222 22.7077 24.2367 22.7077 23.636V21.6274ZM18.7539 16.0151C18.7591 15.8997 18.8086 15.7908 18.8921 15.7109C18.9756 15.6311 19.0867 15.5865 19.2022 15.5865C19.3178 15.5865 19.4289 15.6311 19.5124 15.7109C19.5959 15.7908 19.6454 15.8997 19.6506 16.0151V23.2324C19.6506 23.484 19.4524 23.6812 19.2018 23.6812C18.9512 23.6812 18.753 23.484 18.753 23.2324V16.0151H18.7539ZM14.3957 18.3286C14.3957 18.0861 14.602 17.8799 14.8445 17.8799C15.0951 17.8799 15.2923 18.0861 15.2923 18.3286V23.0714C15.2929 23.1304 15.2817 23.1889 15.2595 23.2435C15.2372 23.2981 15.2042 23.3477 15.1625 23.3894C15.1208 23.4311 15.0712 23.4641 15.0166 23.4864C14.9619 23.5087 14.9034 23.5198 14.8445 23.5192C14.7257 23.519 14.6118 23.4718 14.5277 23.3879C14.4436 23.3039 14.3962 23.1902 14.3957 23.0714V18.3286ZM13.2485 24.3896V25.7965C13.2485 26.1376 13.5172 26.4063 13.8492 26.4063H15.8397C15.92 26.4071 15.9996 26.3918 16.0739 26.3614C16.1482 26.331 16.2157 26.2861 16.2725 26.2293C16.3293 26.1726 16.3742 26.1051 16.4046 26.0307C16.4349 25.9564 16.4502 25.8768 16.4495 25.7965V23.8784C16.8259 23.8513 17.2113 23.8241 17.6058 23.806V25.7603C17.6058 26.0842 17.8655 26.3439 18.1885 26.3439H20.2151C20.2917 26.344 20.3675 26.329 20.4382 26.2998C20.509 26.2706 20.5733 26.2276 20.6274 26.1735C20.6815 26.1194 20.7244 26.0551 20.7537 25.9844C20.7829 25.9136 20.7979 25.8378 20.7978 25.7612V23.8332C21.0575 23.8422 21.309 23.8603 21.5506 23.8784V25.7422C21.5506 26.0752 21.8202 26.3439 22.1604 26.3439H24.1508C24.2297 26.3439 24.3078 26.3284 24.3807 26.2982C24.4536 26.268 24.5199 26.2237 24.5756 26.1679C24.6314 26.1122 24.6757 26.0459 24.7059 25.973C24.7361 25.9002 24.7516 25.822 24.7516 25.7431V24.3896C25.9803 24.7117 26.724 25.1424 26.724 25.6174C26.724 26.6307 23.2723 27.4559 18.9955 27.4559C14.7277 27.4559 11.267 26.6307 11.267 25.6174C11.267 25.1424 12.0198 24.7126 13.2485 24.3896ZM19.7365 4.5889C19.6768 4.5827 19.6165 4.58843 19.5591 4.60575C19.5016 4.62308 19.4482 4.65166 19.4019 4.68983C19.3556 4.72799 19.3174 4.77499 19.2894 4.82808C19.2615 4.88116 19.2444 4.93928 19.2391 4.99904C19.2338 5.05881 19.2405 5.11903 19.2587 5.17619C19.2769 5.23336 19.3063 5.28633 19.3452 5.33202C19.3841 5.37772 19.4316 5.41522 19.4852 5.44235C19.5387 5.46948 19.597 5.48569 19.6569 5.49005C21.9993 5.69814 22.9719 8.61871 21.1886 10.1812C21.2574 9.68 20.5825 9.46648 20.3454 9.90619L19.7799 10.9593C19.7512 11.0126 19.7335 11.0711 19.7278 11.1313C19.7222 11.1916 19.7286 11.2524 19.7468 11.3101C19.7651 11.3678 19.7947 11.4212 19.8339 11.4673C19.8732 11.5133 19.9213 11.5511 19.9754 11.5782C21.09 12.1192 21.1136 12.188 21.3008 12.188C21.7786 12.188 21.9287 11.5447 21.5044 11.3312L21.2873 11.2226C24.2467 9.41762 23.1719 4.89471 19.7365 4.5889ZM18.2464 11.9555C18.3055 11.9608 18.3652 11.9545 18.4219 11.9368C18.4786 11.9191 18.5313 11.8904 18.5769 11.8523C18.6225 11.8142 18.6602 11.7676 18.6878 11.7149C18.7154 11.6623 18.7323 11.6048 18.7376 11.5456C18.743 11.4864 18.7366 11.4268 18.7189 11.3701C18.7012 11.3134 18.6725 11.2607 18.6345 11.2151C18.5964 11.1695 18.5497 11.1318 18.4971 11.1042C18.4445 11.0766 18.387 11.0597 18.3278 11.0543C15.9057 10.8363 14.9829 7.72843 16.9526 6.23648C16.7046 6.75219 17.4266 7.1331 17.7288 6.68162L18.4273 5.63752C18.461 5.5872 18.4843 5.53061 18.4957 5.47113C18.5071 5.41164 18.5065 5.35047 18.4939 5.29123C18.4812 5.232 18.4568 5.17591 18.422 5.12629C18.3873 5.07667 18.3429 5.03453 18.2916 5.00238L17.2792 4.36724C17.2288 4.3339 17.1724 4.31097 17.113 4.2998C17.0537 4.28863 16.9928 4.28945 16.9338 4.3022C16.8748 4.31496 16.8189 4.33939 16.7695 4.37406C16.7201 4.40873 16.6781 4.45294 16.646 4.50408C16.614 4.55523 16.5925 4.61227 16.5828 4.67185C16.5731 4.73144 16.5755 4.79235 16.5897 4.85101C16.6039 4.90968 16.6298 4.9649 16.6657 5.01342C16.7016 5.06195 16.7468 5.1028 16.7987 5.13357L16.9055 5.20052C13.7207 6.87071 14.7151 11.637 18.2464 11.9555Z" fill="white"/>
</svg>
