<svg width="38" height="38" viewBox="0 0 38 38" fill="none" xmlns="http://www.w3.org/2000/svg">
<path d="M15.8858 19.2357C15.769 19.1225 15.7017 18.9677 15.6986 18.8051C15.6955 18.6425 15.7569 18.4852 15.8693 18.3677C15.9817 18.2502 16.1361 18.1819 16.2987 18.1777C16.4613 18.1736 16.6189 18.2339 16.7372 18.3456L18.0446 19.5963L21.0896 16.3002C21.2005 16.1803 21.3545 16.1093 21.5177 16.1028C21.6809 16.0964 21.84 16.155 21.96 16.2658C22.0799 16.3766 22.1509 16.5306 22.1574 16.6938C22.1639 16.857 22.1052 17.0161 21.9944 17.1361L18.5242 20.8925C18.4686 20.9526 18.4017 21.001 18.3273 21.0349C18.2529 21.0688 18.1725 21.0876 18.0908 21.0901C18.0844 21.0903 18.0781 21.0904 18.0718 21.0904C17.9132 21.0904 17.7607 21.0292 17.6461 20.9196L15.8858 19.2357ZM12.9031 14.8632L11.6789 12.9225L13.3261 11.2752L15.2692 12.5002C15.3599 12.5572 15.4638 12.5896 15.5708 12.5942C15.6778 12.5988 15.7842 12.5754 15.8794 12.5264C16.212 12.3552 16.5584 12.2122 16.9149 12.0988C17.0174 12.0664 17.1096 12.0076 17.1824 11.9284C17.2551 11.8492 17.3058 11.7523 17.3294 11.6474L17.8348 9.40841H20.1631L20.6709 11.6474C20.6946 11.7522 20.7453 11.8491 20.818 11.9283C20.8907 12.0075 20.9829 12.0663 21.0854 12.0988C21.4419 12.2122 21.7883 12.3552 22.1209 12.5264C22.216 12.5757 22.3225 12.5992 22.4295 12.5944C22.5366 12.5897 22.6406 12.557 22.731 12.4995L24.6718 11.2752L26.3191 12.9225L25.0948 14.8632C25.0376 14.9536 25.0049 15.0573 25 15.1642C24.9952 15.2711 25.0183 15.3774 25.0671 15.4726C25.2386 15.8074 25.3829 16.1555 25.4985 16.5134C25.5312 16.6155 25.59 16.7072 25.6691 16.7795C25.7481 16.8518 25.8447 16.9022 25.9492 16.9257L28.1858 17.4311V19.7601L25.9484 20.2671C25.8441 20.2907 25.7478 20.3411 25.6689 20.4132C25.59 20.4853 25.5313 20.5768 25.4985 20.6785C25.3835 21.0359 25.2394 21.3832 25.0678 21.7171C25.0185 21.8123 24.9951 21.9187 24.9998 22.0257C25.0046 22.1328 25.0373 22.2368 25.0947 22.3272L26.319 24.268L24.6718 25.9152L22.7309 24.6909C22.6405 24.6335 22.5365 24.6007 22.4295 24.596C22.3224 24.5913 22.216 24.6147 22.1208 24.664C21.7869 24.8356 21.4396 24.9797 21.0823 25.0947C20.9805 25.1275 20.8891 25.1863 20.817 25.2652C20.7448 25.344 20.6945 25.4404 20.6709 25.5446L20.1993 27.6248H17.7994L17.3295 25.5454C17.306 25.4409 17.2557 25.3444 17.1836 25.2654C17.1114 25.1863 17.0199 25.1275 16.9181 25.0946C16.5607 24.9796 16.2134 24.8356 15.8795 24.6639C15.7844 24.6147 15.678 24.5913 15.571 24.5959C15.4639 24.6005 15.36 24.633 15.2694 24.6901L13.3262 25.9151L11.679 24.2679L12.9033 22.3272C12.9606 22.2366 12.9932 22.1327 12.9979 22.0257C13.0026 21.9186 12.9793 21.8122 12.9302 21.717C12.7583 21.3833 12.6142 21.0359 12.4995 20.6785C12.4667 20.5767 12.408 20.4853 12.3291 20.4131C12.2502 20.341 12.1539 20.2906 12.0496 20.2671L9.81221 19.7601V17.431L12.0512 16.9256C12.1561 16.902 12.253 16.8513 12.3322 16.7786C12.4114 16.7058 12.4702 16.6136 12.5026 16.5111C12.6162 16.1533 12.7595 15.8056 12.931 15.4717C12.9798 15.3766 13.0028 15.2705 12.9979 15.1637C12.993 15.057 12.9604 14.9534 12.9031 14.8632ZM14.4864 18.5952C14.4864 19.801 14.9556 20.9335 15.8078 21.7864C17.5675 23.5453 20.4305 23.5453 22.1902 21.7864C23.0423 20.9335 23.5115 19.801 23.5115 18.5952C23.5115 17.3895 23.0423 16.2561 22.1902 15.404C21.3103 14.5242 20.1547 14.085 18.9989 14.085C17.8432 14.085 16.6876 14.5242 15.8078 15.404C14.9556 16.2562 14.4864 17.3895 14.4864 18.5952ZM29.4993 26.121L23.845 31.7753L23.8442 31.776C23.3773 32.2961 22.7132 32.5973 22.0006 32.5973H17.827C17.6638 32.5973 17.5072 32.5324 17.3918 32.417C17.2764 32.3015 17.2115 32.145 17.2114 31.9817C17.2114 31.9009 17.2273 31.8208 17.2582 31.7461C17.2892 31.6714 17.3345 31.6036 17.3917 31.5464C17.4488 31.4892 17.5167 31.4439 17.5914 31.413C17.6661 31.3821 17.7462 31.3662 17.827 31.3662H22.0006C22.3766 31.3662 22.7263 31.199 22.9636 30.9124C23.0067 30.8616 23.0453 30.8076 23.0792 30.7514C23.0792 30.7506 23.0799 30.7491 23.0815 30.7475C23.1959 30.5547 23.2563 30.3346 23.2563 30.1103C23.2563 29.4185 22.6932 28.8568 22.0006 28.8568H12.994C11.5125 28.8568 11.0849 29.5432 10.3083 30.7914C10.2266 30.923 10.1441 31.0543 10.061 31.1851L7.83903 34.6714L11.0926 37.9258L12.2243 36.1576C12.2792 36.0717 12.3545 36.0008 12.4435 35.9511C12.5325 35.9015 12.6325 35.8748 12.7344 35.8733L22.2185 35.7384L22.4042 35.7207C23.1955 35.6398 23.8288 35.3378 24.3928 34.7722L32.5295 26.637L31.6419 25.7495C31.2028 25.3104 30.0248 25.5955 29.4993 26.121ZM9.06446 14.7508C9.16428 14.6783 9.24004 14.5775 9.28192 14.4615C9.3238 14.3455 9.32987 14.2195 9.29936 14.1L8.8608 12.3833L10.2227 11.2541C10.3176 11.1753 10.3867 11.0699 10.421 10.9514C10.4554 10.833 10.4533 10.7069 10.4152 10.5897C10.3771 10.4724 10.3046 10.3692 10.2072 10.2936C10.1098 10.2179 9.99192 10.1733 9.86884 10.1654L8.10243 10.0526L7.44924 8.40802C7.40371 8.29337 7.32481 8.19503 7.22274 8.12574C7.12068 8.05646 7.00016 8.01942 6.8768 8.01943C6.75344 8.01943 6.63292 8.05649 6.53087 8.12579C6.42881 8.19509 6.34992 8.29344 6.30441 8.40809L5.65136 10.0526L3.88488 10.1654C3.7618 10.1733 3.64392 10.2179 3.54651 10.2936C3.4491 10.3692 3.37664 10.4724 3.33852 10.5897C3.30039 10.7069 3.29836 10.833 3.33268 10.9514C3.36699 11.0699 3.43609 11.1753 3.531 11.2541L4.89299 12.3833L4.45436 14.1C4.43116 14.1909 4.42904 14.286 4.44817 14.3779C4.46731 14.4698 4.50718 14.5561 4.56476 14.6302C4.62234 14.7043 4.69609 14.7643 4.78038 14.8056C4.86468 14.8468 4.9573 14.8683 5.05115 14.8683C5.16791 14.8683 5.28225 14.8351 5.38083 14.7725L6.87679 13.8241L8.37274 14.7725C8.47694 14.8386 8.59859 14.8719 8.72193 14.868C8.84527 14.8641 8.9646 14.8233 9.06446 14.7508ZM34.6615 10.5898C34.6234 10.4724 34.551 10.3692 34.4535 10.2935C34.3561 10.2179 34.2382 10.1732 34.1151 10.1653L32.3486 10.0525L31.6955 8.40802C31.65 8.29342 31.5712 8.19511 31.4692 8.12582C31.3671 8.05654 31.2467 8.01947 31.1234 8.01941H31.1231C30.9998 8.01945 30.8794 8.05644 30.7774 8.12561C30.6754 8.19478 30.5965 8.29294 30.5509 8.40743L29.8957 10.0526L28.1289 10.1654C28.0058 10.1733 27.8878 10.2179 27.7904 10.2936C27.693 10.3693 27.6205 10.4725 27.5824 10.5898C27.5443 10.7072 27.5423 10.8333 27.5767 10.9518C27.6111 11.0702 27.6803 11.1757 27.7753 11.2544L29.139 12.3836L28.7005 14.1C28.6773 14.1909 28.6752 14.286 28.6943 14.3779C28.7135 14.4698 28.7533 14.5561 28.8109 14.6302C28.8685 14.7043 28.9422 14.7643 29.0265 14.8056C29.1108 14.8468 29.2034 14.8683 29.2973 14.8683C29.4141 14.8683 29.5284 14.8351 29.627 14.7725L31.1228 13.8243L32.6164 14.7724C32.7206 14.8384 32.8423 14.8717 32.9656 14.8678C33.0889 14.8639 33.2082 14.8231 33.308 14.7507C33.4079 14.6782 33.4837 14.5775 33.5256 14.4614C33.5676 14.3454 33.5737 14.2195 33.5432 14.0999L33.1047 12.3835L34.4685 11.2543C34.5636 11.1756 34.6328 11.0702 34.6672 10.9517C34.7016 10.8332 34.6997 10.7071 34.6615 10.5898ZM15.2523 3.60154L16.841 4.9184L16.3285 6.91867C16.298 7.03819 16.304 7.16412 16.3459 7.28017C16.3877 7.39622 16.4634 7.49704 16.5632 7.56956C16.663 7.64209 16.7822 7.68299 16.9055 7.68696C17.0288 7.69093 17.1505 7.65779 17.2547 7.59184L18.9998 6.48612L20.7425 7.59169C20.8467 7.65769 20.9683 7.6909 21.0916 7.68702C21.2148 7.68313 21.3341 7.64232 21.4339 7.56988C21.5338 7.49744 21.6096 7.3967 21.6515 7.2807C21.6934 7.1647 21.6995 7.03879 21.6691 6.91927L21.1584 4.9187L22.7474 3.60154C22.8424 3.52281 22.9115 3.41739 22.9458 3.29894C22.9802 3.18048 22.9782 3.05444 22.9401 2.93714C22.902 2.81984 22.8295 2.71668 22.7321 2.64101C22.6347 2.56535 22.5169 2.52067 22.3938 2.51275L20.3326 2.38049L19.5725 0.463125C19.527 0.348441 19.4482 0.250056 19.3461 0.180715C19.2441 0.111374 19.1236 0.0742731 19.0002 0.0742188H19C18.8767 0.074227 18.7562 0.111249 18.6541 0.180492C18.5521 0.249735 18.4732 0.348013 18.4276 0.462605L17.6653 2.38049L15.6059 2.51275C15.4828 2.52068 15.3649 2.56537 15.2676 2.64104C15.1702 2.71671 15.0977 2.81988 15.0597 2.93717C15.0216 3.05447 15.0196 3.1805 15.0539 3.29895C15.0883 3.4174 15.1574 3.52281 15.2523 3.60154Z" fill="white"/>
</svg>
