<?xml version="1.0" encoding="utf-8"?>
<!-- Generator: Adobe Illustrator 27.5.0, SVG Export Plug-In . SVG Version: 6.00 Build 0)  -->
<svg version="1.1" id="Capa_1" xmlns="http://www.w3.org/2000/svg" xmlns:xlink="http://www.w3.org/1999/xlink" x="0px" y="0px"
	 viewBox="0 0 2404 1873" style="enable-background:new 0 0 2404 1873;" xml:space="preserve">
<g>
	<rect x="0" style="opacity:0.6;fill:#DAEDF6;" width="2403.704" height="1872.111"/>
	<path style="opacity:0.6;fill:#B4E3F6;" d="M1816.781,225.318c-357.039-79.398-701.129-72.238-1061.8-24.315
		c-194.051,25.783-426.889,61.393-526.554,256.711c-69.846,136.876,12.54,174.194,56.969,284.654
		c43.215,107.445-46.238,175.62-95.322,258.338c-52.236,88.022-85.906,224.055-47.607,322.709
		c150.309,387.181,799.705,400.621,1132.135,375.748c289.966-21.695,858.18-4.563,982.061-349.916
		c65.728-183.26-43.458-371.176-43.163-556.037c0.188-120.158,30.175-238.921-37.686-348.42
		C2094.532,313.626,1960.349,257.248,1816.781,225.318z"/>
</g>
<path style="opacity:0.6;fill:#D9D1E4;" d="M1448.146,521.28v-58.294h-22.98c-1.028-7.212-2.412-14.308-4.172-21.26l21.235-8.717
	l-22.135-53.924l-21.329,8.757c-3.9-6.602-8.127-12.983-12.716-19.085l16.309-16.31l-41.22-41.218l-16.335,16.337
	c-5.756-4.318-11.759-8.317-17.96-12.019l8.917-21.335l-53.786-22.476l-8.905,21.312c-7.335-1.896-14.841-3.356-22.468-4.439
	v-23.166h-58.294v23.166c-7.19,1.021-14.266,2.393-21.196,4.135l-8.781-21.389l-53.924,22.137l8.786,21.404
	c-6.599,3.885-12.988,8.094-19.088,12.669l-16.334-16.337l-41.22,41.218l16.31,16.31c-4.33,5.756-8.351,11.752-12.069,17.955
	l-21.258-8.885l-22.478,53.783l21.174,8.848c-1.91,7.355-3.393,14.879-4.488,22.528h-22.978v58.294h22.921
	c1.018,7.224,2.39,14.332,4.137,21.297l-21.144,8.68l22.137,53.924l21.127-8.673c3.9,6.636,8.126,13.06,12.726,19.192
	l-16.117,16.117l41.22,41.22l16.09-16.092c5.786,4.353,11.819,8.393,18.057,12.125l-8.769,20.984l53.783,22.476l8.745-20.922
	c7.388,1.913,14.948,3.393,22.632,4.483v22.733h58.294v-22.733c7.246-1.028,14.377-2.409,21.359-4.172l8.618,20.991l53.924-22.138
	l-8.643-21.05c6.639-3.918,13.055-8.166,19.189-12.778l16.09,16.092l41.22-41.22l-16.117-16.117
	c4.338-5.786,8.356-11.824,12.076-18.062l21.055,8.801l22.479-53.783l-21.063-8.803c1.898-7.37,3.356-14.911,4.434-22.573H1448.146z
	 M1221.454,618.868c-69.873,0-126.518-56.645-126.518-126.518s56.645-126.516,126.518-126.516
	c69.873,0,126.515,56.643,126.515,126.516S1291.327,618.868,1221.454,618.868z"/>
<path style="opacity:0.6;fill:#D9D1E4;" d="M745.398,890.11v-47.76h-38.19c-0.672-4.246-1.53-8.423-2.524-12.55l35.65-14.073
	l-17.538-44.424l-36.077,14.246c-3.055-5.161-6.369-10.146-9.96-14.916l27.533-27.531l-33.771-33.771l-27.792,27.79
	c-4.014-2.931-8.161-5.692-12.444-8.25l15.094-36.354l-44.107-18.314l-15.168,36.524c-4.862-1.193-9.802-2.185-14.829-2.929v-39.576
	h-47.76v39.576c-4.086,0.605-8.109,1.392-12.088,2.296l-14.53-36.806l-44.426,17.538l14.468,36.645
	c-5.141,2.951-10.111,6.167-14.878,9.649l-27.79-27.79l-33.771,33.771l27.531,27.531c-3.025,4.021-5.86,8.191-8.509,12.491
	l-35.835-14.881L355.37,812.35l35.39,14.696c-1.302,5.008-2.358,10.118-3.181,15.304h-38.19v47.76h37.73
	c0.593,4.33,1.359,8.606,2.291,12.817l-34.955,13.801l17.538,44.423l34.54-13.638c3.077,5.433,6.451,10.672,10.116,15.689
	l-26.151,26.149l33.771,33.771l25.89-25.892c4.261,3.208,8.677,6.218,13.247,8.996l-13.997,33.712l44.11,18.314l13.922-33.529
	c5.259,1.335,10.623,2.407,16.073,3.213v36.297h47.76v-36.297c4.493-0.668,8.912-1.542,13.277-2.57l13.347,33.801l44.421-17.538
	l-13.411-33.974c5.445-3.183,10.704-6.648,15.722-10.425l25.892,25.892l33.771-33.771l-26.151-26.149
	c3.107-4.251,6.008-8.665,8.698-13.218l34.265,14.226l18.316-44.107l-34.683-14.4c1.226-5.111,2.207-10.311,2.934-15.595H745.398z
	 M547.393,959.758c-51.655,0-93.528-41.873-93.528-93.528c0-51.655,41.872-93.533,93.528-93.533
	c51.655,0,93.531,41.878,93.531,93.533C640.924,917.885,599.049,959.758,547.393,959.758z"/>
<path style="opacity:0.6;fill:#989ECC;" d="M2128.629,826.685v-47.157h-18.588c-0.836-5.835-1.955-11.577-3.376-17.199l17.179-7.052
	l-17.909-43.625l-17.254,7.084c-3.156-5.341-6.576-10.502-10.286-15.437l13.191-13.196l-33.344-33.344l-13.216,13.216
	c-4.656-3.493-9.513-6.727-14.528-9.723l7.212-17.259l-43.509-18.183l-7.207,17.239c-5.934-1.53-12.007-2.714-18.176-3.589v-18.742
	h-47.157v18.742c-5.818,0.826-11.545,1.935-17.15,3.344l-7.104-17.303l-43.625,17.909l7.108,17.316
	c-5.339,3.143-10.507,6.547-15.442,10.249l-13.213-13.216l-33.346,33.344l13.193,13.196c-3.502,4.656-6.755,9.505-9.762,14.525
	l-17.197-7.19l-18.183,43.511l17.127,7.157c-1.544,5.952-2.746,12.037-3.63,18.225h-18.589v47.157h18.544
	c0.82,5.848,1.932,11.596,3.346,17.232l-17.106,7.019l17.906,43.628l17.091-7.019c3.159,5.368,6.577,10.563,10.299,15.526
	l-13.039,13.04l33.346,33.346l13.017-13.02c4.679,3.525,9.56,6.792,14.607,9.812l-7.094,16.974l43.509,18.181l7.074-16.925
	c5.978,1.547,12.093,2.748,18.312,3.628v18.388h47.157v-18.388c5.86-0.831,11.631-1.953,17.278-3.376l6.973,16.979l43.622-17.904
	l-6.989-17.034c5.368-3.168,10.561-6.604,15.521-10.336l13.018,13.02l33.344-33.346l-13.037-13.04
	c3.512-4.681,6.759-9.565,9.77-14.612l17.034,7.123l18.186-43.514l-17.039-7.123c1.535-5.956,2.714-12.061,3.586-18.26H2128.629z
	 M1945.239,905.631c-56.527,0-102.349-45.822-102.349-102.346c0-56.529,45.822-102.351,102.349-102.351
	c56.526,0,102.349,45.822,102.349,102.351C2047.588,859.809,2001.765,905.631,1945.239,905.631z"/>
<g>
	<g>
		<rect x="1129.728" y="595.579" style="opacity:0.9;fill:#647DB0;" width="144.251" height="918.653"/>
		<rect x="920.509" y="733.933" style="opacity:0.9;fill:#B389BE;" width="144.251" height="780.299"/>
		<rect x="724.791" y="882.408" style="opacity:0.9;fill:#647DB0;" width="144.251" height="631.824"/>
		<rect x="326.601" y="1169.24" style="opacity:0.9;fill:#647DB0;" width="144.251" height="344.992"/>
		<rect x="518.946" y="1020.765" style="opacity:0.9;fill:#B389BE;" width="144.251" height="493.467"/>
		<rect x="1338.943" y="728.872" style="opacity:0.9;fill:#B389BE;" width="144.251" height="780.299"/>
		<rect x="1534.664" y="877.347" style="opacity:0.9;fill:#647DB0;" width="144.249" height="631.824"/>
		<rect x="1932.851" y="1164.178" style="opacity:0.9;fill:#647DB0;" width="144.251" height="344.992"/>
		<rect x="1740.506" y="1015.703" style="opacity:0.9;fill:#B389BE;" width="144.251" height="493.467"/>
	</g>
</g>
<g>
	<g>
		<path style="fill:#4865A2;" d="M821.677,350.963c-12.263-2.039-24.11,1.088-35.051,6.584c-5.071,2.546-8.66,4.269-14.157,5.739
			c-18.556,4.968-22.721,32.708-21.27,48.699c0.798,8.786,4.352,17.472,6.814,25.869c6.473,22.059,24.488,44.421,49.601,43.311
			c16.008-0.707,32.466-9.508,42.355-22.056C874.687,427.734,868.09,358.684,821.677,350.963z"/>
		<g>
			<g>
				<g>
					<path style="fill:#EAB1B8;" d="M1027.658,790.774c-2.655-7.684-6.874-31.465,2.714-38.702
						c8.035-6.065,12.662-4.209,12.649-4.211c53.981,11.678,102.188,26.26,140.381,41.307c37.56,14.799,1.102,27.256,1.102,27.256
						C1139.579,812.84,1096.928,813.141,1027.658,790.774z"/>
				</g>
			</g>
		</g>
		<g>
			<g>
				<g>
					<path style="fill:#EAB1B8;" d="M1045.601,762.262c-25.412-77.092-42.565-80.024-64.755-114.516
						c-32.493-50.511-102.737-93.447-112.472-55.896c-4.773,18.405,126.118,167.049,146.555,196.314
						C1025.691,784.061,1033.535,769.276,1045.601,762.262z"/>
				</g>
			</g>
		</g>
		<g>
			<g>
				<path style="fill:#44A9CF;" d="M1012.201,799.071c-17.827-24.167-91.157-120.841-98.836-129.514
					c-44.74-50.511-65.854-71.677-45.837-99.462c22.679-31.475,78.199,21.32,115.364,66.744
					c24.54,29.992,36.126,46.351,68.847,107.7C1056.748,764.855,1033.528,807.022,1012.201,799.071z"/>
			</g>
		</g>
		<path style="fill:#EAB1B8;" d="M1204.539,792.197c-9.174-0.393-16.685-0.029-24.888,4.929l-0.131,0.756
			c0.944,0.247,1.893,0.499,2.845,0.751c0,0-2.953,0.141,1.11,0.292c0.289,0.074,0.576,0.148,0.865,0.223
			c-3.396,1.171-5.912,3.282-6.278,7.044c-1.208,12.363,16.738,14.666,25.363,16.633c7.006,1.597,14.342,1.878,21.502,1.898
			c3.557,0.01,17.268-0.677,19.031-4.824c2.103-4.958,3.92-16.006-0.045-18.072c-1.987-1.033-26.26-1.849-27.741-1.414
			c3.752-1.102,9.61-1.031,11.908-4.899C1230.445,791.527,1210.74,791.809,1204.539,792.197z"/>
		<g>
			<g>
				<path style="fill:#44A9CF;" d="M1175.52,785.489c-37.071-14.127-83.125-32.669-134.007-43.677
					c-13.228,6.807-3.107,4.195-11.142,10.26c-9.587,7.237-20.017,39.992-17.363,47.678
					c62.671,20.232,116.061,14.661,156.552,17.454L1175.52,785.489z"/>
			</g>
		</g>
		<g>
			<g>
				<path style="fill:#FFFFFF;" d="M1153.084,816.463c5.704,0.158,11.206,0.376,16.477,0.742l5.959-31.715
					c-5.131-1.955-10.499-3.929-16.041-5.909L1153.084,816.463z"/>
			</g>
		</g>
		<polygon style="fill:#F7D48D;" points="617.753,1002.431 617.753,1055.144 628.504,1055.144 628.504,1015.155 696.074,1015.155 
			696.074,1055.144 706.823,1055.144 706.823,1002.431 		"/>
		<path style="fill:#EAB1B8;" d="M858.733,1301.314c0,0-22.135,56.583,23.505,238.696c3.652,14.582,15.012,13.653,21.09,8.957
			c4.075-3.144,4.097-9.09,4.097-9.09s21.503-207.485,16.088-233.086C918.099,1281.186,858.733,1301.314,858.733,1301.314z"/>
		<path style="fill:#3A507B;" d="M917.452,882.458H811.69c0.01,0.469,0.022,0.939,0.025,1.394
			c0.071,20.242,0.217,40.484,0.494,60.721c0.695,51.2-0.45,38.037,2.523,89.158c2.529,43.48,34.31,241.074,38.865,251.607
			c4.626,10.692,2.427,30.123,11.633,38.205c14.644,12.862,43.282,19.673,55.578,3.613c8.307-10.85,4.56-66.489,6.068-80.315
			c1.285-11.75,1.238-23.786,1.775-34.765c2.16-44.137-0.831-88.382-1.011-132.534
			C927.388,1017.666,927.212,957.934,917.452,882.458z"/>
		<path style="fill:#374D7E;" d="M969.09,1558.69c-7.202-1.053-9.442-0.054-16.659-1.241c-7.11-1.162-14.11-3.658-20.561-6.856
			c-6.376-3.169-15.664-9.634-21.139-14.013c-0.692-0.554-1.391-1.013-2.094-1.433c-9.745,4.503-15.324,4.201-25.764-0.213
			c-0.991-0.42-1.636-1.029-1.997-1.73c-0.302,0.237-0.573,0.514-0.82,0.826c-1.673,2.14-1.968,5.096-2.36,7.686
			c-0.734,4.829-3.003,24.893-2.015,29.648c1.399,6.723,37.988,14.731,49.992,15.477c16.169,1.003,28.502,1.68,44.463-0.9
			C985.701,1583.421,981.284,1560.47,969.09,1558.69z"/>
		<g>
			<g>
				<path style="fill:#EAB1B8;" d="M775.151,452.326c4.281,9.306,21.534,18.987,23.109,9.783c0.964-5.631,0.208-17.343-4.073-26.648
					c-4.279-9.303-2.941-10.949-11.426-7.044C774.279,432.317,770.87,443.023,775.151,452.326z"/>
			</g>
		</g>
		<path style="fill:#EAB1B8;" d="M797.953,470.106c1.547-20.251,60.906,17.39,60.906,17.39l-6.354,77.253
			c0,0-0.618-3.102-29.811-2.41c-17.79,0.415-28.863,6.018-27.978-10.603C795.266,541.462,797.417,477.106,797.953,470.106z"/>
		<path style="fill:#E5958A;" d="M797.058,489.636c8.403,27.133,32.516,46.692,57.76,44.683l4.041-46.823
			c0,0-59.359-37.641-60.906-17.39c-0.166,2.143,0.218-4.192-0.68,4.664C797.634,475.207,796.861,488.991,797.058,489.636z"/>
		<path style="fill:#EAB1B8;" d="M872.188,498.549c-16.908,13.591-50.231,9.832-64.893-5.168
			c-8.868-9.073-13.866-19.204-15.875-31.258c-2.262-13.576-1.197-26.399-3.362-40.059c-0.932-5.89-1.735-11.846-1.416-17.822
			c0.504-9.557,3.947-19.004,9.768-26.813c5.722-7.682,14.708-11.584,22.728-16.53c6.792-4.184,14.399-9.349,22.415-10.749
			c5.529-0.964,9.248,2.33,13.82,5.171c24.824,15.427,37.313,50.548,38.015,78.706C893.908,454.993,889.588,484.565,872.188,498.549
			z"/>
		<path style="fill:#EAB1B8;" d="M782.422,1295.18c0,0,22.135,56.583-23.504,238.696c-3.653,14.577-15.012,13.653-21.09,8.957
			c-4.076-3.149-4.095-9.09-4.095-9.09s-10.966-211.242-5.551-236.842S782.422,1295.18,782.422,1295.18z"/>
		<path style="fill:#3A507B;" d="M727.166,882.458c-2.353,5.121-3.932,9.792-4.436,13.633c-9.09,69.075-8.962,114.937-9.214,177.318
			c-0.181,44.151,4.668,180.778,7.355,232.092c1.058,20.202,45.985,34.518,60.632,21.656c9.206-8.087,15.672-15.017,20.299-25.709
			c4.555-10.533,21.099-245.537,23.63-289.021c2.971-51.121,2.822-22.792,3.517-73.988c0.252-18.66,0.388-37.32,0.467-55.98H727.166
			z"/>
		<path style="fill:#EAB1B8;" d="M881.135,859.903c4.577-91.407,22.35-225.884,10.826-238.894
			c-20.279-22.891,8.46-5.67-6.216-24.013c-21.945-27.434-90.188-56.067-117.62-16.364c-9.3,13.46-1.199,42.686-3.393,52.767
			c-4.866,22.338-6.708,133.638-12.219,223.291L881.135,859.903z"/>
		<path style="fill:#44A9CF;" d="M869.633,548.669c-5.066-1.782-10.64-3.171-16.599-4.246c-14.197,12.835-42.323,9.705-56.41-1.246
			c-0.42-0.329-0.756-0.675-1.078-1.023c-5.306,0.289-10.697,0.668-16.171,1.144c-14.325,1.636-31.09,5.845-40.286,11.515
			c-37.674,23.232-31.698,72.606-30.902,85.889c2.118,35.293,5.472,314.518-0.91,352.639c0,0,229.023,0,229.035,0
			c3.87-3.376-5.46-312.286-8.181-357.184C924.496,576.172,898.955,558.983,869.633,548.669z"/>
		<g>
			<g>
				<g>
					<path style="fill:#EAB1B8;" d="M633.19,806.295c7.118-3.93,29.827-12.15,38.596-3.94c7.351,6.881,6.31,11.754,6.31,11.745
						c-2.286,55.184-8.418,105.169-16.722,145.371c-8.164,39.535-26.668,5.744-26.668,5.744
						C630.566,920.337,622.983,878.365,633.19,806.295z"/>
				</g>
			</g>
		</g>
		<g>
			<g>
				<g>
					<path style="fill:#EAB1B8;" d="M653.655,829.063c-3.614-0.37-21.992-7.35-20.465-22.768
						c9.557-96.519,26.732-122.858,42.809-163.91c21.898-55.924,63.956-105.55,92.394-79.164
						c25.103,23.294-39.303,73.845-66.114,157.914c-4.36,13.67-16.072,55.898-37.718,97.705
						C664.559,818.845,663.012,827.446,653.655,829.063z"/>
				</g>
			</g>
		</g>
		<g>
			<g>
				<path style="fill:#44A9CF;" d="M675.469,818.84c12.714-27.209,55.982-157.217,61.803-167.232
					c33.902-58.34,55.565-68.385,30.462-91.679c-28.438-26.386-74.218,29.063-101.214,81.178
					c-23.472,45.313-32.859,84.119-45.583,155.919C620.027,817.931,656.127,830.837,675.469,818.84z"/>
			</g>
		</g>
		<path style="fill:#374D7E;" d="M819.401,1560.944c-7.202-1.053-9.441-0.054-16.658-1.241c-7.111-1.162-14.11-3.658-20.558-6.856
			c-6.379-3.168-15.665-9.634-21.142-14.013c-0.692-0.554-1.389-1.013-2.093-1.433c-9.745,4.503-15.323,4.202-25.763-0.213
			c-0.991-0.42-1.636-1.033-1.999-1.73c-0.299,0.237-0.571,0.514-0.816,0.826c-1.675,2.14-1.969,5.096-2.363,7.686
			c-0.731,4.829-3,24.893-2.011,29.648c1.396,6.723,37.985,14.731,49.989,15.477c16.169,1.003,28.501,1.68,44.463-0.9
			C836.012,1585.675,831.596,1562.724,819.401,1560.944z"/>
		<path style="fill:#3A507B;" d="M912.682,1540.021c5.87-60.622,14.82-214.377,10.831-233.229
			c-5.413-25.605-64.779-5.477-64.779-5.477s-26.485,56.707,20.549,237.347L912.682,1540.021z"/>
		<path style="fill:#3A507B;" d="M764.083,1540.361c37.787-163.176,39.535-257.094,39.535-257.094s-83.983-31.018-81.798,16.362
			c0.919,19.92,2.842,178.227,6.727,241.538L764.083,1540.361z"/>
		<rect x="573.221" y="1051.506" style="fill:#4865A2;" width="196.314" height="172.459"/>
		<rect x="562.314" y="1051.506" style="fill:#6379AD;" width="196.314" height="172.459"/>
		<rect x="562.314" y="1051.506" style="fill:#778FC1;" width="196.314" height="78.847"/>
		<path style="fill:#EAB1B8;" d="M661.999,980.815c-1.179-9.105-2.82-16.445-9.105-23.677h-0.769
			c-0.081,0.969-0.168,1.947-0.255,2.931c0,0-0.642-2.887-0.096,1.142c-0.025,0.297-0.047,0.593-0.074,0.889
			c-1.733-3.148-4.244-5.264-8.011-4.982c-12.387,0.924-11.591,18.996-12.056,27.829c-0.378,7.177,0.601,14.454,1.799,21.512
			c1.374,8.077,7.217,11.572,13.652,16.347c2.588,0.297,18.764,1.438,17.054-5.19c-0.292-1.137-5.502-3.104-6.508-4.716
			c-4.071-6.515-1.327-13.361-1.88-20.202c2.194,3.579,2.493,10.163,6.999,11.878C667.083,1006.227,663.44,986.861,661.999,980.815z
			"/>
		<path style="fill:#F7D48D;" d="M668.197,1131.49c0,3.51-2.85,6.362-6.362,6.362h-19.995c-3.514,0-6.364-2.852-6.364-6.362l0,0
			c0-3.514,2.85-6.361,6.364-6.361h19.995C665.347,1125.129,668.197,1127.976,668.197,1131.49L668.197,1131.49z"/>
		<g>
			<g>
				<path style="fill:#44A9CF;" d="M663.652,951.078c7.587-38.937,14.206-89.316,16.359-141.328c0,0.015-0.875-0.514-8.225-7.395
					c-8.769-8.211-42.824-12.892-49.94-8.964c-9.236,65.206,5.378,116.862,9.54,157.232L663.652,951.078z"/>
			</g>
		</g>
		<g>
			<g>
				<path style="fill:#FFFFFF;" d="M629.301,934.266c0.82,5.645,1.547,11.102,2.086,16.357l32.266,0.455
					c1.05-5.388,2.078-11.013,3.082-16.811H629.301z"/>
			</g>
		</g>
		<path style="fill:#EB5161;" d="M852.708,785.954c0,0-21.822,63.954-28.373,64.241c-7.766,0.341-25.726-64.241-25.726-64.241
			l18.188-215.009h17.723L852.708,785.954z"/>
		<path style="fill:#EB5161;" d="M842.243,560.721c0,9.664-7.019,17.496-15.677,17.496c-8.657,0-15.677-7.832-15.677-17.496
			c0-9.661,7.701-19.54,16.359-19.54C835.906,541.18,842.243,551.059,842.243,560.721z"/>
		<path style="fill:#CC4554;" d="M829.292,570.579c-8.87-3.153-15.002-9.849-16.713-17.824c-1.065,2.526-1.69,5.252-1.69,7.966
			c0,9.664,7.019,17.496,15.679,17.496c5.146,0,9.698-2.778,12.555-7.051C836.156,571.931,832.884,571.855,829.292,570.579z"/>
		<path style="fill:#FFFFFF;" d="M797.711,520.731l29.538,20.449l-22.266,34.083l-33.628-31.356
			C771.354,543.906,782.259,522.095,797.711,520.731z"/>
		<path style="fill:#FFFFFF;" d="M827.248,541.18l15.449,34.083l33.628-24.085c0,0-6.362-20.449-20.449-22.72L827.248,541.18z"/>
		<path style="fill:#4865A2;" d="M894.956,336.747c-0.729-9.837-6.663-9.955-15.146-8.675c-8.258,1.246-16.411,3.695-24.901,4.071
			c-9.431,0.418-17.656-1.453-26.769-2.894c-15.739-2.491-32.014,1.542-46.336,9.029c-21.495,11.238-34.567,48.477-30.674,72.935
			c1.288,8.084,4.444,6.181,10.61,11.569c2.813,2.457,6.525,5.534,10.089,6.799c3.146,1.115,7.469-0.363,10.759-0.702
			c1.339-1.839,5.069,1.503,6.203,3.062c1.839,2.526,2.961,7.514,7.202,6.246c3.806-1.139,5.123-5.984,5.512-9.379
			c0.825-7.222-0.183-14.454,0.066-21.683c0.519-14.867,14.172-14.879,25.907-17.041c20.116-3.712,38.603-6.555,55.397-19.886
			C892.161,362.824,895.804,348.154,894.956,336.747z"/>
	</g>
	<g>
		<path style="fill:#4865A2;" d="M1613.729,351.253c12.264-2.039,24.107,1.087,35.051,6.582c5.072,2.548,8.658,4.271,14.155,5.741
			c18.556,4.968,22.724,32.706,21.272,48.699c-0.798,8.784-4.352,17.471-6.816,25.87c-6.473,22.059-24.488,44.423-49.599,43.311
			c-16.01-0.709-32.468-9.508-42.354-22.056C1560.717,428.024,1567.313,358.974,1613.729,351.253z"/>
		<g>
			<g>
				<g>
					<path style="fill:#EAB1B8;" d="M1407.746,791.063c2.654-7.684,6.873-31.465-2.714-38.702
						c-8.035-6.065-12.661-4.209-12.649-4.211c-53.981,11.678-102.186,26.26-140.379,41.307
						c-37.56,14.797-1.102,27.259-1.102,27.259C1295.827,813.126,1338.476,813.428,1407.746,791.063z"/>
				</g>
			</g>
		</g>
		<g>
			<g>
				<g>
					<path style="fill:#EAB1B8;" d="M1389.803,762.551c25.412-77.094,42.564-80.024,64.756-114.516
						c32.493-50.511,102.734-93.449,112.472-55.896c4.77,18.405-126.12,167.049-146.555,196.314
						C1409.715,784.35,1401.868,769.566,1389.803,762.551z"/>
				</g>
			</g>
		</g>
		<g>
			<g>
				<path style="fill:#F0928B;" d="M1423.203,799.36c17.83-24.167,91.16-120.841,98.839-129.514
					c44.737-50.511,65.854-71.677,45.835-99.465c-22.678-31.475-78.199,21.322-115.361,66.746
					c-24.54,29.992-36.129,46.351-68.847,107.7C1378.656,765.144,1401.876,807.313,1423.203,799.36z"/>
			</g>
		</g>
		<path style="fill:#EAB1B8;" d="M1231.55,788.27c11.806,2.251,23.542,5.375,24.203,9.144l0.131,0.756
			c-0.944,0.247-1.893,0.5-2.842,0.749c0,0,2.953,0.143-1.112,0.292c-0.287,0.076-0.576,0.151-0.863,0.225
			c3.393,1.169,5.909,3.285,6.275,7.041c1.209,12.363-16.737,14.671-25.363,16.634c-7.004,1.602-14.342,1.878-21.503,1.903
			c-8.386,0.025-22.471-9.461-20.603-19.164c1.913-9.948,14.896-2.135,16.461-10.173c0.868-4.456-11.575-11.72,1.181-11.196
			C1210.216,784.921,1220.912,786.241,1231.55,788.27z"/>
		<g>
			<g>
				<path style="fill:#F0928B;" d="M1259.886,785.779c37.068-14.127,83.125-32.671,134.004-43.677
					c13.228,6.807,3.106,4.194,11.141,10.259c9.587,7.237,20.02,39.992,17.365,47.676c-62.673,20.237-116.061,14.661-156.552,17.454
					L1259.886,785.779z"/>
			</g>
		</g>
		<g>
			<g>
				<path style="fill:#FFFFFF;" d="M1282.32,816.754c-5.702,0.153-11.204,0.371-16.475,0.737l-5.959-31.712
					c5.128-1.955,10.496-3.93,16.04-5.909L1282.32,816.754z"/>
			</g>
		</g>
		<polygon style="fill:#F7D48D;" points="1817.65,1002.718 1817.65,1055.431 1806.899,1055.431 1806.899,1015.441 1739.33,1015.441 
			1739.33,1055.431 1728.581,1055.431 1728.581,1002.718 		"/>
		<path style="fill:#EAB1B8;" d="M1576.67,1301.606c0,0,22.135,56.583-23.504,238.696c-3.653,14.577-15.01,13.653-21.087,8.957
			c-4.078-3.148-4.098-9.095-4.098-9.095s-21.505-207.485-16.09-233.086C1517.307,1281.478,1576.67,1301.606,1576.67,1301.606z"/>
		<path style="fill:#3A507B;" d="M1517.952,882.75h105.762c-0.01,0.465-0.02,0.939-0.022,1.389
			c-0.072,20.242-0.22,40.484-0.495,60.726c-0.695,51.195,0.448,38.032-2.526,89.153c-2.528,43.484-34.31,241.079-38.865,251.607
			c-4.627,10.692-2.427,30.123-11.634,38.21c-14.644,12.862-43.281,19.673-55.577,3.609c-8.309-10.85-4.558-66.485-6.068-80.31
			c-1.283-11.755-1.235-23.791-1.772-34.77c-2.16-44.137,0.831-88.377,1.008-132.529
			C1508.016,1017.957,1508.192,958.22,1517.952,882.75z"/>
		<path style="fill:#374D7E;" d="M1466.317,1558.982c7.202-1.053,9.439-0.059,16.658-1.241c7.108-1.166,14.11-3.658,20.558-6.861
			c6.377-3.164,15.664-9.635,21.139-14.014c0.692-0.554,1.391-1.013,2.096-1.428c9.745,4.498,15.324,4.197,25.761-0.218
			c0.991-0.42,1.636-1.028,1.999-1.725c0.299,0.237,0.573,0.509,0.818,0.826c1.673,2.14,1.967,5.091,2.363,7.686
			c0.732,4.825,3.001,24.893,2.012,29.644c-1.396,6.722-37.988,14.735-49.992,15.477c-16.166,1.008-28.499,1.685-44.461-0.9
			C1449.703,1583.707,1454.119,1560.761,1466.317,1558.982z"/>
		<g>
			<g>
				<path style="fill:#EAB1B8;" d="M1660.253,452.618c-4.278,9.302-21.535,18.983-23.106,9.78
					c-0.964-5.633-0.208-17.343,4.071-26.648c4.281-9.303,2.943-10.949,11.426-7.046
					C1661.125,432.606,1664.534,443.31,1660.253,452.618z"/>
			</g>
		</g>
		<path style="fill:#EAB1B8;" d="M1637.453,470.393c-1.549-20.249-60.906,17.392-60.906,17.392l6.352,77.253
			c0,0,0.618-3.102,29.812-2.412c17.79,0.418,28.865,6.02,27.978-10.601C1640.14,541.751,1637.987,477.395,1637.453,470.393z"/>
		<path style="fill:#E5958A;" d="M1638.345,489.923c-8.404,27.132-32.515,46.695-57.76,44.685l-4.039-46.823
			c0,0,59.357-37.641,60.906-17.392c0.164,2.145-0.22-4.192,0.677,4.666C1637.772,475.497,1638.543,489.281,1638.345,489.923z"/>
		<path style="fill:#EAB1B8;" d="M1563.218,498.838c16.908,13.591,50.229,9.832,64.893-5.168
			c8.868-9.073,13.863-19.204,15.875-31.26c2.261-13.574,1.193-26.396,3.361-40.056c0.932-5.892,1.735-11.846,1.416-17.822
			c-0.507-9.558-3.947-19.004-9.768-26.814c-5.722-7.682-14.71-11.584-22.731-16.53c-6.792-4.184-14.397-9.35-22.412-10.749
			c-5.531-0.964-9.251,2.331-13.821,5.171c-24.827,15.428-37.315,50.548-38.015,78.706
			C1541.496,455.282,1545.818,484.852,1563.218,498.838z"/>
		<path style="fill:#4865A2;" d="M1636.341,428.706c-8.556,6.555-15.969,15.494-25.227,21.055
			c-12.274,7.375-22.711,8.146-34.787,0.089c-11.846-7.902-22.422-9.263-34.263-7.37c0.707,19.908,5.915,44.11,21.154,56.359
			c16.908,13.591,50.229,9.832,64.893-5.168c8.868-9.073,13.863-19.204,15.875-31.26c2.256-13.549,1.201-26.351,3.349-39.984
			C1643.34,423.854,1639.734,426.106,1636.341,428.706z"/>
		<path style="fill:#EAB1B8;" d="M1652.982,1295.467c0,0-22.135,56.583,23.505,238.696c3.652,14.582,15.012,13.658,21.09,8.962
			c4.075-3.153,4.097-9.095,4.097-9.095s10.964-211.238,5.549-236.838C1701.809,1271.587,1652.982,1295.467,1652.982,1295.467z"/>
		<path style="fill:#3A507B;" d="M1708.24,882.75c2.353,5.121,3.93,9.787,4.434,13.633c9.09,69.074,8.962,114.936,9.216,177.313
			c0.18,44.152-4.669,180.778-7.358,232.093c-1.058,20.202-45.986,34.517-60.632,21.656c-9.206-8.087-15.669-15.017-20.296-25.709
			c-4.558-10.529-21.102-245.537-23.631-289.017c-2.973-51.121-2.822-22.792-3.517-73.993c-0.255-18.655-0.391-37.315-0.47-55.975
			H1708.24z"/>
		<path style="fill:#EAB1B8;" d="M1554.271,860.19c-4.577-91.405-22.352-225.884-10.827-238.892
			c20.279-22.891-8.458-5.67,6.216-24.016c21.945-27.432,90.192-56.064,117.623-16.364c9.3,13.463,1.199,42.686,3.393,52.77
			c4.864,22.338,6.705,133.639,12.219,223.289L1554.271,860.19z"/>
		<path style="fill:#F0928B;" d="M1565.774,548.959c5.064-1.782,10.638-3.171,16.596-4.246c6.952,6.285,15.44-2.828,25.788-3.243
			c10.786-0.433,23.433,7.585,30.622,1.997c0.42-0.326,0.756-0.675,1.078-1.023c5.307,0.29,10.697,0.668,16.174,1.144
			c14.323,1.634,31.089,5.845,40.286,11.515c37.671,23.233,31.697,72.607,30.899,85.889c-2.118,35.291-5.472,314.515,0.91,352.637
			c0,0-229.023,0-229.032,0c-3.871-3.372,5.457-312.284,8.178-357.182C1510.908,576.461,1536.448,559.27,1565.774,548.959z"/>
		<g>
			<g>
				<g>
					<path style="fill:#EAB1B8;" d="M1802.216,806.581c-7.12-3.929-29.829-12.148-38.598-3.935
						c-7.348,6.881-6.307,11.755-6.31,11.74c2.286,55.185,8.418,105.174,16.722,145.376c8.166,39.535,26.668,5.739,26.668,5.739
						C1804.838,920.623,1812.421,878.652,1802.216,806.581z"/>
				</g>
			</g>
		</g>
		<g>
			<g>
				<g>
					<path style="fill:#EAB1B8;" d="M1781.749,829.355c3.613-0.376,21.992-7.356,20.466-22.773
						c-9.56-96.518-26.734-122.855-42.809-163.907c-21.901-55.923-63.956-105.549-92.396-79.163
						c-25.101,23.294,39.305,73.844,66.114,157.914c4.36,13.67,16.075,55.899,37.721,97.703
						C1770.845,819.132,1772.394,827.738,1781.749,829.355z"/>
				</g>
			</g>
		</g>
		<g>
			<g>
				<path style="fill:#F0928B;" d="M1759.935,819.127c-12.714-27.207-55.98-157.215-61.801-167.232
					c-33.904-58.338-55.565-68.383-30.462-91.677c28.438-26.386,74.218,29.063,101.212,81.175
					c23.473,45.315,32.859,84.121,45.585,155.922C1815.377,818.218,1779.277,831.129,1759.935,819.127z"/>
			</g>
		</g>
		<path style="fill:#374D7E;" d="M1616.002,1561.231c7.202-1.048,9.442-0.055,16.659-1.236c7.11-1.166,14.112-3.658,20.561-6.861
			c6.376-3.169,15.664-9.634,21.139-14.014c0.693-0.554,1.391-1.013,2.096-1.428c9.743,4.498,15.321,4.197,25.763-0.218
			c0.989-0.42,1.634-1.028,1.997-1.73c0.299,0.237,0.573,0.514,0.818,0.831c1.673,2.14,1.968,5.091,2.36,7.682
			c0.734,4.829,3.003,24.893,2.014,29.648c-1.399,6.723-37.987,14.735-49.991,15.477c-16.167,1.008-28.502,1.685-44.463-0.9
			C1599.394,1585.961,1603.808,1563.015,1616.002,1561.231z"/>
		<path style="fill:#3A507B;" d="M1522.722,1540.312c-5.868-60.622-14.819-214.376-10.83-233.234
			c5.415-25.6,64.779-5.472,64.779-5.472s26.487,56.707-20.548,237.342L1522.722,1540.312z"/>
		<path style="fill:#3A507B;" d="M1671.323,1540.653c-37.79-163.176-39.537-257.094-39.537-257.094s83.983-31.018,81.798,16.356
			c-0.92,19.925-2.843,178.232-6.728,241.539L1671.323,1540.653z"/>
		<rect x="1665.868" y="1051.798" style="fill:#4865A2;" width="196.317" height="172.454"/>
		<rect x="1676.775" y="1051.798" style="fill:#6379AD;" width="196.317" height="172.454"/>
		<rect x="1676.775" y="1051.798" style="fill:#778FC1;" width="196.317" height="78.842"/>
		<path style="fill:#EAB1B8;" d="M1773.405,981.107c1.179-9.105,2.822-16.451,9.105-23.682h0.769
			c0.082,0.974,0.168,1.953,0.255,2.931c0,0,0.645-2.887,0.099,1.147c0.022,0.292,0.047,0.588,0.072,0.885
			c1.733-3.144,4.244-5.26,8.01-4.983c12.387,0.924,11.594,19.001,12.058,27.834c0.378,7.177-0.6,14.454-1.802,21.512
			c-1.374,8.072-7.217,11.572-13.653,16.347c-2.588,0.297-18.764,1.438-17.053-5.195c0.292-1.132,5.502-3.104,6.51-4.716
			c4.068-6.515,1.325-13.356,1.878-20.202c-2.192,3.584-2.494,10.163-6.999,11.883
			C1768.321,1006.519,1771.964,987.147,1773.405,981.107z"/>
		<path style="fill:#F7D48D;" d="M1767.206,1131.776c0,3.515,2.85,6.362,6.364,6.362h19.992c3.515,0,6.365-2.847,6.365-6.362l0,0
			c0-3.514-2.85-6.361-6.365-6.361h-19.992C1770.056,1125.415,1767.206,1128.262,1767.206,1131.776L1767.206,1131.776z"/>
		<g>
			<g>
				<path style="fill:#F0928B;" d="M1771.752,951.369c-7.585-38.941-14.204-89.316-16.359-141.332c0,0.015,0.878-0.509,8.225-7.39
					c8.769-8.213,42.827-12.894,49.942-8.967c9.234,65.204-5.378,116.859-9.542,157.234L1771.752,951.369z"/>
			</g>
		</g>
		<g>
			<g>
				<path style="fill:#FFFFFF;" d="M1806.104,934.553c-0.821,5.645-1.545,11.102-2.086,16.361l-32.266,0.455
					c-1.051-5.388-2.076-11.018-3.082-16.816H1806.104z"/>
			</g>
		</g>
		<path style="fill:#FFFFFF;" d="M1637.695,521.02l-29.538,20.45l22.264,34.083l33.63-31.357
			C1664.052,544.196,1653.145,522.385,1637.695,521.02z"/>
		<path style="fill:#FFFFFF;" d="M1608.158,541.47l-15.452,34.083l-33.628-24.085c0,0,6.362-20.45,20.45-22.721L1608.158,541.47z"/>
		<path style="fill:#4865A2;" d="M1540.448,337.034c0.731-9.837,6.666-9.953,15.146-8.675c8.257,1.248,16.413,3.698,24.901,4.073
			c9.434,0.415,17.657-1.453,26.769-2.894c15.741-2.491,32.016,1.54,46.336,9.029c21.497,11.236,34.567,48.477,30.674,72.935
			c-1.285,8.082-4.441,6.181-10.608,11.569c-2.812,2.457-6.527,5.534-10.091,6.797c-3.146,1.117-7.469-0.361-10.756-0.699
			c-1.342-1.838-5.072,1.503-6.206,3.062c-1.839,2.526-2.961,7.514-7.2,6.246c-3.808-1.142-5.126-5.986-5.511-9.379
			c-0.826-7.222,0.183-14.454-0.069-21.683c-0.519-14.869-14.172-14.879-25.907-17.041c-20.113-3.712-38.603-6.557-55.397-19.888
			C1543.245,363.113,1539.603,348.443,1540.448,337.034z"/>
	</g>
</g>
</svg>
