<svg width="345" height="297" viewBox="0 0 345 297" fill="none" xmlns="http://www.w3.org/2000/svg">
<rect width="345" height="297" rx="20" fill="white"/>
<path d="M9.304 243.88V243.216H10.808V249H10.072V243.88H9.304ZM13.4105 249.048C13.2718 249.048 13.1545 249 13.0585 248.904C12.9625 248.808 12.9145 248.691 12.9145 248.552C12.9145 248.413 12.9625 248.296 13.0585 248.2C13.1545 248.104 13.2718 248.056 13.4105 248.056C13.5438 248.056 13.6558 248.104 13.7465 248.2C13.8425 248.296 13.8905 248.413 13.8905 248.552C13.8905 248.691 13.8425 248.808 13.7465 248.904C13.6558 249 13.5438 249.048 13.4105 249.048ZM16.7942 245.992C16.4955 245.875 16.2662 245.704 16.1062 245.48C15.9462 245.256 15.8662 244.984 15.8662 244.664C15.8662 244.376 15.9382 244.117 16.0822 243.888C16.2262 243.653 16.4395 243.469 16.7222 243.336C17.0102 243.197 17.3569 243.128 17.7622 243.128C18.1675 243.128 18.5115 243.197 18.7942 243.336C19.0822 243.469 19.2982 243.653 19.4422 243.888C19.5915 244.117 19.6662 244.376 19.6662 244.664C19.6662 244.973 19.5835 245.245 19.4182 245.48C19.2529 245.709 19.0262 245.88 18.7382 245.992C19.0689 246.093 19.3302 246.272 19.5222 246.528C19.7195 246.779 19.8182 247.083 19.8182 247.44C19.8182 247.787 19.7329 248.091 19.5622 248.352C19.3915 248.608 19.1489 248.808 18.8342 248.952C18.5249 249.091 18.1675 249.16 17.7622 249.16C17.3569 249.16 16.9995 249.091 16.6902 248.952C16.3862 248.808 16.1489 248.608 15.9782 248.352C15.8075 248.091 15.7222 247.787 15.7222 247.44C15.7222 247.083 15.8182 246.776 16.0102 246.52C16.2022 246.264 16.4635 246.088 16.7942 245.992ZM18.9622 244.752C18.9622 244.427 18.8555 244.176 18.6422 244C18.4289 243.824 18.1355 243.736 17.7622 243.736C17.3942 243.736 17.1035 243.824 16.8902 244C16.6769 244.176 16.5702 244.429 16.5702 244.76C16.5702 245.059 16.6795 245.299 16.8982 245.48C17.1222 245.661 17.4102 245.752 17.7622 245.752C18.1195 245.752 18.4075 245.661 18.6262 245.48C18.8502 245.293 18.9622 245.051 18.9622 244.752ZM17.7622 246.312C17.3675 246.312 17.0449 246.405 16.7942 246.592C16.5435 246.773 16.4182 247.048 16.4182 247.416C16.4182 247.757 16.5382 248.032 16.7782 248.24C17.0235 248.448 17.3515 248.552 17.7622 248.552C18.1729 248.552 18.4982 248.448 18.7382 248.24C18.9782 248.032 19.0982 247.757 19.0982 247.416C19.0982 247.059 18.9755 246.787 18.7302 246.6C18.4849 246.408 18.1622 246.312 17.7622 246.312ZM21.6091 247.712V247.16L24.4171 243.272H25.2891V247.08H26.0891V247.712H25.2891V249H24.5691V247.712H21.6091ZM24.6011 244.032L22.4491 247.08H24.6011V244.032ZM31.5043 243.848H28.6963V245.672C28.819 245.501 29.0003 245.363 29.2403 245.256C29.4803 245.144 29.739 245.088 30.0163 245.088C30.459 245.088 30.819 245.181 31.0963 245.368C31.3736 245.549 31.571 245.787 31.6883 246.08C31.811 246.368 31.8723 246.675 31.8723 247C31.8723 247.384 31.8003 247.728 31.6563 248.032C31.5123 248.336 31.291 248.576 30.9923 248.752C30.699 248.928 30.3336 249.016 29.8963 249.016C29.3363 249.016 28.883 248.872 28.5363 248.584C28.1896 248.296 27.979 247.912 27.9043 247.432H28.6163C28.6856 247.736 28.8323 247.973 29.0563 248.144C29.2803 248.315 29.563 248.4 29.9043 248.4C30.3256 248.4 30.643 248.275 30.8563 248.024C31.0696 247.768 31.1763 247.432 31.1763 247.016C31.1763 246.6 31.0696 246.28 30.8563 246.056C30.643 245.827 30.3283 245.712 29.9123 245.712C29.6296 245.712 29.3816 245.781 29.1683 245.92C28.9603 246.053 28.8083 246.237 28.7123 246.472H28.0243V243.208H31.5043V243.848Z" fill="#555555"/>
<path d="M9.304 189.88V189.216H10.808V195H10.072V189.88H9.304ZM13.4105 195.048C13.2718 195.048 13.1545 195 13.0585 194.904C12.9625 194.808 12.9145 194.691 12.9145 194.552C12.9145 194.413 12.9625 194.296 13.0585 194.2C13.1545 194.104 13.2718 194.056 13.4105 194.056C13.5438 194.056 13.6558 194.104 13.7465 194.2C13.8425 194.296 13.8905 194.413 13.8905 194.552C13.8905 194.691 13.8425 194.808 13.7465 194.904C13.6558 195 13.5438 195.048 13.4105 195.048ZM16.7942 191.992C16.4955 191.875 16.2662 191.704 16.1062 191.48C15.9462 191.256 15.8662 190.984 15.8662 190.664C15.8662 190.376 15.9382 190.117 16.0822 189.888C16.2262 189.653 16.4395 189.469 16.7222 189.336C17.0102 189.197 17.3569 189.128 17.7622 189.128C18.1675 189.128 18.5115 189.197 18.7942 189.336C19.0822 189.469 19.2982 189.653 19.4422 189.888C19.5915 190.117 19.6662 190.376 19.6662 190.664C19.6662 190.973 19.5835 191.245 19.4182 191.48C19.2529 191.709 19.0262 191.88 18.7382 191.992C19.0689 192.093 19.3302 192.272 19.5222 192.528C19.7195 192.779 19.8182 193.083 19.8182 193.44C19.8182 193.787 19.7329 194.091 19.5622 194.352C19.3915 194.608 19.1489 194.808 18.8342 194.952C18.5249 195.091 18.1675 195.16 17.7622 195.16C17.3569 195.16 16.9995 195.091 16.6902 194.952C16.3862 194.808 16.1489 194.608 15.9782 194.352C15.8075 194.091 15.7222 193.787 15.7222 193.44C15.7222 193.083 15.8182 192.776 16.0102 192.52C16.2022 192.264 16.4635 192.088 16.7942 191.992ZM18.9622 190.752C18.9622 190.427 18.8555 190.176 18.6422 190C18.4289 189.824 18.1355 189.736 17.7622 189.736C17.3942 189.736 17.1035 189.824 16.8902 190C16.6769 190.176 16.5702 190.429 16.5702 190.76C16.5702 191.059 16.6795 191.299 16.8982 191.48C17.1222 191.661 17.4102 191.752 17.7622 191.752C18.1195 191.752 18.4075 191.661 18.6262 191.48C18.8502 191.293 18.9622 191.051 18.9622 190.752ZM17.7622 192.312C17.3675 192.312 17.0449 192.405 16.7942 192.592C16.5435 192.773 16.4182 193.048 16.4182 193.416C16.4182 193.757 16.5382 194.032 16.7782 194.24C17.0235 194.448 17.3515 194.552 17.7622 194.552C18.1729 194.552 18.4982 194.448 18.7382 194.24C18.9782 194.032 19.0982 193.757 19.0982 193.416C19.0982 193.059 18.9755 192.787 18.7302 192.6C18.4849 192.408 18.1622 192.312 17.7622 192.312ZM21.6091 193.712V193.16L24.4171 189.272H25.2891V193.08H26.0891V193.712H25.2891V195H24.5691V193.712H21.6091ZM24.6011 190.032L22.4491 193.08H24.6011V190.032ZM28.8723 191.992C28.5736 191.875 28.3443 191.704 28.1843 191.48C28.0243 191.256 27.9443 190.984 27.9443 190.664C27.9443 190.376 28.0163 190.117 28.1603 189.888C28.3043 189.653 28.5176 189.469 28.8003 189.336C29.0883 189.197 29.435 189.128 29.8403 189.128C30.2456 189.128 30.5896 189.197 30.8723 189.336C31.1603 189.469 31.3763 189.653 31.5203 189.888C31.6696 190.117 31.7443 190.376 31.7443 190.664C31.7443 190.973 31.6616 191.245 31.4963 191.48C31.331 191.709 31.1043 191.88 30.8163 191.992C31.147 192.093 31.4083 192.272 31.6003 192.528C31.7976 192.779 31.8963 193.083 31.8963 193.44C31.8963 193.787 31.811 194.091 31.6403 194.352C31.4696 194.608 31.227 194.808 30.9123 194.952C30.603 195.091 30.2456 195.16 29.8403 195.16C29.435 195.16 29.0776 195.091 28.7683 194.952C28.4643 194.808 28.227 194.608 28.0563 194.352C27.8856 194.091 27.8003 193.787 27.8003 193.44C27.8003 193.083 27.8963 192.776 28.0883 192.52C28.2803 192.264 28.5416 192.088 28.8723 191.992ZM31.0403 190.752C31.0403 190.427 30.9336 190.176 30.7203 190C30.507 189.824 30.2136 189.736 29.8403 189.736C29.4723 189.736 29.1816 189.824 28.9683 190C28.755 190.176 28.6483 190.429 28.6483 190.76C28.6483 191.059 28.7576 191.299 28.9763 191.48C29.2003 191.661 29.4883 191.752 29.8403 191.752C30.1976 191.752 30.4856 191.661 30.7043 191.48C30.9283 191.293 31.0403 191.051 31.0403 190.752ZM29.8403 192.312C29.4456 192.312 29.123 192.405 28.8723 192.592C28.6216 192.773 28.4963 193.048 28.4963 193.416C28.4963 193.757 28.6163 194.032 28.8563 194.24C29.1016 194.448 29.4296 194.552 29.8403 194.552C30.251 194.552 30.5763 194.448 30.8163 194.24C31.0563 194.032 31.1763 193.757 31.1763 193.416C31.1763 193.059 31.0536 192.787 30.8083 192.6C30.563 192.408 30.2403 192.312 29.8403 192.312Z" fill="#555555"/>
<path d="M9.304 135.88V135.216H10.808V141H10.072V135.88H9.304ZM13.4105 141.048C13.2718 141.048 13.1545 141 13.0585 140.904C12.9625 140.808 12.9145 140.691 12.9145 140.552C12.9145 140.413 12.9625 140.296 13.0585 140.2C13.1545 140.104 13.2718 140.056 13.4105 140.056C13.5438 140.056 13.6558 140.104 13.7465 140.2C13.8425 140.296 13.8905 140.413 13.8905 140.552C13.8905 140.691 13.8425 140.808 13.7465 140.904C13.6558 141 13.5438 141.048 13.4105 141.048ZM16.7942 137.992C16.4955 137.875 16.2662 137.704 16.1062 137.48C15.9462 137.256 15.8662 136.984 15.8662 136.664C15.8662 136.376 15.9382 136.117 16.0822 135.888C16.2262 135.653 16.4395 135.469 16.7222 135.336C17.0102 135.197 17.3569 135.128 17.7622 135.128C18.1675 135.128 18.5115 135.197 18.7942 135.336C19.0822 135.469 19.2982 135.653 19.4422 135.888C19.5915 136.117 19.6662 136.376 19.6662 136.664C19.6662 136.973 19.5835 137.245 19.4182 137.48C19.2529 137.709 19.0262 137.88 18.7382 137.992C19.0689 138.093 19.3302 138.272 19.5222 138.528C19.7195 138.779 19.8182 139.083 19.8182 139.44C19.8182 139.787 19.7329 140.091 19.5622 140.352C19.3915 140.608 19.1489 140.808 18.8342 140.952C18.5249 141.091 18.1675 141.16 17.7622 141.16C17.3569 141.16 16.9995 141.091 16.6902 140.952C16.3862 140.808 16.1489 140.608 15.9782 140.352C15.8075 140.091 15.7222 139.787 15.7222 139.44C15.7222 139.083 15.8182 138.776 16.0102 138.52C16.2022 138.264 16.4635 138.088 16.7942 137.992ZM18.9622 136.752C18.9622 136.427 18.8555 136.176 18.6422 136C18.4289 135.824 18.1355 135.736 17.7622 135.736C17.3942 135.736 17.1035 135.824 16.8902 136C16.6769 136.176 16.5702 136.429 16.5702 136.76C16.5702 137.059 16.6795 137.299 16.8982 137.48C17.1222 137.661 17.4102 137.752 17.7622 137.752C18.1195 137.752 18.4075 137.661 18.6262 137.48C18.8502 137.293 18.9622 137.051 18.9622 136.752ZM17.7622 138.312C17.3675 138.312 17.0449 138.405 16.7942 138.592C16.5435 138.773 16.4182 139.048 16.4182 139.416C16.4182 139.757 16.5382 140.032 16.7782 140.24C17.0235 140.448 17.3515 140.552 17.7622 140.552C18.1729 140.552 18.4982 140.448 18.7382 140.24C18.9782 140.032 19.0982 139.757 19.0982 139.416C19.0982 139.059 18.9755 138.787 18.7302 138.6C18.4849 138.408 18.1622 138.312 17.7622 138.312ZM25.4731 135.848H22.6651V137.672C22.7877 137.501 22.9691 137.363 23.2091 137.256C23.4491 137.144 23.7077 137.088 23.9851 137.088C24.4277 137.088 24.7877 137.181 25.0651 137.368C25.3424 137.549 25.5397 137.787 25.6571 138.08C25.7797 138.368 25.8411 138.675 25.8411 139C25.8411 139.384 25.7691 139.728 25.6251 140.032C25.4811 140.336 25.2597 140.576 24.9611 140.752C24.6677 140.928 24.3024 141.016 23.8651 141.016C23.3051 141.016 22.8517 140.872 22.5051 140.584C22.1584 140.296 21.9477 139.912 21.8731 139.432H22.5851C22.6544 139.736 22.8011 139.973 23.0251 140.144C23.2491 140.315 23.5317 140.4 23.8731 140.4C24.2944 140.4 24.6117 140.275 24.8251 140.024C25.0384 139.768 25.1451 139.432 25.1451 139.016C25.1451 138.6 25.0384 138.28 24.8251 138.056C24.6117 137.827 24.2971 137.712 23.8811 137.712C23.5984 137.712 23.3504 137.781 23.1371 137.92C22.9291 138.053 22.7771 138.237 22.6811 138.472H21.9931V135.208H25.4731V135.848ZM27.6165 135.88V135.216H29.1205V141H28.3845V135.88H27.6165Z" fill="#555555"/>
<path d="M9.304 81.88V81.216H10.808V87H10.072V81.88H9.304ZM13.4105 87.048C13.2718 87.048 13.1545 87 13.0585 86.904C12.9625 86.808 12.9145 86.6907 12.9145 86.552C12.9145 86.4133 12.9625 86.296 13.0585 86.2C13.1545 86.104 13.2718 86.056 13.4105 86.056C13.5438 86.056 13.6558 86.104 13.7465 86.2C13.8425 86.296 13.8905 86.4133 13.8905 86.552C13.8905 86.6907 13.8425 86.808 13.7465 86.904C13.6558 87 13.5438 87.048 13.4105 87.048ZM16.7942 83.992C16.4955 83.8747 16.2662 83.704 16.1062 83.48C15.9462 83.256 15.8662 82.984 15.8662 82.664C15.8662 82.376 15.9382 82.1173 16.0822 81.888C16.2262 81.6533 16.4395 81.4693 16.7222 81.336C17.0102 81.1973 17.3569 81.128 17.7622 81.128C18.1675 81.128 18.5115 81.1973 18.7942 81.336C19.0822 81.4693 19.2982 81.6533 19.4422 81.888C19.5915 82.1173 19.6662 82.376 19.6662 82.664C19.6662 82.9733 19.5835 83.2453 19.4182 83.48C19.2529 83.7093 19.0262 83.88 18.7382 83.992C19.0689 84.0933 19.3302 84.272 19.5222 84.528C19.7195 84.7787 19.8182 85.0827 19.8182 85.44C19.8182 85.7867 19.7329 86.0907 19.5622 86.352C19.3915 86.608 19.1489 86.808 18.8342 86.952C18.5249 87.0907 18.1675 87.16 17.7622 87.16C17.3569 87.16 16.9995 87.0907 16.6902 86.952C16.3862 86.808 16.1489 86.608 15.9782 86.352C15.8075 86.0907 15.7222 85.7867 15.7222 85.44C15.7222 85.0827 15.8182 84.776 16.0102 84.52C16.2022 84.264 16.4635 84.088 16.7942 83.992ZM18.9622 82.752C18.9622 82.4267 18.8555 82.176 18.6422 82C18.4289 81.824 18.1355 81.736 17.7622 81.736C17.3942 81.736 17.1035 81.824 16.8902 82C16.6769 82.176 16.5702 82.4293 16.5702 82.76C16.5702 83.0587 16.6795 83.2987 16.8982 83.48C17.1222 83.6613 17.4102 83.752 17.7622 83.752C18.1195 83.752 18.4075 83.6613 18.6262 83.48C18.8502 83.2933 18.9622 83.0507 18.9622 82.752ZM17.7622 84.312C17.3675 84.312 17.0449 84.4053 16.7942 84.592C16.5435 84.7733 16.4182 85.048 16.4182 85.416C16.4182 85.7573 16.5382 86.032 16.7782 86.24C17.0235 86.448 17.3515 86.552 17.7622 86.552C18.1729 86.552 18.4982 86.448 18.7382 86.24C18.9782 86.032 19.0982 85.7573 19.0982 85.416C19.0982 85.0587 18.9755 84.7867 18.7302 84.6C18.4849 84.408 18.1622 84.312 17.7622 84.312ZM25.4731 81.848H22.6651V83.672C22.7877 83.5013 22.9691 83.3627 23.2091 83.256C23.4491 83.144 23.7077 83.088 23.9851 83.088C24.4277 83.088 24.7877 83.1813 25.0651 83.368C25.3424 83.5493 25.5397 83.7867 25.6571 84.08C25.7797 84.368 25.8411 84.6747 25.8411 85C25.8411 85.384 25.7691 85.728 25.6251 86.032C25.4811 86.336 25.2597 86.576 24.9611 86.752C24.6677 86.928 24.3024 87.016 23.8651 87.016C23.3051 87.016 22.8517 86.872 22.5051 86.584C22.1584 86.296 21.9477 85.912 21.8731 85.432H22.5851C22.6544 85.736 22.8011 85.9733 23.0251 86.144C23.2491 86.3147 23.5317 86.4 23.8731 86.4C24.2944 86.4 24.6117 86.2747 24.8251 86.024C25.0384 85.768 25.1451 85.432 25.1451 85.016C25.1451 84.6 25.0384 84.28 24.8251 84.056C24.6117 83.8267 24.2971 83.712 23.8811 83.712C23.5984 83.712 23.3504 83.7813 23.1371 83.92C22.9291 84.0533 22.7771 84.2373 22.6811 84.472H21.9931V81.208H25.4731V81.848ZM27.6325 85.712V85.16L30.4405 81.272H31.3125V85.08H32.1125V85.712H31.3125V87H30.5925V85.712H27.6325ZM30.6245 82.032L28.4725 85.08H30.6245V82.032Z" fill="#555555"/>
<path d="M9.304 27.88V27.216H10.808V33H10.072V27.88H9.304ZM13.4105 33.048C13.2718 33.048 13.1545 33 13.0585 32.904C12.9625 32.808 12.9145 32.6907 12.9145 32.552C12.9145 32.4133 12.9625 32.296 13.0585 32.2C13.1545 32.104 13.2718 32.056 13.4105 32.056C13.5438 32.056 13.6558 32.104 13.7465 32.2C13.8425 32.296 13.8905 32.4133 13.8905 32.552C13.8905 32.6907 13.8425 32.808 13.7465 32.904C13.6558 33 13.5438 33.048 13.4105 33.048ZM16.7942 29.992C16.4955 29.8747 16.2662 29.704 16.1062 29.48C15.9462 29.256 15.8662 28.984 15.8662 28.664C15.8662 28.376 15.9382 28.1173 16.0822 27.888C16.2262 27.6533 16.4395 27.4693 16.7222 27.336C17.0102 27.1973 17.3569 27.128 17.7622 27.128C18.1675 27.128 18.5115 27.1973 18.7942 27.336C19.0822 27.4693 19.2982 27.6533 19.4422 27.888C19.5915 28.1173 19.6662 28.376 19.6662 28.664C19.6662 28.9733 19.5835 29.2453 19.4182 29.48C19.2529 29.7093 19.0262 29.88 18.7382 29.992C19.0689 30.0933 19.3302 30.272 19.5222 30.528C19.7195 30.7787 19.8182 31.0827 19.8182 31.44C19.8182 31.7867 19.7329 32.0907 19.5622 32.352C19.3915 32.608 19.1489 32.808 18.8342 32.952C18.5249 33.0907 18.1675 33.16 17.7622 33.16C17.3569 33.16 16.9995 33.0907 16.6902 32.952C16.3862 32.808 16.1489 32.608 15.9782 32.352C15.8075 32.0907 15.7222 31.7867 15.7222 31.44C15.7222 31.0827 15.8182 30.776 16.0102 30.52C16.2022 30.264 16.4635 30.088 16.7942 29.992ZM18.9622 28.752C18.9622 28.4267 18.8555 28.176 18.6422 28C18.4289 27.824 18.1355 27.736 17.7622 27.736C17.3942 27.736 17.1035 27.824 16.8902 28C16.6769 28.176 16.5702 28.4293 16.5702 28.76C16.5702 29.0587 16.6795 29.2987 16.8982 29.48C17.1222 29.6613 17.4102 29.752 17.7622 29.752C18.1195 29.752 18.4075 29.6613 18.6262 29.48C18.8502 29.2933 18.9622 29.0507 18.9622 28.752ZM17.7622 30.312C17.3675 30.312 17.0449 30.4053 16.7942 30.592C16.5435 30.7733 16.4182 31.048 16.4182 31.416C16.4182 31.7573 16.5382 32.032 16.7782 32.24C17.0235 32.448 17.3515 32.552 17.7622 32.552C18.1729 32.552 18.4982 32.448 18.7382 32.24C18.9782 32.032 19.0982 31.7573 19.0982 31.416C19.0982 31.0587 18.9755 30.7867 18.7302 30.6C18.4849 30.408 18.1622 30.312 17.7622 30.312ZM25.4731 27.848H22.6651V29.672C22.7877 29.5013 22.9691 29.3627 23.2091 29.256C23.4491 29.144 23.7077 29.088 23.9851 29.088C24.4277 29.088 24.7877 29.1813 25.0651 29.368C25.3424 29.5493 25.5397 29.7867 25.6571 30.08C25.7797 30.368 25.8411 30.6747 25.8411 31C25.8411 31.384 25.7691 31.728 25.6251 32.032C25.4811 32.336 25.2597 32.576 24.9611 32.752C24.6677 32.928 24.3024 33.016 23.8651 33.016C23.3051 33.016 22.8517 32.872 22.5051 32.584C22.1584 32.296 21.9477 31.912 21.8731 31.432H22.5851C22.6544 31.736 22.8011 31.9733 23.0251 32.144C23.2491 32.3147 23.5317 32.4 23.8731 32.4C24.2944 32.4 24.6117 32.2747 24.8251 32.024C25.0384 31.768 25.1451 31.432 25.1451 31.016C25.1451 30.6 25.0384 30.28 24.8251 30.056C24.6117 29.8267 24.2971 29.712 23.8811 29.712C23.5984 29.712 23.3504 29.7813 23.1371 29.92C22.9291 30.0533 22.7771 30.2373 22.6811 30.472H21.9931V27.208H25.4731V27.848ZM31.3685 27.784L29.1445 33H28.4085L30.6645 27.856H27.5765V27.232H31.3685V27.784Z" fill="#555555"/>
<path d="M32.36 272V271.168H34.024V277H33.104V272H32.36ZM36.1569 272V271.168H37.8209V277H36.9009V272H36.1569ZM43.5778 273.72V274.488H40.2898V273.72H43.5778ZM45.7534 274.008C45.7534 273.085 45.9081 272.365 46.2174 271.848C46.5321 271.325 47.0708 271.064 47.8334 271.064C48.5961 271.064 49.1321 271.325 49.4414 271.848C49.7561 272.365 49.9134 273.085 49.9134 274.008C49.9134 274.941 49.7561 275.672 49.4414 276.2C49.1321 276.723 48.5961 276.984 47.8334 276.984C47.0708 276.984 46.5321 276.723 46.2174 276.2C45.9081 275.672 45.7534 274.941 45.7534 274.008ZM49.0174 274.008C49.0174 273.576 48.9881 273.211 48.9294 272.912C48.8761 272.613 48.7641 272.371 48.5934 272.184C48.4228 271.992 48.1694 271.896 47.8334 271.896C47.4974 271.896 47.2441 271.992 47.0734 272.184C46.9028 272.371 46.7881 272.613 46.7294 272.912C46.6761 273.211 46.6494 273.576 46.6494 274.008C46.6494 274.456 46.6761 274.832 46.7294 275.136C46.7828 275.44 46.8948 275.685 47.0654 275.872C47.2414 276.059 47.4974 276.152 47.8334 276.152C48.1694 276.152 48.4228 276.059 48.5934 275.872C48.7694 275.685 48.8841 275.44 48.9374 275.136C48.9908 274.832 49.0174 274.456 49.0174 274.008ZM55.5744 271.872L53.3504 277H52.4304L54.6784 271.968H51.7184V271.192H55.5744V271.872ZM60.859 273.72V274.488H57.571V273.72H60.859ZM63.5387 275.76C64.0507 275.317 64.4534 274.955 64.7467 274.672C65.0454 274.384 65.2934 274.085 65.4907 273.776C65.688 273.467 65.7867 273.157 65.7867 272.848C65.7867 272.528 65.7094 272.277 65.5547 272.096C65.4054 271.915 65.168 271.824 64.8427 271.824C64.528 271.824 64.2827 271.925 64.1067 272.128C63.936 272.325 63.8454 272.592 63.8347 272.928H62.9547C62.9707 272.32 63.152 271.856 63.4987 271.536C63.8507 271.211 64.296 271.048 64.8347 271.048C65.416 271.048 65.8694 271.208 66.1947 271.528C66.5254 271.848 66.6907 272.275 66.6907 272.808C66.6907 273.192 66.592 273.563 66.3947 273.92C66.2027 274.272 65.9707 274.589 65.6987 274.872C65.432 275.149 65.0907 275.472 64.6747 275.84L64.3147 276.16H66.8507V276.92H62.9627V276.256L63.5387 275.76ZM68.6519 274.008C68.6519 273.085 68.8065 272.365 69.1159 271.848C69.4305 271.325 69.9692 271.064 70.7319 271.064C71.4945 271.064 72.0305 271.325 72.3399 271.848C72.6545 272.365 72.8119 273.085 72.8119 274.008C72.8119 274.941 72.6545 275.672 72.3399 276.2C72.0305 276.723 71.4945 276.984 70.7319 276.984C69.9692 276.984 69.4305 276.723 69.1159 276.2C68.8065 275.672 68.6519 274.941 68.6519 274.008ZM71.9159 274.008C71.9159 273.576 71.8865 273.211 71.8279 272.912C71.7745 272.613 71.6625 272.371 71.4919 272.184C71.3212 271.992 71.0679 271.896 70.7319 271.896C70.3959 271.896 70.1425 271.992 69.9719 272.184C69.8012 272.371 69.6865 272.613 69.6279 272.912C69.5745 273.211 69.5479 273.576 69.5479 274.008C69.5479 274.456 69.5745 274.832 69.6279 275.136C69.6812 275.44 69.7932 275.685 69.9639 275.872C70.1399 276.059 70.3959 276.152 70.7319 276.152C71.0679 276.152 71.3212 276.059 71.4919 275.872C71.6679 275.685 71.7825 275.44 71.8359 275.136C71.8892 274.832 71.9159 274.456 71.9159 274.008ZM75.2809 275.76C75.7929 275.317 76.1955 274.955 76.4889 274.672C76.7875 274.384 77.0355 274.085 77.2329 273.776C77.4302 273.467 77.5289 273.157 77.5289 272.848C77.5289 272.528 77.4515 272.277 77.2969 272.096C77.1475 271.915 76.9102 271.824 76.5849 271.824C76.2702 271.824 76.0249 271.925 75.8489 272.128C75.6782 272.325 75.5875 272.592 75.5769 272.928H74.6969C74.7129 272.32 74.8942 271.856 75.2409 271.536C75.5929 271.211 76.0382 271.048 76.5769 271.048C77.1582 271.048 77.6115 271.208 77.9369 271.528C78.2675 271.848 78.4329 272.275 78.4329 272.808C78.4329 273.192 78.3342 273.563 78.1369 273.92C77.9449 274.272 77.7129 274.589 77.4409 274.872C77.1742 275.149 76.8329 275.472 76.4169 275.84L76.0569 276.16H78.5929V276.92H74.7049V276.256L75.2809 275.76ZM84.1541 271.952H81.4741V273.544C81.5861 273.395 81.7514 273.269 81.9701 273.168C82.1941 273.067 82.4314 273.016 82.6821 273.016C83.1301 273.016 83.4927 273.112 83.7701 273.304C84.0527 273.496 84.2527 273.739 84.3701 274.032C84.4927 274.325 84.5541 274.635 84.5541 274.96C84.5541 275.355 84.4767 275.707 84.3221 276.016C84.1727 276.32 83.9461 276.56 83.6421 276.736C83.3434 276.912 82.9754 277 82.5381 277C81.9567 277 81.4901 276.856 81.1381 276.568C80.7861 276.28 80.5754 275.899 80.5061 275.424H81.3941C81.4527 275.675 81.5834 275.875 81.7861 276.024C81.9887 276.168 82.2421 276.24 82.5461 276.24C82.9247 276.24 83.2074 276.125 83.3941 275.896C83.5861 275.667 83.6821 275.363 83.6821 274.984C83.6821 274.6 83.5861 274.307 83.3941 274.104C83.2021 273.896 82.9194 273.792 82.5461 273.792C82.2847 273.792 82.0634 273.859 81.8821 273.992C81.7061 274.12 81.5781 274.296 81.4981 274.52H80.6341V271.152H84.1541V271.952Z" fill="black"/>
<path d="M110.36 272V271.168H112.024V277H111.104V272H110.36ZM114.165 275.784V275.096L116.853 271.24H117.957V274.992H118.701V275.784H117.957V277H117.061V275.784H114.165ZM117.101 272.168L115.213 274.992H117.101V272.168ZM123.961 273.72V274.488H120.673V273.72H123.961ZM126.136 274.008C126.136 273.085 126.291 272.365 126.6 271.848C126.915 271.325 127.454 271.064 128.216 271.064C128.979 271.064 129.515 271.325 129.824 271.848C130.139 272.365 130.296 273.085 130.296 274.008C130.296 274.941 130.139 275.672 129.824 276.2C129.515 276.723 128.979 276.984 128.216 276.984C127.454 276.984 126.915 276.723 126.6 276.2C126.291 275.672 126.136 274.941 126.136 274.008ZM129.4 274.008C129.4 273.576 129.371 273.211 129.312 272.912C129.259 272.613 129.147 272.371 128.976 272.184C128.806 271.992 128.552 271.896 128.216 271.896C127.88 271.896 127.627 271.992 127.456 272.184C127.286 272.371 127.171 272.613 127.112 272.912C127.059 273.211 127.032 273.576 127.032 274.008C127.032 274.456 127.059 274.832 127.112 275.136C127.166 275.44 127.278 275.685 127.448 275.872C127.624 276.059 127.88 276.152 128.216 276.152C128.552 276.152 128.806 276.059 128.976 275.872C129.152 275.685 129.267 275.44 129.32 275.136C129.374 274.832 129.4 274.456 129.4 274.008ZM135.957 271.872L133.733 277H132.813L135.061 271.968H132.101V271.192H135.957V271.872ZM141.242 273.72V274.488H137.954V273.72H141.242ZM143.922 275.76C144.434 275.317 144.836 274.955 145.13 274.672C145.428 274.384 145.676 274.085 145.874 273.776C146.071 273.467 146.17 273.157 146.17 272.848C146.17 272.528 146.092 272.277 145.938 272.096C145.788 271.915 145.551 271.824 145.226 271.824C144.911 271.824 144.666 271.925 144.49 272.128C144.319 272.325 144.228 272.592 144.218 272.928H143.338C143.354 272.32 143.535 271.856 143.882 271.536C144.234 271.211 144.679 271.048 145.218 271.048C145.799 271.048 146.252 271.208 146.578 271.528C146.908 271.848 147.074 272.275 147.074 272.808C147.074 273.192 146.975 273.563 146.778 273.92C146.586 274.272 146.354 274.589 146.082 274.872C145.815 275.149 145.474 275.472 145.058 275.84L144.698 276.16H147.234V276.92H143.346V276.256L143.922 275.76ZM149.035 274.008C149.035 273.085 149.189 272.365 149.499 271.848C149.813 271.325 150.352 271.064 151.115 271.064C151.877 271.064 152.413 271.325 152.723 271.848C153.037 272.365 153.195 273.085 153.195 274.008C153.195 274.941 153.037 275.672 152.723 276.2C152.413 276.723 151.877 276.984 151.115 276.984C150.352 276.984 149.813 276.723 149.499 276.2C149.189 275.672 149.035 274.941 149.035 274.008ZM152.299 274.008C152.299 273.576 152.269 273.211 152.211 272.912C152.157 272.613 152.045 272.371 151.875 272.184C151.704 271.992 151.451 271.896 151.115 271.896C150.779 271.896 150.525 271.992 150.355 272.184C150.184 272.371 150.069 272.613 150.011 272.912C149.957 273.211 149.931 273.576 149.931 274.008C149.931 274.456 149.957 274.832 150.011 275.136C150.064 275.44 150.176 275.685 150.347 275.872C150.523 276.059 150.779 276.152 151.115 276.152C151.451 276.152 151.704 276.059 151.875 275.872C152.051 275.685 152.165 275.44 152.219 275.136C152.272 274.832 152.299 274.456 152.299 274.008ZM155.664 275.76C156.176 275.317 156.578 274.955 156.872 274.672C157.17 274.384 157.418 274.085 157.616 273.776C157.813 273.467 157.912 273.157 157.912 272.848C157.912 272.528 157.834 272.277 157.68 272.096C157.53 271.915 157.293 271.824 156.968 271.824C156.653 271.824 156.408 271.925 156.232 272.128C156.061 272.325 155.97 272.592 155.96 272.928H155.08C155.096 272.32 155.277 271.856 155.624 271.536C155.976 271.211 156.421 271.048 156.96 271.048C157.541 271.048 157.994 271.208 158.32 271.528C158.65 271.848 158.816 272.275 158.816 272.808C158.816 273.192 158.717 273.563 158.52 273.92C158.328 274.272 158.096 274.589 157.824 274.872C157.557 275.149 157.216 275.472 156.8 275.84L156.44 276.16H158.976V276.92H155.088V276.256L155.664 275.76ZM164.537 271.952H161.857V273.544C161.969 273.395 162.134 273.269 162.353 273.168C162.577 273.067 162.814 273.016 163.065 273.016C163.513 273.016 163.876 273.112 164.153 273.304C164.436 273.496 164.636 273.739 164.753 274.032C164.876 274.325 164.937 274.635 164.937 274.96C164.937 275.355 164.86 275.707 164.705 276.016C164.556 276.32 164.329 276.56 164.025 276.736C163.726 276.912 163.358 277 162.921 277C162.34 277 161.873 276.856 161.521 276.568C161.169 276.28 160.958 275.899 160.889 275.424H161.777C161.836 275.675 161.966 275.875 162.169 276.024C162.372 276.168 162.625 276.24 162.929 276.24C163.308 276.24 163.59 276.125 163.777 275.896C163.969 275.667 164.065 275.363 164.065 274.984C164.065 274.6 163.969 274.307 163.777 274.104C163.585 273.896 163.302 273.792 162.929 273.792C162.668 273.792 162.446 273.859 162.265 273.992C162.089 274.12 161.961 274.296 161.881 274.52H161.017V271.152H164.537V271.952Z" fill="black"/>
<path d="M270.36 272V271.168H272.024V277H271.104V272H270.36ZM278.037 271.952H275.357V273.544C275.469 273.395 275.634 273.269 275.853 273.168C276.077 273.067 276.314 273.016 276.565 273.016C277.013 273.016 277.376 273.112 277.653 273.304C277.936 273.496 278.136 273.739 278.253 274.032C278.376 274.325 278.437 274.635 278.437 274.96C278.437 275.355 278.36 275.707 278.205 276.016C278.056 276.32 277.829 276.56 277.525 276.736C277.226 276.912 276.858 277 276.421 277C275.84 277 275.373 276.856 275.021 276.568C274.669 276.28 274.458 275.899 274.389 275.424H275.277C275.336 275.675 275.466 275.875 275.669 276.024C275.872 276.168 276.125 276.24 276.429 276.24C276.808 276.24 277.09 276.125 277.277 275.896C277.469 275.667 277.565 275.363 277.565 274.984C277.565 274.6 277.469 274.307 277.277 274.104C277.085 273.896 276.802 273.792 276.429 273.792C276.168 273.792 275.946 273.859 275.765 273.992C275.589 274.12 275.461 274.296 275.381 274.52H274.517V271.152H278.037V271.952ZM283.89 273.72V274.488H280.602V273.72H283.89ZM286.066 274.008C286.066 273.085 286.221 272.365 286.53 271.848C286.845 271.325 287.383 271.064 288.146 271.064C288.909 271.064 289.445 271.325 289.754 271.848C290.069 272.365 290.226 273.085 290.226 274.008C290.226 274.941 290.069 275.672 289.754 276.2C289.445 276.723 288.909 276.984 288.146 276.984C287.383 276.984 286.845 276.723 286.53 276.2C286.221 275.672 286.066 274.941 286.066 274.008ZM289.33 274.008C289.33 273.576 289.301 273.211 289.242 272.912C289.189 272.613 289.077 272.371 288.906 272.184C288.735 271.992 288.482 271.896 288.146 271.896C287.81 271.896 287.557 271.992 287.386 272.184C287.215 272.371 287.101 272.613 287.042 272.912C286.989 273.211 286.962 273.576 286.962 274.008C286.962 274.456 286.989 274.832 287.042 275.136C287.095 275.44 287.207 275.685 287.378 275.872C287.554 276.059 287.81 276.152 288.146 276.152C288.482 276.152 288.735 276.059 288.906 275.872C289.082 275.685 289.197 275.44 289.25 275.136C289.303 274.832 289.33 274.456 289.33 274.008ZM295.887 271.872L293.663 277H292.743L294.991 271.968H292.031V271.192H295.887V271.872ZM301.172 273.72V274.488H297.884V273.72H301.172ZM303.851 275.76C304.363 275.317 304.766 274.955 305.059 274.672C305.358 274.384 305.606 274.085 305.803 273.776C306.001 273.467 306.099 273.157 306.099 272.848C306.099 272.528 306.022 272.277 305.867 272.096C305.718 271.915 305.481 271.824 305.155 271.824C304.841 271.824 304.595 271.925 304.419 272.128C304.249 272.325 304.158 272.592 304.147 272.928H303.267C303.283 272.32 303.465 271.856 303.811 271.536C304.163 271.211 304.609 271.048 305.147 271.048C305.729 271.048 306.182 271.208 306.507 271.528C306.838 271.848 307.003 272.275 307.003 272.808C307.003 273.192 306.905 273.563 306.707 273.92C306.515 274.272 306.283 274.589 306.011 274.872C305.745 275.149 305.403 275.472 304.987 275.84L304.627 276.16H307.163V276.92H303.275V276.256L303.851 275.76ZM308.964 274.008C308.964 273.085 309.119 272.365 309.428 271.848C309.743 271.325 310.282 271.064 311.044 271.064C311.807 271.064 312.343 271.325 312.652 271.848C312.967 272.365 313.124 273.085 313.124 274.008C313.124 274.941 312.967 275.672 312.652 276.2C312.343 276.723 311.807 276.984 311.044 276.984C310.282 276.984 309.743 276.723 309.428 276.2C309.119 275.672 308.964 274.941 308.964 274.008ZM312.228 274.008C312.228 273.576 312.199 273.211 312.14 272.912C312.087 272.613 311.975 272.371 311.804 272.184C311.634 271.992 311.38 271.896 311.044 271.896C310.708 271.896 310.455 271.992 310.284 272.184C310.114 272.371 309.999 272.613 309.94 272.912C309.887 273.211 309.86 273.576 309.86 274.008C309.86 274.456 309.887 274.832 309.94 275.136C309.994 275.44 310.106 275.685 310.276 275.872C310.452 276.059 310.708 276.152 311.044 276.152C311.38 276.152 311.634 276.059 311.804 275.872C311.98 275.685 312.095 275.44 312.148 275.136C312.202 274.832 312.228 274.456 312.228 274.008ZM315.593 275.76C316.105 275.317 316.508 274.955 316.801 274.672C317.1 274.384 317.348 274.085 317.545 273.776C317.743 273.467 317.841 273.157 317.841 272.848C317.841 272.528 317.764 272.277 317.609 272.096C317.46 271.915 317.223 271.824 316.897 271.824C316.583 271.824 316.337 271.925 316.161 272.128C315.991 272.325 315.9 272.592 315.889 272.928H315.009C315.025 272.32 315.207 271.856 315.553 271.536C315.905 271.211 316.351 271.048 316.889 271.048C317.471 271.048 317.924 271.208 318.249 271.528C318.58 271.848 318.745 272.275 318.745 272.808C318.745 273.192 318.647 273.563 318.449 273.92C318.257 274.272 318.025 274.589 317.753 274.872C317.487 275.149 317.145 275.472 316.729 275.84L316.369 276.16H318.905V276.92H315.017V276.256L315.593 275.76ZM324.467 271.952H321.787V273.544C321.899 273.395 322.064 273.269 322.283 273.168C322.507 273.067 322.744 273.016 322.995 273.016C323.443 273.016 323.805 273.112 324.083 273.304C324.365 273.496 324.565 273.739 324.683 274.032C324.805 274.325 324.867 274.635 324.867 274.96C324.867 275.355 324.789 275.707 324.635 276.016C324.485 276.32 324.259 276.56 323.955 276.736C323.656 276.912 323.288 277 322.851 277C322.269 277 321.803 276.856 321.451 276.568C321.099 276.28 320.888 275.899 320.819 275.424H321.707C321.765 275.675 321.896 275.875 322.099 276.024C322.301 276.168 322.555 276.24 322.859 276.24C323.237 276.24 323.52 276.125 323.707 275.896C323.899 275.667 323.995 275.363 323.995 274.984C323.995 274.6 323.899 274.307 323.707 274.104C323.515 273.896 323.232 273.792 322.859 273.792C322.597 273.792 322.376 273.859 322.195 273.992C322.019 274.12 321.891 274.296 321.811 274.52H320.947V271.152H324.467V271.952Z" fill="black"/>
<path d="M190.36 272V271.168H192.024V277H191.104V272H190.36ZM198.037 271.952H195.357V273.544C195.469 273.395 195.634 273.269 195.853 273.168C196.077 273.067 196.314 273.016 196.565 273.016C197.013 273.016 197.376 273.112 197.653 273.304C197.936 273.496 198.136 273.739 198.253 274.032C198.376 274.325 198.437 274.635 198.437 274.96C198.437 275.355 198.36 275.707 198.205 276.016C198.056 276.32 197.829 276.56 197.525 276.736C197.226 276.912 196.858 277 196.421 277C195.84 277 195.373 276.856 195.021 276.568C194.669 276.28 194.458 275.899 194.389 275.424H195.277C195.336 275.675 195.466 275.875 195.669 276.024C195.872 276.168 196.125 276.24 196.429 276.24C196.808 276.24 197.09 276.125 197.277 275.896C197.469 275.667 197.565 275.363 197.565 274.984C197.565 274.6 197.469 274.307 197.277 274.104C197.085 273.896 196.802 273.792 196.429 273.792C196.168 273.792 195.946 273.859 195.765 273.992C195.589 274.12 195.461 274.296 195.381 274.52H194.517V271.152H198.037V271.952ZM203.89 273.72V274.488H200.602V273.72H203.89ZM206.066 274.008C206.066 273.085 206.221 272.365 206.53 271.848C206.845 271.325 207.383 271.064 208.146 271.064C208.909 271.064 209.445 271.325 209.754 271.848C210.069 272.365 210.226 273.085 210.226 274.008C210.226 274.941 210.069 275.672 209.754 276.2C209.445 276.723 208.909 276.984 208.146 276.984C207.383 276.984 206.845 276.723 206.53 276.2C206.221 275.672 206.066 274.941 206.066 274.008ZM209.33 274.008C209.33 273.576 209.301 273.211 209.242 272.912C209.189 272.613 209.077 272.371 208.906 272.184C208.735 271.992 208.482 271.896 208.146 271.896C207.81 271.896 207.557 271.992 207.386 272.184C207.215 272.371 207.101 272.613 207.042 272.912C206.989 273.211 206.962 273.576 206.962 274.008C206.962 274.456 206.989 274.832 207.042 275.136C207.095 275.44 207.207 275.685 207.378 275.872C207.554 276.059 207.81 276.152 208.146 276.152C208.482 276.152 208.735 276.059 208.906 275.872C209.082 275.685 209.197 275.44 209.25 275.136C209.303 274.832 209.33 274.456 209.33 274.008ZM215.887 271.872L213.663 277H212.743L214.991 271.968H212.031V271.192H215.887V271.872ZM221.172 273.72V274.488H217.884V273.72H221.172ZM223.851 275.76C224.363 275.317 224.766 274.955 225.059 274.672C225.358 274.384 225.606 274.085 225.803 273.776C226.001 273.467 226.099 273.157 226.099 272.848C226.099 272.528 226.022 272.277 225.867 272.096C225.718 271.915 225.481 271.824 225.155 271.824C224.841 271.824 224.595 271.925 224.419 272.128C224.249 272.325 224.158 272.592 224.147 272.928H223.267C223.283 272.32 223.465 271.856 223.811 271.536C224.163 271.211 224.609 271.048 225.147 271.048C225.729 271.048 226.182 271.208 226.507 271.528C226.838 271.848 227.003 272.275 227.003 272.808C227.003 273.192 226.905 273.563 226.707 273.92C226.515 274.272 226.283 274.589 226.011 274.872C225.745 275.149 225.403 275.472 224.987 275.84L224.627 276.16H227.163V276.92H223.275V276.256L223.851 275.76ZM228.964 274.008C228.964 273.085 229.119 272.365 229.428 271.848C229.743 271.325 230.282 271.064 231.044 271.064C231.807 271.064 232.343 271.325 232.652 271.848C232.967 272.365 233.124 273.085 233.124 274.008C233.124 274.941 232.967 275.672 232.652 276.2C232.343 276.723 231.807 276.984 231.044 276.984C230.282 276.984 229.743 276.723 229.428 276.2C229.119 275.672 228.964 274.941 228.964 274.008ZM232.228 274.008C232.228 273.576 232.199 273.211 232.14 272.912C232.087 272.613 231.975 272.371 231.804 272.184C231.634 271.992 231.38 271.896 231.044 271.896C230.708 271.896 230.455 271.992 230.284 272.184C230.114 272.371 229.999 272.613 229.94 272.912C229.887 273.211 229.86 273.576 229.86 274.008C229.86 274.456 229.887 274.832 229.94 275.136C229.994 275.44 230.106 275.685 230.276 275.872C230.452 276.059 230.708 276.152 231.044 276.152C231.38 276.152 231.634 276.059 231.804 275.872C231.98 275.685 232.095 275.44 232.148 275.136C232.202 274.832 232.228 274.456 232.228 274.008ZM235.593 275.76C236.105 275.317 236.508 274.955 236.801 274.672C237.1 274.384 237.348 274.085 237.545 273.776C237.743 273.467 237.841 273.157 237.841 272.848C237.841 272.528 237.764 272.277 237.609 272.096C237.46 271.915 237.223 271.824 236.897 271.824C236.583 271.824 236.337 271.925 236.161 272.128C235.991 272.325 235.9 272.592 235.889 272.928H235.009C235.025 272.32 235.207 271.856 235.553 271.536C235.905 271.211 236.351 271.048 236.889 271.048C237.471 271.048 237.924 271.208 238.249 271.528C238.58 271.848 238.745 272.275 238.745 272.808C238.745 273.192 238.647 273.563 238.449 273.92C238.257 274.272 238.025 274.589 237.753 274.872C237.487 275.149 237.145 275.472 236.729 275.84L236.369 276.16H238.905V276.92H235.017V276.256L235.593 275.76ZM244.467 271.952H241.787V273.544C241.899 273.395 242.064 273.269 242.283 273.168C242.507 273.067 242.744 273.016 242.995 273.016C243.443 273.016 243.805 273.112 244.083 273.304C244.365 273.496 244.565 273.739 244.683 274.032C244.805 274.325 244.867 274.635 244.867 274.96C244.867 275.355 244.789 275.707 244.635 276.016C244.485 276.32 244.259 276.56 243.955 276.736C243.656 276.912 243.288 277 242.851 277C242.269 277 241.803 276.856 241.451 276.568C241.099 276.28 240.888 275.899 240.819 275.424H241.707C241.765 275.675 241.896 275.875 242.099 276.024C242.301 276.168 242.555 276.24 242.859 276.24C243.237 276.24 243.52 276.125 243.707 275.896C243.899 275.667 243.995 275.363 243.995 274.984C243.995 274.6 243.899 274.307 243.707 274.104C243.515 273.896 243.232 273.792 242.859 273.792C242.597 273.792 242.376 273.859 242.195 273.992C242.019 274.12 241.891 274.296 241.811 274.52H240.947V271.152H244.467V271.952Z" fill="black"/>
<path d="M335 251L330 248.113L330 253.887L335 251ZM40 251L40 251.5L330.5 251.5L330.5 251L330.5 250.5L40 250.5L40 251Z" fill="black" fill-opacity="0.1"/>
<circle cx="328" cy="251" r="2" fill="#4DBF60"/>
<path d="M40 23L37.1132 28L42.8868 28L40 23ZM40 27.5L39.5 27.5L39.5 251L40 251L40.5 251L40.5 27.5L40 27.5Z" fill="black" fill-opacity="0.1"/>
<circle cx="40" cy="250" r="2" fill="#4DBF60"/>
<circle cx="40" cy="30" r="2" fill="#4DBF60"/>
<path d="M214.117 251.039L214.117 139.508" stroke="#086436" stroke-width="0.83232"/>
<path d="M40 144.914H334" stroke="#D9D9D9" stroke-width="0.83232" stroke-dasharray="4.16 4.16"/>
<path d="M40 179.914H334" stroke="#D9D9D9" stroke-width="0.83232" stroke-dasharray="4.16 4.16"/>
<path d="M40 215.914H334" stroke="#D9D9D9" stroke-width="0.83232" stroke-dasharray="4.16 4.16"/>
<path d="M40 250.914H334" stroke="#D9D9D9" stroke-width="0.83232" stroke-dasharray="4.16 4.16"/>
<path d="M40 109.914H334" stroke="#D9D9D9" stroke-width="0.83232" stroke-dasharray="4.16 4.16"/>
<path d="M40 74H334" stroke="#D9D9D9" stroke-width="0.83232" stroke-dasharray="4.16 4.16"/>
<path d="M40 39L334 39" stroke="#D9D9D9" stroke-width="0.83232" stroke-dasharray="4.16 4.16"/>
<path d="M40 201.055C40 201.055 64.8976 177.313 84.2299 174.973C103.599 172.628 112.936 191.782 132.348 189.956C148.823 188.406 155.191 172.66 171.718 172.198C183.182 171.878 188.966 180.503 200.394 179.412C214.521 178.064 218.813 160.041 232.959 161.099C249.887 162.366 249.075 192.133 266.01 193.286C276.615 194.007 281.146 183.21 291.77 183.297C300.244 183.366 304.238 190.917 312.67 189.956C323.566 188.714 336 172.198 336 172.198" stroke="url(#paint0_linear_1898_14129)" stroke-width="2.20061"/>
<path d="M40 200.055C40 200.055 51.4842 185.508 61.7564 183.325C69.9778 181.577 74.6282 186.852 83.0068 186.563C98.632 186.022 104.875 169.985 120.448 171.452C133.125 172.645 137.092 187.386 149.794 186.563C161.096 185.83 163.813 172.52 175.092 171.452C191.058 169.939 194.549 191.993 210.509 193.578C226.377 195.155 233.087 180.494 248.963 179.007C265.142 177.491 274.087 190.308 289.946 186.563C301.339 183.872 305.275 175.664 316.256 171.452C324.102 168.441 337 166.055 337 166.055" stroke="#79EFBC" stroke-width="2.20061" stroke-dasharray="6.6 6.6"/>
<path d="M186.201 134.185V135.708H182.323V134.185H186.201ZM192.254 136.05C192.254 136.382 192.162 136.682 191.979 136.948C191.801 137.215 191.541 137.428 191.197 137.589C190.853 137.75 190.439 137.836 189.957 137.847V138.513H189.44V137.831C188.797 137.77 188.275 137.575 187.876 137.248C187.476 136.921 187.257 136.471 187.218 135.9H189.182C189.199 136.127 189.285 136.283 189.44 136.366V135.55C188.958 135.417 188.575 135.295 188.292 135.184C188.014 135.073 187.762 134.89 187.534 134.635C187.313 134.379 187.202 134.033 187.202 133.594C187.202 133.233 187.301 132.923 187.501 132.662C187.701 132.396 187.97 132.19 188.309 132.046C188.647 131.902 189.024 131.821 189.44 131.805V131.131H189.957V131.805C190.617 131.849 191.138 132.035 191.521 132.362C191.904 132.684 192.115 133.131 192.154 133.702H190.165C190.142 133.492 190.073 133.35 189.957 133.278V134.085C190.151 134.141 190.242 134.168 190.231 134.168C190.647 134.296 190.989 134.424 191.255 134.551C191.527 134.673 191.76 134.857 191.954 135.101C192.154 135.345 192.254 135.661 192.254 136.05ZM189.182 133.511C189.182 133.655 189.268 133.777 189.44 133.877V133.211C189.268 133.245 189.182 133.344 189.182 133.511ZM189.957 136.441C190.173 136.396 190.281 136.28 190.281 136.091C190.281 135.947 190.173 135.825 189.957 135.725V136.441ZM192.57 133.436V131.705H195.392V137.789H193.453V133.436H192.57ZM197.143 137.856C196.821 137.856 196.563 137.77 196.369 137.598C196.175 137.426 196.078 137.209 196.078 136.948C196.078 136.682 196.175 136.463 196.369 136.291C196.563 136.113 196.821 136.025 197.143 136.025C197.459 136.025 197.715 136.113 197.909 136.291C198.103 136.463 198.2 136.682 198.2 136.948C198.2 137.209 198.103 137.426 197.909 137.598C197.715 137.77 197.459 137.856 197.143 137.856ZM198.702 136.316C199.446 135.761 200.034 135.259 200.467 134.809C200.9 134.354 201.116 133.93 201.116 133.536C201.116 133.403 201.086 133.3 201.025 133.228C200.969 133.156 200.894 133.12 200.8 133.12C200.689 133.12 200.6 133.178 200.534 133.295C200.473 133.406 200.45 133.578 200.467 133.811H198.677C198.694 133.295 198.805 132.87 199.01 132.537C199.221 132.204 199.493 131.96 199.826 131.805C200.159 131.649 200.525 131.572 200.925 131.572C201.635 131.572 202.154 131.744 202.481 132.088C202.814 132.426 202.981 132.862 202.981 133.394C202.981 133.955 202.8 134.482 202.44 134.976C202.084 135.464 201.638 135.878 201.1 136.216H203.006V137.706H198.702V136.316ZM203.45 134.66C203.45 133.7 203.653 132.945 204.058 132.396C204.468 131.846 205.098 131.572 205.947 131.572C206.79 131.572 207.417 131.849 207.828 132.404C208.239 132.953 208.444 133.705 208.444 134.66C208.444 135.619 208.239 136.377 207.828 136.932C207.417 137.481 206.79 137.756 205.947 137.756C205.098 137.756 204.468 137.481 204.058 136.932C203.653 136.377 203.45 135.619 203.45 134.66ZM206.621 134.66C206.621 134.216 206.577 133.883 206.488 133.661C206.399 133.433 206.219 133.32 205.947 133.32C205.67 133.32 205.486 133.433 205.398 133.661C205.309 133.883 205.265 134.216 205.265 134.66C205.265 135.109 205.309 135.447 205.398 135.675C205.486 135.897 205.67 136.008 205.947 136.008C206.219 136.008 206.399 135.897 206.488 135.675C206.577 135.447 206.621 135.109 206.621 134.66ZM210.809 135.891C210.836 136.052 210.886 136.174 210.958 136.258C211.036 136.335 211.142 136.374 211.275 136.374C211.48 136.374 211.613 136.271 211.674 136.066C211.741 135.855 211.774 135.52 211.774 135.059C211.674 135.214 211.53 135.336 211.341 135.425C211.153 135.514 210.939 135.558 210.7 135.558C210.173 135.558 209.749 135.392 209.427 135.059C209.105 134.726 208.944 134.246 208.944 133.619C208.944 133.203 209.03 132.842 209.202 132.537C209.38 132.226 209.63 131.988 209.951 131.821C210.279 131.655 210.659 131.572 211.092 131.572C211.968 131.572 212.576 131.83 212.914 132.346C213.258 132.862 213.43 133.597 213.43 134.551C213.43 135.65 213.261 136.474 212.923 137.023C212.59 137.573 212.027 137.847 211.233 137.847C210.795 137.847 210.417 137.756 210.101 137.573C209.785 137.39 209.541 137.151 209.369 136.857C209.202 136.557 209.108 136.235 209.086 135.891H210.809ZM211.158 134.143C211.308 134.143 211.427 134.102 211.516 134.019C211.605 133.935 211.649 133.819 211.649 133.669C211.649 133.503 211.605 133.381 211.516 133.303C211.433 133.22 211.314 133.178 211.158 133.178C211.003 133.178 210.881 133.22 210.792 133.303C210.709 133.381 210.667 133.503 210.667 133.669C210.667 133.819 210.712 133.935 210.8 134.019C210.889 134.102 211.008 134.143 211.158 134.143ZM220.909 135.808H219.669V137.082H217.896V135.808H216.656V134.119H217.896V132.837H219.669V134.119H220.909V135.808ZM223.188 135.891C223.216 136.052 223.265 136.174 223.338 136.258C223.415 136.335 223.521 136.374 223.654 136.374C223.859 136.374 223.992 136.271 224.053 136.066C224.12 135.855 224.153 135.52 224.153 135.059C224.053 135.214 223.909 135.336 223.721 135.425C223.532 135.514 223.318 135.558 223.08 135.558C222.552 135.558 222.128 135.392 221.806 135.059C221.484 134.726 221.323 134.246 221.323 133.619C221.323 133.203 221.409 132.842 221.581 132.537C221.759 132.226 222.009 131.988 222.331 131.821C222.658 131.655 223.038 131.572 223.471 131.572C224.348 131.572 224.955 131.83 225.294 132.346C225.638 132.862 225.81 133.597 225.81 134.551C225.81 135.65 225.64 136.474 225.302 137.023C224.969 137.573 224.406 137.847 223.612 137.847C223.174 137.847 222.797 137.756 222.48 137.573C222.164 137.39 221.92 137.151 221.748 136.857C221.581 136.557 221.487 136.235 221.465 135.891H223.188ZM223.537 134.143C223.687 134.143 223.807 134.102 223.895 134.019C223.984 133.935 224.028 133.819 224.028 133.669C224.028 133.503 223.984 133.381 223.895 133.303C223.812 133.22 223.693 133.178 223.537 133.178C223.382 133.178 223.26 133.22 223.171 133.303C223.088 133.381 223.046 133.503 223.046 133.669C223.046 133.819 223.091 133.935 223.179 134.019C223.268 134.102 223.388 134.143 223.537 134.143ZM227.372 137.856C227.05 137.856 226.792 137.77 226.598 137.598C226.403 137.426 226.306 137.209 226.306 136.948C226.306 136.682 226.403 136.463 226.598 136.291C226.792 136.113 227.05 136.025 227.372 136.025C227.688 136.025 227.943 136.113 228.137 136.291C228.332 136.463 228.429 136.682 228.429 136.948C228.429 137.209 228.332 137.426 228.137 137.598C227.943 137.77 227.688 137.856 227.372 137.856ZM229.131 136.874V135.334L231.611 131.796H233.6V135.275H234.2V136.874H233.6V137.789H231.736V136.874H229.131ZM231.886 133.902L230.987 135.275H231.886V133.902ZM235.798 134.443C235.576 134.316 235.402 134.149 235.274 133.944C235.152 133.733 235.091 133.483 235.091 133.195C235.091 132.895 235.171 132.623 235.332 132.379C235.493 132.135 235.737 131.941 236.065 131.796C236.398 131.647 236.806 131.572 237.288 131.572C237.771 131.572 238.176 131.647 238.503 131.796C238.836 131.941 239.083 132.135 239.244 132.379C239.405 132.623 239.486 132.895 239.486 133.195C239.486 133.483 239.422 133.733 239.294 133.944C239.172 134.149 239 134.316 238.778 134.443C239.339 134.771 239.619 135.262 239.619 135.916C239.619 136.338 239.513 136.696 239.303 136.99C239.092 137.284 238.809 137.506 238.454 137.656C238.098 137.806 237.71 137.881 237.288 137.881C236.867 137.881 236.478 137.806 236.123 137.656C235.768 137.506 235.485 137.284 235.274 136.99C235.063 136.696 234.958 136.338 234.958 135.916C234.958 135.262 235.238 134.771 235.798 134.443ZM237.671 133.503C237.671 133.347 237.635 133.225 237.563 133.136C237.491 133.042 237.399 132.995 237.288 132.995C237.177 132.995 237.086 133.042 237.014 133.136C236.941 133.225 236.905 133.347 236.905 133.503C236.905 133.664 236.941 133.786 237.014 133.869C237.086 133.952 237.177 133.994 237.288 133.994C237.399 133.994 237.491 133.952 237.563 133.869C237.635 133.786 237.671 133.664 237.671 133.503ZM237.288 135.234C237.122 135.234 236.989 135.289 236.889 135.4C236.794 135.506 236.747 135.642 236.747 135.808C236.747 135.975 236.794 136.111 236.889 136.216C236.983 136.321 237.116 136.374 237.288 136.374C237.46 136.374 237.593 136.321 237.688 136.216C237.782 136.111 237.829 135.975 237.829 135.808C237.829 135.642 237.779 135.506 237.679 135.4C237.585 135.289 237.455 135.234 237.288 135.234ZM241.269 134.443C241.047 134.316 240.872 134.149 240.744 133.944C240.622 133.733 240.561 133.483 240.561 133.195C240.561 132.895 240.642 132.623 240.803 132.379C240.963 132.135 241.208 131.941 241.535 131.796C241.868 131.647 242.276 131.572 242.759 131.572C243.241 131.572 243.646 131.647 243.974 131.796C244.307 131.941 244.554 132.135 244.714 132.379C244.875 132.623 244.956 132.895 244.956 133.195C244.956 133.483 244.892 133.733 244.764 133.944C244.642 134.149 244.47 134.316 244.248 134.443C244.809 134.771 245.089 135.262 245.089 135.916C245.089 136.338 244.984 136.696 244.773 136.99C244.562 137.284 244.279 137.506 243.924 137.656C243.569 137.806 243.18 137.881 242.759 137.881C242.337 137.881 241.948 137.806 241.593 137.656C241.238 137.506 240.955 137.284 240.744 136.99C240.533 136.696 240.428 136.338 240.428 135.916C240.428 135.262 240.708 134.771 241.269 134.443ZM243.141 133.503C243.141 133.347 243.105 133.225 243.033 133.136C242.961 133.042 242.87 132.995 242.759 132.995C242.648 132.995 242.556 133.042 242.484 133.136C242.412 133.225 242.376 133.347 242.376 133.503C242.376 133.664 242.412 133.786 242.484 133.869C242.556 133.952 242.648 133.994 242.759 133.994C242.87 133.994 242.961 133.952 243.033 133.869C243.105 133.786 243.141 133.664 243.141 133.503ZM242.759 135.234C242.592 135.234 242.459 135.289 242.359 135.4C242.265 135.506 242.218 135.642 242.218 135.808C242.218 135.975 242.265 136.111 242.359 136.216C242.453 136.321 242.587 136.374 242.759 136.374C242.931 136.374 243.064 136.321 243.158 136.216C243.252 136.111 243.3 135.975 243.3 135.808C243.3 135.642 243.25 135.506 243.15 135.4C243.055 135.289 242.925 135.234 242.759 135.234Z" fill="#28A745"/>
<defs>
<linearGradient id="paint0_linear_1898_14129" x1="45.3493" y1="194.502" x2="340.339" y2="170.847" gradientUnits="userSpaceOnUse">
<stop stop-color="#2FB574"/>
<stop offset="0.530025" stop-color="#163D2A"/>
<stop offset="1" stop-color="#79EFBC"/>
</linearGradient>
</defs>
</svg>
