<svg width="477" height="347" viewBox="0 0 477 347" fill="none" xmlns="http://www.w3.org/2000/svg">
<path d="M341.9 33.2998C341.9 31.5998 340.6 30.2998 338.9 30.2998H132.1C130.4 30.2998 129.1 31.5998 129.1 33.2998V40.1998H341.9V33.2998Z" fill="#7AAB48"/>
<path d="M129.1 40.1997V175.2C129.1 176.9 130.4 178.2 132.1 178.2H338.9C340.6 178.2 341.9 176.9 341.9 175.2V40.1997H129.1Z" fill="#9AD75B"/>
<path d="M175 111.4L174.7 110.9L196.4 98.3996L218 94.9996L239.7 84.7996L261.3 79.3996L282.9 63.5996L283.3 63.9996L261.5 79.8996L239.8 85.2996L218.2 95.4996L196.6 98.9996L175 111.4Z" fill="white"/>
<path d="M176.5 111.2C176.5 112.2 175.7 112.9 174.8 112.9C173.8 112.9 173.1 112.1 173.1 111.2C173.1 110.3 173.9 109.5 174.8 109.5C175.8 109.5 176.5 110.2 176.5 111.2Z" fill="white"/>
<path d="M198.2 98.6995C198.2 99.6995 197.4 100.4 196.5 100.4C195.5 100.4 194.8 99.5995 194.8 98.6995C194.8 97.6995 195.6 96.9995 196.5 96.9995C197.4 96.9995 198.2 97.7995 198.2 98.6995Z" fill="white"/>
<path d="M219.8 95.2996C219.8 96.2996 219 96.9996 218.1 96.9996C217.2 96.9996 216.4 96.1996 216.4 95.2996C216.4 94.2996 217.2 93.5996 218.1 93.5996C219 93.5996 219.8 94.2996 219.8 95.2996Z" fill="white"/>
<path d="M241.5 84.9998C241.5 85.9998 240.7 86.6998 239.8 86.6998C238.8 86.6998 238.1 85.8998 238.1 84.9998C238.1 83.9998 238.9 83.2998 239.8 83.2998C240.7 83.2998 241.5 84.0998 241.5 84.9998Z" fill="white"/>
<path d="M263.2 79.5994C263.2 80.5994 262.4 81.2994 261.5 81.2994C260.5 81.2994 259.8 80.4994 259.8 79.5994C259.8 78.6994 260.6 77.8994 261.5 77.8994C262.4 77.8994 263.2 78.6994 263.2 79.5994Z" fill="white"/>
<path d="M284.8 63.7996C284.8 64.7996 284 65.4996 283.1 65.4996C282.2 65.4996 281.4 64.6996 281.4 63.7996C281.4 62.7996 282.2 62.0996 283.1 62.0996C284 62.0996 284.8 62.8996 284.8 63.7996Z" fill="white"/>
<path d="M294.8 118H167.8V53.0996H168.3V117.5H294.8V118Z" fill="white"/>
<path d="M310 68.4997L304.4 58.6997L298.7 68.4997H301.6V81.6997H307.2V68.4997H310Z" fill="white"/>
<path d="M235.5 130.1H167.8V133.2H235.5V130.1Z" fill="white"/>
<path d="M235.5 137H167.8V140.1H235.5V137Z" fill="white"/>
<path d="M235.5 144H167.8V147.1H235.5V144Z" fill="white"/>
<path d="M206.6 150.899H167.8V153.999H206.6V150.899Z" fill="white"/>
<path d="M279.5 136.2C281.1 137.1 282.3 138.6 282.7 140.4L290.6 139C289.7 134.6 286.8 130.9 282.9 128.9L279.5 136.2Z" fill="white"/>
<path d="M279.3 148C278.4 148.5 277.3 148.8 276.2 148.8C272.5 148.8 269.5 145.8 269.5 142.1C269.5 138.4 272.5 135.4 276.2 135.4C277.1 135.4 278 135.6 278.7 135.9L282.2 128.6C280.4 127.8 278.3 127.3 276.1 127.3C267.9 127.3 261.3 133.9 261.3 142.1C261.3 150.3 267.9 156.9 276.1 156.9C278.7 156.9 281.2 156.2 283.3 155L279.3 148Z" fill="white"/>
<path d="M282.8 141.3C282.8 141.6 282.9 141.8 282.9 142.1C282.9 144.4 281.7 146.4 280 147.6L284.1 154.5C288.2 151.9 291 147.3 291 142C291 141.2 290.9 140.5 290.8 139.7L282.8 141.3Z" fill="white"/>
<path d="M37.9999 247.9C37.9999 247.9 43.7999 226.6 47.1999 220.3C52.7999 247.5 52.9999 258.3 47.1999 276.3C47.1999 276.3 37.4999 262.7 37.9999 247.9Z" fill="#76B55C"/>
<path d="M38 247.9C38 247.9 38.6 260.9 49.4 272.8C49.4 272.8 49.7 284 46.6 293.6C43.5 303.2 42.3 308.6 42.3 308.6H39.3C39.3 308.6 35.5 289 34.9 274.1C34.2 259.2 38 247.9 38 247.9Z" fill="#38662E"/>
<path d="M51 294.7C51 294.7 70.1 278.8 73.1 262.2C76.1 245.6 75.1999 229.8 75.1999 229.8C75.1999 229.8 62.2 239.9 57 247.1C51.8 254.3 48.8 280.6 51 294.7Z" fill="#76B55C"/>
<path d="M48.3 309C48.3 309 52.6 303.9 54.1 296.9C55.6 290 52.1 270.8 53.7 261.6C55.2 252.3 57 247.1 57 247.1C57 247.1 51.9 253.9 48.3 263.3C43.9 275.1 41.6 283.8 42 293.2C42.4 302.6 45.2 309.1 45.2 309.1H48.3V309Z" fill="#3D7033"/>
<path d="M31 308.6C31 308.6 32.9 297.8 25.8 287.1C18.7 276.3 5 272.5 0 271.7C3.5 279.7 7.7 285.6 16.1 292.7C24.5 299.8 27 299.9 28.5 308.7H31V308.6Z" fill="#3D7033"/>
<path d="M30.6 309C30.6 309 30.2 295.9 26.2 290.4C22.2 284.9 14.1 275.8 12.5 258.2C11 240.6 16.1 227.5 16.1 227.5C16.1 227.5 29.8 237.5 34.9 255.8C40 274.1 39.6 295.5 34.9 309H30.6Z" fill="#76B55C"/>
<path d="M32.7 309C32.7 309 34.2 301.6 33.2 292.5C32.2 283.4 25.8 273.3 22.2 270.5C21.2 281.6 23.3 287.8 24.8 293.6C26.3 299.4 29.8 302.7 29.5 309H32.7Z" fill="#4B8C3F"/>
<path d="M40 283.1C40 283.1 42.7 276 47.4 269.2C47.4 269.2 50.2 286.8 49.3 293.3C48.4 299.8 43.8 302.3 42.6 305.6C42.5 305.6 37.5 295.2 40 283.1Z" fill="#76B55C"/>
<path d="M23.3999 302.1C23.3999 302.1 27.2999 303 27.2999 309.4H30.5999C30.5999 309.4 30.7999 307 29.9999 304.9C29.9999 304.9 27.7999 302 23.3999 302.1Z" fill="#3D7033"/>
<path d="M29.9999 304.9C29.9999 304.9 29.0999 303.6 24.2999 303C19.4999 302.5 12.8999 300.8 11.3999 293.6C16.5999 293.6 25.5999 295.2 29.9999 304.9Z" fill="#76B55C"/>
<path d="M54.4 299.7C54.4 299.7 49.2 300.9 49.2 309.4H44.8C44.8 309.4 44.6 306.2 45.6 303.4C45.7 303.4 48.5 299.6 54.4 299.7Z" fill="#4B8C3F"/>
<path d="M45.7 303.4C45.7 303.4 46.8999 301.6 53.1999 300.9C59.4999 300.2 68.3 298 70.3 288.4C63.4 288.4 51.4 290.6 45.7 303.4Z" fill="#76B55C"/>
<path d="M40.0001 283.1C40.0001 283.1 37.0001 289.2 36.6001 299C36.4001 305.3 38.5001 309.3 38.5001 309.3H41.2001C41.2001 309.3 42.1001 307.8 43.1001 304.4C41.1001 298.4 40.2001 296.3 40.0001 283.1Z" fill="#4B8C3F"/>
<path d="M54.8001 342.9C54.6001 344.7 53.0001 346.2 51.2001 346.2H23.6001C21.8001 346.2 20.2001 344.7 20.0001 342.9L17.3001 310.1C17.2001 308.3 18.5001 306.8 20.3001 306.8H54.5001C56.3001 306.8 57.7001 308.3 57.5001 310.1L54.8001 342.9Z" fill="#A4A7B0"/>
<path d="M56.1001 327.6L56.2001 326.1H18.6001L18.7001 327.6H56.1001Z" fill="#85888F"/>
<path d="M18.1001 320.4L18.3001 321.9H56.5001L56.7001 320.4H18.1001Z" fill="#85888F"/>
<path d="M55.2001 337.5H19.6001L19.7001 339H55.1001L55.2001 337.5Z" fill="#85888F"/>
<path d="M55.7001 331.8H19.1001L19.2001 333.3H55.6001L55.7001 331.8Z" fill="#85888F"/>
<path d="M17.8002 316.2H57.0002L57.1002 314.7H17.7002L17.8002 316.2Z" fill="#85888F"/>
<path d="M438.9 247.9C438.9 247.9 444.7 226.6 448.1 220.3C453.7 247.5 453.9 258.3 448.1 276.3C448.1 276.3 438.4 262.7 438.9 247.9Z" fill="#76B55C"/>
<path d="M438.9 247.9C438.9 247.9 439.5 260.9 450.3 272.8C450.3 272.8 450.6 284 447.5 293.6C444.4 303.2 443.2 308.6 443.2 308.6H440.2C440.2 308.6 436.4 289 435.8 274.1C435.1 259.2 438.9 247.9 438.9 247.9Z" fill="#38662E"/>
<path d="M451.8 294.7C451.8 294.7 470.9 278.8 473.9 262.2C476.9 245.6 476 229.8 476 229.8C476 229.8 463 239.9 457.8 247.1C452.7 254.3 449.7 280.6 451.8 294.7Z" fill="#76B55C"/>
<path d="M449.2 309C449.2 309 453.5 303.9 455 296.9C456.5 290 453 270.8 454.6 261.6C456.1 252.3 457.9 247.1 457.9 247.1C457.9 247.1 452.8 253.9 449.2 263.3C444.8 275.1 442.5 283.8 442.9 293.2C443.3 302.6 446.1 309.1 446.1 309.1H449.2V309Z" fill="#3D7033"/>
<path d="M431.9 308.6C431.9 308.6 433.8 297.8 426.7 287.1C419.6 276.3 405.9 272.5 400.9 271.7C404.4 279.7 408.6 285.6 417 292.7C425.4 299.8 427.9 299.9 429.4 308.7H431.9V308.6Z" fill="#3D7033"/>
<path d="M431.5 309C431.5 309 431.1 295.9 427.1 290.4C423.1 284.9 415 275.8 413.4 258.2C411.9 240.6 417 227.5 417 227.5C417 227.5 430.7 237.5 435.8 255.8C440.9 274.1 440.5 295.5 435.8 309H431.5Z" fill="#76B55C"/>
<path d="M433.6 309C433.6 309 435.1 301.6 434.1 292.5C433.1 283.4 426.7 273.3 423.1 270.5C422.1 281.6 424.2 287.8 425.7 293.6C427.2 299.4 430.7 302.7 430.4 309H433.6Z" fill="#4B8C3F"/>
<path d="M440.9 283.1C440.9 283.1 443.6 276 448.3 269.2C448.3 269.2 451.1 286.8 450.2 293.3C449.3 299.8 444.7 302.3 443.5 305.6C443.4 305.6 438.4 295.2 440.9 283.1Z" fill="#76B55C"/>
<path d="M424.3 302.1C424.3 302.1 428.2 303 428.2 309.4H431.5C431.5 309.4 431.7 307 430.9 304.9C430.8 304.9 428.7 302 424.3 302.1Z" fill="#3D7033"/>
<path d="M430.8 304.9C430.8 304.9 429.9 303.6 425.1 303C420.3 302.5 413.7 300.8 412.2 293.6C417.5 293.6 426.5 295.2 430.8 304.9Z" fill="#76B55C"/>
<path d="M455.3 299.7C455.3 299.7 450.1 300.9 450.1 309.4H445.7C445.7 309.4 445.5 306.2 446.5 303.4C446.6 303.4 449.4 299.6 455.3 299.7Z" fill="#4B8C3F"/>
<path d="M446.6 303.4C446.6 303.4 447.8 301.6 454.1 300.9C460.4 300.2 469.2 298 471.2 288.4C464.3 288.4 452.3 290.6 446.6 303.4Z" fill="#76B55C"/>
<path d="M440.9 283.1C440.9 283.1 437.9 289.2 437.5 299C437.3 305.3 439.4 309.3 439.4 309.3H442.1C442.1 309.3 443 307.8 444 304.4C442 298.4 441.1 296.3 440.9 283.1Z" fill="#4B8C3F"/>
<path d="M455.7 342.9C455.5 344.7 453.9 346.2 452.1 346.2H424.5C422.7 346.2 421.1 344.7 420.9 342.9L418.2 310.1C418.1 308.3 419.4 306.8 421.2 306.8H455.4C457.2 306.8 458.6 308.3 458.4 310.1L455.7 342.9Z" fill="#A4A7B0"/>
<path d="M457 327.6L457.1 326.1H419.5L419.6 327.6H457Z" fill="#85888F"/>
<path d="M419 320.4L419.2 321.9H457.4L457.6 320.4H419Z" fill="#85888F"/>
<path d="M456.1 337.5H420.4L420.6 339H456L456.1 337.5Z" fill="#85888F"/>
<path d="M456.6 331.8H420L420.1 333.3H456.5L456.6 331.8Z" fill="#85888F"/>
<path d="M418.7 316.2H457.9L458 314.7H418.6L418.7 316.2Z" fill="#85888F"/>
<path d="M322.9 35.3001C322.9 36.4001 322 37.3001 320.9 37.3001C319.8 37.3001 318.9 36.4001 318.9 35.3001C318.9 34.2001 319.8 33.3001 320.9 33.3001C322 33.2001 322.9 34.1001 322.9 35.3001Z" fill="white"/>
<path d="M330.6 35.3001C330.6 36.4001 329.7 37.3001 328.6 37.3001C327.5 37.3001 326.6 36.4001 326.6 35.3001C326.6 34.2001 327.5 33.3001 328.6 33.3001C329.7 33.2001 330.6 34.1001 330.6 35.3001Z" fill="white"/>
<path d="M338.4 35.3001C338.4 36.4001 337.5 37.3001 336.4 37.3001C335.3 37.3001 334.4 36.4001 334.4 35.3001C334.4 34.2001 335.3 33.3001 336.4 33.3001C337.5 33.2001 338.4 34.1001 338.4 35.3001Z" fill="white"/>
<path d="M330.4 318.9C330.4 318.9 329.7 328.8 328.9 330.4C328.4 331.4 326 333.7 323.7 334.8C321.4 336 311.6 340.8 310.6 341.4C309.6 342 308.1 344.9 308.1 344.9H339.4C339.4 344.9 338.4 337.1 338.1 334.5C337.9 331.8 339.7 318.9 339.7 318.9H330.4Z" fill="url(#paint0_linear_279_2055)"/>
<path d="M321.3 344.1L339.4 337.5C339.4 337.5 341.1 341 340.3 346.1H321.3V344.1Z" fill="#F7D430"/>
<path d="M318.4 336.1C318.4 336.1 323.5 340.6 325.4 346.2H305C305 346.2 305.9 342.6 308 341.4C310.2 340.1 318.4 336.1 318.4 336.1Z" fill="#2F375E"/>
<path d="M386.8 318.9C386.8 318.9 388.6 329.5 388 330.4C387.3 331.3 386.4 333.7 384.1 334.8C381.8 336 372 340.8 371 341.4C370 342 368.5 344.9 368.5 344.9H399.8C399.8 344.9 398.8 337.1 398.5 334.5C398.3 331.8 396.9 318.9 396.9 318.9H386.8Z" fill="url(#paint1_linear_279_2055)"/>
<path d="M381.7 344.1L399.8 337.5C399.8 337.5 401.5 341 400.7 346.1H381.7V344.1Z" fill="#F7D430"/>
<path d="M378.8 336.1C378.8 336.1 383.9 340.6 385.8 346.2H365.5C365.5 346.2 366.4 342.6 368.5 341.4C370.6 340.1 378.8 336.1 378.8 336.1Z" fill="#2F375E"/>
<path d="M396.9 59.6001C395.8 67.4001 398.7 74.7001 405.4 83.1001C412.2 91.5001 415.2 104.4 404.4 114.8C393.6 125.2 379.6 126.3 368.6 121.1C357.5 115.9 342.4 95.1001 357.5 78.4001C372.5 61.7001 396.9 59.6001 396.9 59.6001Z" fill="#2C3044"/>
<path d="M340 184.5C340 184.5 336.7 249 336.4 257.8C336 266.6 330.3 308 330.3 308L328.3 321.8C328.3 321.8 331.9 323.1 344.8 322.5L343.6 309C343.6 309 353.7 286.1 355.5 275.7C357.3 265.3 356.1 256.6 356.1 256.6C356.1 256.6 370.6 217.9 372 213.5C373.4 209.1 381 197.1 378.7 187.2L343.4 176.2L340 184.5Z" fill="#454C6B"/>
<path d="M357.4 191.4C357.4 191.4 372.7 249.8 374.9 258.3C377.1 266.8 383.9 308.1 383.9 308.1L382.1 323.1C382.1 323.1 389.1 326.2 400 323.1L396.9 305.1C396.9 305.1 399.8 280.2 398.4 269.7C397 259.2 393.3 251.3 393.3 251.3C393.3 251.3 395.7 210 395.7 205.4C395.7 200.8 399.5 187 394.3 178.3H357.4V191.4Z" fill="#545C82"/>
<path d="M293.7 91.9003C293.7 91.9003 290.2 91.5003 289.2 91.3003C288.3 91.0003 282.7 88.6003 282.1 88.4003C281.5 88.2003 280.5 88.4003 280.4 89.2003C280.4 90.0003 281.2 97.2003 281.5 98.6003C281.8 100 287.5 101.7 288.4 101.8C289.3 101.9 296.1 103.2 296.1 103.2L293.7 91.9003Z" fill="url(#paint2_linear_279_2055)"/>
<path d="M325.4 122.1C325.4 122.1 306 101.3 304.8 99.3002C304.8 99.3002 304.8 99.3001 304.8 99.2001V99.1001C300.5 92.0001 296.7 90.1001 296.1 89.0001C295.5 87.9001 294.9 87.4001 294 86.7001C293.1 86.0001 290.8 83.9001 290.6 83.5001C290.4 83.2001 288.7 84.2001 289.9 85.9001C291.2 87.7001 291.9 88.1001 291.9 88.1001C291.9 88.1001 292.2 89.7002 292.3 90.3002C292.4 90.9002 291.4 93.4002 292 96.0001C292.7 98.6001 292.7 101.8 295.6 102.7C296 102.8 296.4 102.9 296.8 103C297.8 103.2 299 104 299.8 105.2C303.1 109.6 320.4 133.4 320.4 133.4L325.4 122.1Z" fill="url(#paint3_linear_279_2055)"/>
<path d="M356.7 94L330.2 124.8L324.1 120.1C324.1 120.1 317.7 132.9 315.8 142.9C315.8 142.9 326.6 144.1 327.8 143.4C329 142.7 350.4 126.7 350.4 126.7L356.7 94Z" fill="url(#paint4_linear_279_2055)"/>
<path d="M369.7 89.3999C369.7 89.3999 358.4 93.3999 357.1 93.6999C355.8 93.9999 344.9 110.4 344 114.4C343.1 118.4 344.7 124.6 346.5 129C346.5 129 339.7 158.8 339.3 184.3C343.1 197.2 360.4 199.5 377.4 191.9C394.4 184.3 397.7 180.4 397.7 179.4C397.7 178.4 383.6 154.5 383.6 154.5C383.6 154.5 395.2 130.3 398.4 119.2C401.6 108.1 399.3 99.2999 398.4 97.9999C397.5 96.6999 382.7 88.8999 382.7 88.8999L369.7 89.3999Z" fill="url(#paint5_linear_279_2055)"/>
<path d="M367.7 101.2C367.7 101.2 369.3 106.8 372.8 107.4C376.3 108 383.2 101.6 384.7 96.8001C386.2 91.9001 385.6 89.9001 385.6 89.9001L383 87.6001L365.2 89.5001L363.1 91.6001C363.1 91.6001 360.1 97.8001 359.8 101.8C359.5 106 364.3 107.1 367.7 101.2Z" fill="white"/>
<path d="M364.6 92.9002C364.2 93.6002 364.8 100.9 367.7 101.2C370.6 101.6 382.5 92.8002 383 88.6002C383.5 83.7002 384.7 75.7002 384.7 75.7002L364.7 85.1002C364.8 85.2002 366.1 89.8002 364.6 92.9002Z" fill="url(#paint6_linear_279_2055)"/>
<path d="M383.9 81.3003C384.3 78.2003 384.7 75.8003 384.7 75.8003L364.7 85.2003C364.7 85.2003 365.9 89.5003 364.7 92.6003C371.5 91.8003 380 88.5003 383.9 81.3003Z" fill="url(#paint7_linear_279_2055)"/>
<path d="M357 66.3999C351.5 66.3999 348.8 73.4999 352.3 76.1999C352.7 76.4999 353.5 76.3999 353.5 75.8999C353.5 75.4999 354.3 69.5999 357.9 67.8999C357.9 67.8999 357.9 66.6999 357 66.3999Z" fill="#2C3044"/>
<path d="M358.6 61.5001C355.1 61.2001 350.4 58.9001 350.6 53.9001C350.6 53.9001 349.1 56.8001 348.9 56.5001C348.7 56.2001 347.7 41.5001 364.4 37.6001L359.9 61.7001L358.6 61.5001Z" fill="#2C3044"/>
<path d="M354.4 64.4C354.3 66.2 353 71.3 353.9 76C354.8 80.7 358.3 85.2 362 87.3C369 87.5 380.9 84.4 385.5 75.2C388.9 72.2 393.8 66.3 394.9 59.5C389.7 48.5 372.4 43.1 366.2 43C357 48.7 354.7 55.3 354.4 64.4Z" fill="url(#paint8_linear_279_2055)"/>
<path d="M369.8 63.1997C368.4 63.6997 367.4 64.6997 366.9 66.0997C367.9 67.4997 368.9 68.2998 371.1 68.2998C373.3 68.2998 374.8 67.1997 375.2 66.6997C374.9 64.7997 373.4 62.5997 369.8 63.1997Z" fill="white"/>
<path d="M373 65.8998C372.7 67.2998 371.5 68.1998 370.2 67.9998C368.9 67.7998 368.1 66.3998 368.4 64.9998C368.7 63.5998 369.9 62.6998 371.2 62.8998C372.4 63.1998 373.2 64.4998 373 65.8998Z" fill="url(#paint9_linear_279_2055)"/>
<path d="M373.7 64.2997C373.6 64.6997 373 64.7997 372.5 64.6997C371.9 64.4997 371.6 64.0997 371.7 63.6997C371.8 63.2997 372.4 63.1997 372.9 63.2997C373.4 63.4997 373.8 63.9997 373.7 64.2997Z" fill="white"/>
<path d="M366.9 65.0999C366.9 65.0999 369.5 62.6999 372.1 63.6999C374.7 64.6999 375.1 66.6 375 67.3L376.7 66.4999C376.7 66.4999 375.5 63.5999 372.2 62.8999C369 62.2999 367.4 64.3999 366.9 65.0999Z" fill="#252A3B"/>
<path d="M354.8 63.9C354.9 65.2 355.4 66.3 356.8 66.2C358.2 66.1 359.2 65.3 359.2 65.3C359.2 65.3 359.3 63.6 358.3 62.9C357.2 62 355.4 62.1 354.8 63.9Z" fill="white"/>
<path d="M358.1 64.5999C357.9 65.5999 357.1 66.2999 356.3 66.0999C355.5 65.8999 354.9 64.8999 355.1 63.8999C355.3 62.8999 356.1 62.1999 356.9 62.3999C357.7 62.5999 358.3 63.5999 358.1 64.5999Z" fill="url(#paint10_linear_279_2055)"/>
<path d="M358.3 63.1002C358.3 63.3002 357.9 63.4002 357.5 63.4002C357.1 63.3002 356.8 63.1002 356.8 63.0002C356.8 62.8002 357.2 62.7002 357.6 62.7002C358 62.7002 358.3 62.9002 358.3 63.1002Z" fill="white"/>
<path d="M359.5 65.2C358.9 62.4 356 61.9 354.8 64.1L354.2 63.4C354.2 63.4 355.4 61.6 357.5 62.1C359.5 62.6 359.5 65.2 359.5 65.2Z" fill="#252A3B"/>
<path d="M368.2 59.5003C366.6 60.2003 366.5 61.6003 366.5 61.6003C366.5 61.6003 372.2 59.4003 378.3 60.6003C373.3 58.7003 369.4 59.0003 368.2 59.5003Z" fill="#252A3B"/>
<path d="M355 59.0003C355 59.0003 357.3 58.9003 359.7 60.8003C359.7 60.8003 360 59.5003 358.8 58.8003C357.1 57.9003 355 59.0003 355 59.0003Z" fill="#252A3B"/>
<path d="M361.4 68.3003C361.4 68.3003 360.6 69.7003 360 70.6003C359.3 71.5003 359.4 72.2003 359.9 73.1003C360.2 73.7003 360.7 74.3003 360.7 74.3003C360.7 74.3003 358.7 73.0003 358.7 71.7003C358.6 70.7003 361.4 68.3003 361.4 68.3003Z" fill="#DD8076"/>
<path d="M362.6 74.3002C362.6 74.3002 362 73.2002 362.5 73.2002C362.9 73.2002 364.1 74.2002 364.1 74.2002C364.1 74.2002 363 74.1002 362.6 74.3002Z" fill="#DD8076"/>
<path d="M358.1 77.8003C358.1 77.8003 358.7 78.7003 362.3 79.0003C365.8 79.3003 368.3 78.9003 368.7 78.8003C369.1 78.7003 370.8 78.5003 371 78.5003C371.3 78.5003 371.5 78.3003 371.4 78.1003C371.3 77.9003 370.9 77.9003 370.6 78.1003C370.3 78.3003 370 78.5003 368.6 78.8003C367.1 79.0003 360.4 78.7003 358.1 77.8003Z" fill="#DD8076"/>
<path d="M360.1 81.2001C360.1 81.2001 361 81.0001 361.9 81.3001C362.8 81.6001 363.4 82.1001 363.4 82.1001C363.4 82.1001 362.1 82.4001 361.3 82.2001C360.5 82.0001 360.1 81.2001 360.1 81.2001Z" fill="#FBBEB7"/>
<path d="M361.2 47.7C361.2 47.7 361.1 47.9 361 48.2C360.9 48.5 360.7 48.9 360.5 49.4C360.3 49.9 360.1 50.5 359.9 51.2C359.8 51.5 359.7 51.9 359.7 52.2C359.6 52.6 359.6 52.9 359.5 53.3C359.5 53.7 359.4 54 359.5 54.4C359.5 54.8 359.6 55.1 359.6 55.4C359.7 55.7 359.7 56.1 359.8 56.4C359.9 56.7 360 57 360.1 57.2C360.2 57.4 360.3 57.7 360.5 57.9C360.6 58.1 360.7 58.3 360.8 58.4C361 58.7 361.1 58.8 361.1 58.8V58.9C361.1 58.9 361.1 58.9 361 58.9C361 58.9 360.9 58.8 360.6 58.5C360.5 58.4 360.4 58.2 360.2 58C360 57.8 359.9 57.6 359.7 57.4C359.6 57.1 359.4 56.9 359.3 56.6C359.2 56.3 359 56 358.9 55.6C358.8 55.2 358.7 54.9 358.7 54.5C358.6 54.1 358.6 53.7 358.6 53.3C358.6 52.9 358.6 52.5 358.7 52.1C358.7 51.7 358.8 51.3 358.8 51C358.9 50.3 359.1 49.6 359.2 49.1C359.4 48.5 359.5 48.1 359.6 47.8C359.7 47.5 359.8 47.3 359.8 47.3C359.9 47 360.3 46.8 360.6 46.9C361.1 46.9 361.3 47.3 361.2 47.7C361.2 47.6 361.2 47.6 361.2 47.7Z" fill="#2C3044"/>
<path d="M385 68.6999C379.6 67.7999 375.7 74.2999 378.7 77.5999C379 77.9999 379.8 77.9999 379.9 77.4999C380 77.0999 381.8 71.3999 385.6 70.3999C385.7 70.2999 385.8 69.0999 385 68.6999Z" fill="#2C3044"/>
<path d="M361.8 39.5001C360 41.7001 359.5 46.6001 360.7 52.4001C361.9 58.1001 366.8 63.6001 367.3 62.7001C367.8 61.8001 367.5 56.0001 367.5 56.0001C367.5 56.0001 370.3 61.4001 372.3 63.3001C372.3 63.3001 372.7 61.8001 372.5 59.3001C372.5 59.3001 376.2 70.4001 386.4 70.6001C396.6 70.8001 396.9 61.2001 397.2 56.6001C397.4 51.9001 394.1 41.4001 382 37.3001C369.8 33.2001 363.5 37.4001 361.8 39.5001Z" fill="#2C3044"/>
<path d="M385.6 68.4002C387.2 66.6002 389.3 65.4002 391.1 66.6002C392.9 67.8002 392.4 73.4002 389.7 75.9002C387 78.4002 383.9 78.1002 383.6 77.3002C383.1 76.3002 383.8 70.4002 385.6 68.4002Z" fill="url(#paint11_linear_279_2055)"/>
<path d="M386.1 76.0002C386.597 76.0002 387 75.5972 387 75.1002C387 74.6031 386.597 74.2002 386.1 74.2002C385.603 74.2002 385.2 74.6031 385.2 75.1002C385.2 75.5972 385.603 76.0002 386.1 76.0002Z" fill="#2C3044"/>
<path d="M347.5 110.5C346.5 108.9 346.1 102.4 346.2 101.2C346.3 100 346.1 99.2002 345.8 98.1002C345.4 97.0002 344.7 93.9003 344.8 93.5003C344.8 93.1003 342.8 93.0002 342.9 95.1002C342.9 97.3002 343.3 98.0003 343.3 98.0003C343.3 98.0003 342.6 99.5002 342.4 100.1C342.3 100.3 342 100.6 341.6 101C340.8 100.3 339.9 99.4003 339.5 99.0003C338.9 98.3003 335.7 93.1003 335.3 92.5003C334.9 92.0003 333.9 91.6003 333.4 92.3003C332.9 93.0003 329.5 99.3002 329 100.6C328.5 101.9 332.2 106.5 332.9 107.1C333.6 107.7 338.5 112.6 338.5 112.6C340.1 114.6 341.3 115 342.6 116.3C343.9 117.7 365.8 143.5 365.8 143.5L370 131.6C369.8 131.7 348.5 112.1 347.5 110.5Z" fill="url(#paint12_linear_279_2055)"/>
<path d="M398.3 98.0003C397.9 97.9003 391.4 103.6 385.8 114.4C382.2 121.3 375.1 134 375.1 134L370.1 128.9C370.1 128.9 362.5 136.4 358.8 148.9C358.8 148.9 373.3 151.6 376 150.4C378.7 149.2 392.3 136.9 395.6 131.2C404 117 402.4 99.7003 398.3 98.0003Z" fill="url(#paint13_linear_279_2055)"/>
<path d="M159.7 128C159.7 128 154 146.2 153 149C152 151.8 150.2 156.8 149.6 156.9C148.9 157 144 155.1 142.3 152.1C140.5 149.2 152.2 127.1 152.2 127.1L159.7 128Z" fill="url(#paint14_linear_279_2055)"/>
<path d="M131.1 44C131.1 44 134.6 49.4 134.3 53.3C134 57.2 130.5 62.1 130.5 62.1H126.6V44.5L131.1 44Z" fill="#875F46"/>
<path d="M155.5 318.9C155.5 318.9 156.2 328.8 157 330.4C157.5 331.4 159.9 333.7 162.2 334.8C164.5 336 174.3 340.8 175.3 341.4C176.3 342 177.8 344.9 177.8 344.9H146.5C146.5 344.9 147.5 337.1 147.8 334.5C148 331.8 146.2 318.9 146.2 318.9H155.5Z" fill="url(#paint15_linear_279_2055)"/>
<path d="M164.6 344.1L146.5 337.5C146.5 337.5 144.8 341 145.6 346.1H164.6V344.1Z" fill="#454E69"/>
<path d="M167.5 336.1C167.5 336.1 162.4 340.6 160.5 346.2H180.9C180.9 346.2 180 342.6 177.9 341.4C175.7 340.1 167.5 336.1 167.5 336.1Z" fill="#BD3345"/>
<path d="M99.0999 318.9C99.0999 318.9 97.2999 329.5 97.8999 330.4C98.5999 331.3 99.4999 333.7 101.8 334.8C104.1 336 113.9 340.8 114.9 341.4C115.9 342 117.4 344.9 117.4 344.9H86.0999C86.0999 344.9 87.0999 337.1 87.3999 334.5C87.5999 331.8 88.9999 318.9 88.9999 318.9H99.0999Z" fill="url(#paint16_linear_279_2055)"/>
<path d="M104.1 344.1L85.9998 337.5C85.9998 337.5 84.2998 341 85.0998 346.1H104.1V344.1Z" fill="#454E69"/>
<path d="M107.1 336.1C107.1 336.1 102 340.6 100.1 346.2H120.5C120.5 346.2 119.6 342.6 117.5 341.4C115.3 340.1 107.1 336.1 107.1 336.1Z" fill="#BD3345"/>
<path d="M145.9 184.5C145.9 184.5 149.2 249 149.5 257.8C149.9 266.6 155.6 308 155.6 308L157.6 321.8C157.6 321.8 154 323.1 141.1 322.5L142.3 309C142.3 309 132.2 286.1 130.4 275.7C128.6 265.3 129.8 256.6 129.8 256.6C129.8 256.6 115.3 217.9 113.9 213.5C112.5 209.1 104.9 197.1 107.2 187.2L142.5 176.2L145.9 184.5Z" fill="#875F46"/>
<path d="M128.5 191.4C128.5 191.4 113.2 249.8 111 258.3C108.8 266.8 102 308.1 102 308.1L103.8 323.1C103.8 323.1 96.7999 326.2 85.8999 323.1L88.9999 305.1C88.9999 305.1 86.0999 280.2 87.4999 269.7C88.8999 259.2 92.5999 251.3 92.5999 251.3C92.5999 251.3 90.1999 210 90.1999 205.4C90.1999 200.8 86.4999 187 91.5999 178.3H128.5V191.4Z" fill="#B57F5E"/>
<path d="M116.2 89.3999C116.2 89.3999 127.5 93.3999 128.8 93.6999C130.1 93.9999 141 110.4 141.9 114.4C142.8 118.4 141.2 124.6 139.4 129C139.4 129 146.2 158.8 146.6 184.3C142.8 197.2 125.5 199.5 108.5 191.9C91.4999 184.3 88.2999 180.4 88.2999 179.4C88.2999 178.4 102.4 154.5 102.4 154.5C102.4 154.5 90.7999 130.3 87.5999 119.2C84.3999 108.1 86.6999 99.2999 87.5999 97.9999C88.4999 96.6999 103.3 88.8999 103.3 88.8999L116.2 89.3999Z" fill="#C7CBE3"/>
<path d="M121.3 92.8997C121.7 93.5997 121.1 100.9 118.2 101.2C115.3 101.6 103.4 92.7997 102.9 88.5997C102.4 83.6997 101.2 75.6997 101.2 75.6997L121.2 85.0997C121.1 85.1997 119.8 89.7997 121.3 92.8997Z" fill="url(#paint17_linear_279_2055)"/>
<path d="M101.9 81.2998C101.5 78.1998 101.1 75.7998 101.1 75.7998L121.1 85.1998C121.1 85.1998 119.9 89.4998 121.1 92.5998C114.4 91.7998 105.9 88.4998 101.9 81.2998Z" fill="url(#paint18_linear_279_2055)"/>
<path d="M131.5 64.4C131.6 66.2 132.9 71.3 132 76C131.1 80.7 127.6 85.2 123.9 87.3C116.9 87.5 105 84.4 100.4 75.2C96.9998 72.2 92.0998 66.3 90.9998 59.5C96.1998 48.5 113.5 43.1 119.7 43C128.9 48.7 131.2 55.3 131.5 64.4Z" fill="url(#paint19_linear_279_2055)"/>
<path d="M116.1 63.1997C117.5 63.6997 118.5 64.6997 119 66.0997C118 67.4997 117 68.2998 114.8 68.2998C112.6 68.2998 111.1 67.1997 110.7 66.6997C110.9 64.7997 112.5 62.5997 116.1 63.1997Z" fill="white"/>
<path d="M112.9 65.8998C113.2 67.2998 114.4 68.1998 115.7 67.9998C117 67.7998 117.8 66.3998 117.5 64.9998C117.2 63.5998 116 62.6998 114.7 62.8998C113.5 63.1998 112.6 64.4998 112.9 65.8998Z" fill="#B57F5E"/>
<path d="M112.2 64.2997C112.3 64.6997 112.9 64.7997 113.4 64.6997C114 64.4997 114.3 64.0997 114.2 63.6997C114.1 63.2997 113.5 63.1997 113 63.2997C112.5 63.4997 112.1 63.9997 112.2 64.2997Z" fill="white"/>
<path d="M118.9 65.0999C118.9 65.0999 116.3 62.6999 113.7 63.6999C111.1 64.6999 110.7 66.6 110.8 67.3L109.1 66.4999C109.1 66.4999 110.3 63.5999 113.6 62.8999C116.9 62.2999 118.4 64.3999 118.9 65.0999Z" fill="#875F46"/>
<path d="M131.1 63.9C131 65.2 130.5 66.3 129.1 66.2C127.7 66.1 126.7 65.3 126.7 65.3C126.7 65.3 126.6 63.6 127.6 62.9C128.7 62 130.5 62.1 131.1 63.9Z" fill="white"/>
<path d="M127.8 64.5999C128 65.5999 128.8 66.2999 129.6 66.0999C130.4 65.8999 131 64.8999 130.8 63.8999C130.6 62.8999 129.8 62.1999 129 62.3999C128.1 62.5999 127.6 63.5999 127.8 64.5999Z" fill="#B57F5E"/>
<path d="M127.6 63.1002C127.6 63.3002 128 63.4002 128.4 63.4002C128.8 63.3002 129.1 63.1002 129.1 63.0002C129.1 62.8002 128.7 62.7002 128.3 62.7002C127.9 62.7002 127.6 62.9002 127.6 63.1002Z" fill="white"/>
<path d="M126.4 65.2C127 62.4 129.9 61.9 131.1 64.1L131.7 63.4C131.7 63.4 130.5 61.6 128.4 62.1C126.4 62.6 126.4 65.2 126.4 65.2Z" fill="#875F46"/>
<path d="M117.7 59.4998C119.3 60.1998 119.4 61.5998 119.4 61.5998C119.4 61.5998 113.7 59.3998 107.6 60.5998C112.5 58.6998 116.5 58.9998 117.7 59.4998Z" fill="#875F46"/>
<path d="M130.9 58.9998C130.9 58.9998 128.6 58.8998 126.2 60.7998C126.2 60.7998 125.9 59.4998 127.1 58.7998C128.8 57.8998 130.9 58.9998 130.9 58.9998Z" fill="#875F46"/>
<path d="M124.5 68.2998C124.5 68.2998 125.3 69.6998 125.9 70.5998C126.6 71.4998 126.5 72.1998 126 73.0998C125.7 73.6998 125.2 74.2998 125.2 74.2998C125.2 74.2998 127.2 72.9998 127.2 71.6998C127.3 70.6998 124.5 68.2998 124.5 68.2998Z" fill="#DD8076"/>
<path d="M123.3 74.2997C123.3 74.2997 123.9 73.1997 123.4 73.1997C123 73.1997 121.8 74.1997 121.8 74.1997C121.8 74.1997 122.9 74.0997 123.3 74.2997Z" fill="#DD8076"/>
<path d="M127.7 77.7998C127.7 77.7998 127.1 78.6998 123.5 78.9998C120 79.2998 117.5 78.8998 117.1 78.7998C116.7 78.6998 115 78.4998 114.8 78.4998C114.5 78.4998 114.3 78.2998 114.4 78.0998C114.5 77.8998 114.9 77.8998 115.2 78.0998C115.5 78.2998 115.8 78.4998 117.2 78.7998C118.8 78.9998 125.5 78.6998 127.7 77.7998Z" fill="#DD8076"/>
<path d="M125.8 81.1996C125.8 81.1996 124.9 80.9996 124 81.2996C123.1 81.5996 122.5 82.0996 122.5 82.0996C122.5 82.0996 123.8 82.3996 124.6 82.1996C125.4 81.9996 125.8 81.1996 125.8 81.1996Z" fill="#FBBEB7"/>
<path d="M126.8 37.4998C128.1 37.5998 128.7 37.3998 130.5 40.2998C131.7 42.1998 132.8 47.8998 130.3 50.9998C127.8 54.0998 122.5 56.2998 122.4 55.3998C122.3 54.5998 122.6 52.0998 122.6 52.0998C122.6 52.0998 114.2 59.9998 110.6 61.5998C109 62.2998 111.2 58.3998 111.2 58.3998C111.2 58.3998 102.7 67.4998 98.7998 69.4998C94.8997 71.4998 95.2998 73.0998 95.2998 73.0998C95.2998 73.0998 90.1997 68.3998 89.4997 63.4998C89.4997 63.4998 87.7997 66.0998 87.5997 66.0998C87.3997 66.0998 85.7997 56.8998 87.5997 51.3998C89.3997 45.8998 91.2997 42.5998 93.6997 41.2998C96.1997 40.1998 105.6 35.7998 126.8 37.4998Z" fill="#B57F5E"/>
<path d="M100.3 68.3997C98.6999 66.5997 96.5999 65.3997 94.7999 66.5997C92.9999 67.7997 93.4999 73.3997 96.1999 75.8997C98.8999 78.3997 102 78.0997 102.3 77.2997C102.8 76.2997 102.1 70.3997 100.3 68.3997Z" fill="url(#paint20_linear_279_2055)"/>
<path d="M99.6998 75.9997C100.197 75.9997 100.6 75.5968 100.6 75.0997C100.6 74.6026 100.197 74.1997 99.6998 74.1997C99.2027 74.1997 98.7998 74.6026 98.7998 75.0997C98.7998 75.5968 99.2027 75.9997 99.6998 75.9997Z" fill="#2C3044"/>
<path d="M102.7 87.2998C102.7 87.2998 117.7 120.3 121.1 142.5C124.4 164.7 123 175.5 120.5 176.2C118 176.8 102.2 176.1 92.5997 167.7L101.1 152.9C101.1 152.9 89.5997 129.3 86.9997 121.1C84.0997 112.1 82.1997 100.7 87.3997 96.6998C92.5997 92.6998 102.7 87.2998 102.7 87.2998Z" fill="#545C82"/>
<path d="M120.7 90.9998C120.7 90.9998 128 106.8 132.9 127.4C137.8 148 139.2 168.9 139.2 170.2C139.2 171.5 140.1 174 142.1 173.1C144.1 172.2 148.7 167.8 148.7 166.2C148.7 164.6 140.7 130.1 141.1 129.1C141.4 128.1 143.7 117.8 142.2 113.7C140.7 109.5 130.3 94.1998 129.3 93.5998C128.3 92.9998 120.6 89.7998 120.6 89.7998L120.7 90.9998Z" fill="#545C82"/>
<path d="M72.8999 164.2L89.9999 183.5C89.9999 183.5 92.2999 185.5 94.6999 185.5C97.0999 185.5 100.7 185.2 101.5 185.5C102.3 185.8 104.8 191.4 105.6 192C106.4 192.6 108.5 191.7 108.5 191.7C108.5 191.7 110.4 184.9 110.1 182.9C109.8 180.9 107.1 174.8 106.3 174.5C105.5 174.3 103.2 173.5 102.1 173.9C101 174.3 94.4999 175.7 94.4999 175.7L82.4999 157.7L72.8999 164.2Z" fill="url(#paint21_linear_279_2055)"/>
<path d="M85.8998 98.4998C85.8998 98.4998 62.2998 146.9 62.2998 149C62.2998 151.1 71.6998 169.7 71.6998 169.7C71.6998 169.7 81.3998 165.5 85.7998 158.7L78.2998 146.9C78.2998 146.9 91.6998 129.9 94.3998 126.1C97.0998 122.3 97.6998 110.8 96.6998 105.8C95.6998 100.8 87.3998 96.3998 85.8998 98.4998Z" fill="#545C82"/>
<path d="M145.7 120.7C145.5 121.4 144.8 122 144.1 122H131.9C131.2 122 130.7 121.4 130.8 120.7L135.4 99.6999C135.6 98.9999 136.3 98.3999 137 98.3999H149.2C149.9 98.3999 150.4 98.9999 150.3 99.6999L145.7 120.7Z" fill="#707070"/>
<path d="M147.3 150.1C146.9 151.8 145.3 153.1 143.7 153.1H116.5C114.8 153.1 113.8 151.8 114.1 150.1L124.2 103.3C124.6 101.6 126.2 100.3 127.8 100.3H155C156.7 100.3 157.7 101.6 157.4 103.3L147.3 150.1Z" fill="#56A68B"/>
<path d="M154.2 109.4C154.2 109.4 153.3 109.4 152.8 109.4C152.2 109.4 146.5 111.1 146.1 111.5C145.7 112 146.1 113.8 146.1 113.8C146.1 113.8 143.8 120.8 143.8 121.4C143.8 122 144.8 126.4 145 126.7C145.2 127 148.6 128.6 149 129.1C149.4 129.6 149.9 128.8 149.9 128.1C149.8 127.4 148.1 125.9 148 125.6C147.9 125.3 147.9 125.1 147.9 125.1C147.9 125.1 151.5 129 153.3 129.6C155.1 130.2 160.1 128.9 159.9 127.6C159.7 126.3 155 109.4 154.2 109.4Z" fill="url(#paint22_linear_279_2055)"/>
<path d="M163 0C150 0 139.5 10.5 139.5 23.5C139.5 31.9 143.9 39.2 150.5 43.4C149.2 45.3 147.2 47.5 144.7 49C144.7 49 151 49.5 157.1 46.2C159 46.7 161 46.9 163 46.9C176 46.9 186.5 36.4 186.5 23.4C186.5 10.5 176 0 163 0Z" fill="#60B9F0"/>
<path d="M155.3 20.7998H151.6C151.1 20.7998 150.7 21.1998 150.7 21.6998V32.5998C150.7 33.0998 151.1 33.4998 151.6 33.4998H155.3C155.8 33.4998 156.2 33.0998 156.2 32.5998V21.6998C156.3 21.1998 155.8 20.7998 155.3 20.7998Z" fill="white"/>
<path d="M171.7 17.6999C169.5 17.6999 166.6 17.6999 166.6 17.6999C166.6 17.6999 166.6 13.3999 166.6 12.4999C166.6 11.5999 165.6 9.8999 164.8 9.8999C164 9.8999 163.2 9.8999 162.9 9.8999C162.5 9.8999 162.1 10.5999 162.1 11.7999C162.1 12.9999 162.1 14.2999 162.1 14.9999C162.1 15.6999 161.1 17.4999 160.4 18.4999C159.7 19.4999 158.3 20.2999 158.3 21.5999C158.3 21.5999 158.3 29.9999 158.3 30.8999C158.3 31.7999 159.1 32.9999 161 32.9999C163 32.9999 168.6 32.9999 169.8 32.9999C171 32.9999 172 32.7999 173.2 30.0999C174.4 27.3999 175 26.1999 175 23.9999C175 21.7999 175 21.3999 175 20.2999C174.9 18.8999 173.8 17.6999 171.7 17.6999Z" fill="white"/>
<defs>
<linearGradient id="paint0_linear_279_2055" x1="309.397" y1="335.778" x2="341.058" y2="330.956" gradientUnits="userSpaceOnUse">
<stop stop-color="#FBDAD0"/>
<stop offset="1" stop-color="#FBD0C4"/>
</linearGradient>
<linearGradient id="paint1_linear_279_2055" x1="369.526" y1="335.517" x2="398.3" y2="331.135" gradientUnits="userSpaceOnUse">
<stop stop-color="#FBDAD0"/>
<stop offset="1" stop-color="#FBD0C4"/>
</linearGradient>
<linearGradient id="paint2_linear_279_2055" x1="282.039" y1="93.7579" x2="289.155" y2="96.2301" gradientUnits="userSpaceOnUse">
<stop stop-color="#FBDAD0"/>
<stop offset="1" stop-color="#FBD0C4"/>
</linearGradient>
<linearGradient id="paint3_linear_279_2055" x1="304.698" y1="133.607" x2="299.817" y2="188.798" gradientUnits="userSpaceOnUse">
<stop stop-color="#FBDAD0"/>
<stop offset="1" stop-color="#FBD0C4"/>
</linearGradient>
<linearGradient id="paint4_linear_279_2055" x1="320.941" y1="116.76" x2="349.504" y2="119.947" gradientUnits="userSpaceOnUse">
<stop stop-color="#F7EB40"/>
<stop offset="1" stop-color="#F79102"/>
</linearGradient>
<linearGradient id="paint5_linear_279_2055" x1="359.781" y1="105.442" x2="417.708" y2="331.239" gradientUnits="userSpaceOnUse">
<stop stop-color="#F7EB40"/>
<stop offset="1" stop-color="#F79102"/>
</linearGradient>
<linearGradient id="paint6_linear_279_2055" x1="374.048" y1="85.9952" x2="372.16" y2="99.146" gradientUnits="userSpaceOnUse">
<stop stop-color="#FBDAD0"/>
<stop offset="1" stop-color="#FBD0C4"/>
</linearGradient>
<linearGradient id="paint7_linear_279_2055" x1="372.946" y1="89.5786" x2="375.974" y2="76.0902" gradientUnits="userSpaceOnUse">
<stop stop-color="#FBB8A6"/>
<stop offset="1" stop-color="#FBDAD0" stop-opacity="0.1"/>
</linearGradient>
<linearGradient id="paint8_linear_279_2055" x1="370.472" y1="78.8402" x2="376.939" y2="50.0303" gradientUnits="userSpaceOnUse">
<stop stop-color="#FBDAD0"/>
<stop offset="1" stop-color="#FBD0C4"/>
</linearGradient>
<linearGradient id="paint9_linear_279_2055" x1="370.486" y1="63.1274" x2="370.595" y2="67.5579" gradientUnits="userSpaceOnUse">
<stop stop-color="#252A3B"/>
<stop offset="1" stop-color="#676B78"/>
</linearGradient>
<linearGradient id="paint10_linear_279_2055" x1="356.562" y1="62.7834" x2="356.667" y2="65.9194" gradientUnits="userSpaceOnUse">
<stop stop-color="#252A3B"/>
<stop offset="1" stop-color="#676B78"/>
</linearGradient>
<linearGradient id="paint11_linear_279_2055" x1="387.104" y1="75.5013" x2="388.934" y2="67.3489" gradientUnits="userSpaceOnUse">
<stop stop-color="#FBDAD0"/>
<stop offset="1" stop-color="#FBD0C4"/>
</linearGradient>
<linearGradient id="paint12_linear_279_2055" x1="349.549" y1="113.935" x2="347.49" y2="137.214" gradientUnits="userSpaceOnUse">
<stop stop-color="#FBDAD0"/>
<stop offset="1" stop-color="#FBD0C4"/>
</linearGradient>
<linearGradient id="paint13_linear_279_2055" x1="363.147" y1="115.382" x2="416.021" y2="143.007" gradientUnits="userSpaceOnUse">
<stop stop-color="#F7EB40"/>
<stop offset="1" stop-color="#F79102"/>
</linearGradient>
<linearGradient id="paint14_linear_279_2055" x1="150.887" y1="150.071" x2="150.887" y2="130.308" gradientUnits="userSpaceOnUse">
<stop stop-color="#FBDAD0"/>
<stop offset="1" stop-color="#FBD0C4"/>
</linearGradient>
<linearGradient id="paint15_linear_279_2055" x1="176.487" y1="335.778" x2="144.827" y2="330.956" gradientUnits="userSpaceOnUse">
<stop stop-color="#FBDAD0"/>
<stop offset="1" stop-color="#FBD0C4"/>
</linearGradient>
<linearGradient id="paint16_linear_279_2055" x1="116.358" y1="335.517" x2="87.5849" y2="331.135" gradientUnits="userSpaceOnUse">
<stop stop-color="#FBDAD0"/>
<stop offset="1" stop-color="#FBD0C4"/>
</linearGradient>
<linearGradient id="paint17_linear_279_2055" x1="111.837" y1="85.9946" x2="113.724" y2="99.1455" gradientUnits="userSpaceOnUse">
<stop stop-color="#FBDAD0"/>
<stop offset="1" stop-color="#FBD0C4"/>
</linearGradient>
<linearGradient id="paint18_linear_279_2055" x1="112.939" y1="89.5781" x2="109.911" y2="76.0897" gradientUnits="userSpaceOnUse">
<stop stop-color="#FBB8A6"/>
<stop offset="1" stop-color="#FBDAD0" stop-opacity="0.1"/>
</linearGradient>
<linearGradient id="paint19_linear_279_2055" x1="115.413" y1="78.8401" x2="108.946" y2="50.0302" gradientUnits="userSpaceOnUse">
<stop stop-color="#FBDAD0"/>
<stop offset="1" stop-color="#FBD0C4"/>
</linearGradient>
<linearGradient id="paint20_linear_279_2055" x1="98.7804" y1="75.5008" x2="96.9506" y2="67.3485" gradientUnits="userSpaceOnUse">
<stop stop-color="#FBDAD0"/>
<stop offset="1" stop-color="#FBD0C4"/>
</linearGradient>
<linearGradient id="paint21_linear_279_2055" x1="91.5045" y1="184.392" x2="91.5045" y2="161.449" gradientUnits="userSpaceOnUse">
<stop stop-color="#FBDAD0"/>
<stop offset="1" stop-color="#FBD0C4"/>
</linearGradient>
<linearGradient id="paint22_linear_279_2055" x1="151.798" y1="125.122" x2="151.798" y2="111.607" gradientUnits="userSpaceOnUse">
<stop stop-color="#FBDAD0"/>
<stop offset="1" stop-color="#FBD0C4"/>
</linearGradient>
</defs>
</svg>
