<svg width="14" height="16" viewBox="0 0 14 16" fill="none" xmlns="http://www.w3.org/2000/svg">
<path fill-rule="evenodd" clip-rule="evenodd" d="M6.99882 0.5C6.00426 0.5 5.05043 0.895088 4.34717 1.59835C3.64391 2.30161 3.24882 3.25544 3.24882 4.25C3.24882 5.24456 3.64391 6.19839 4.34717 6.90165C5.05043 7.60491 6.00426 8 6.99882 8C7.99338 8 8.94721 7.60491 9.65047 6.90165C10.3537 6.19839 10.7488 5.24456 10.7488 4.25C10.7488 3.25544 10.3537 2.30161 9.65047 1.59835C8.94721 0.895088 7.99338 0.5 6.99882 0.5ZM4.74882 8.75C3.50157 8.75 2.30232 9.3185 1.59957 10.175C1.24332 10.61 0.992068 11.1478 0.970318 11.744C0.947818 12.353 1.16757 12.947 1.62132 13.4653C2.72532 14.729 4.48857 15.5 6.99882 15.5C9.50907 15.5 11.2723 14.729 12.3763 13.4653C12.8301 12.947 13.0498 12.353 13.0273 11.744C13.0048 11.1478 12.7551 10.61 12.3973 10.175C11.6961 9.32 10.4968 8.75 9.24882 8.75H4.74882Z" fill="url(#paint0_linear_1894_12138)"/>
<defs>
<linearGradient id="paint0_linear_1894_12138" x1="3.95807" y1="15.5" x2="14.0479" y2="11.9757" gradientUnits="userSpaceOnUse">
<stop stop-color="#1C2A44"/>
<stop offset="0.5" stop-color="#377899"/>
<stop offset="1" stop-color="#4669AA"/>
</linearGradient>
</defs>
</svg>
