<svg width="1440" height="2257" viewBox="0 0 1440 2257" fill="none" xmlns="http://www.w3.org/2000/svg">
<path fill-rule="evenodd" clip-rule="evenodd" d="M0 2.18119C0 2.18119 86.1226 21.1404 127.186 21.0342C276.754 20.6473 313.752 0.295889 475.042 0.295889C636.331 0.295889 685.279 2.18119 685.279 2.18119C685.279 2.18119 798.006 21.0342 893.511 21.0342C989.017 21.0342 980.676 7.08886 1084.49 2.18119C1188.31 -2.72649 1216.69 2.18119 1295.53 2.18119C1374.37 2.18119 1450 2.18119 1450 2.18119V2231.55C1450 2231.55 1416.7 2257 1265.04 2257C1113.38 2257 1105.96 2231.55 955.7 2231.55C805.444 2231.55 829.116 2257 637.133 2257C445.151 2257 392.591 2219.29 260.39 2219.29C128.189 2219.29 0 2257 0 2257V2.18119Z" fill="#1C2A44" fill-opacity="0.08"/>
</svg>
